<svg width="715" height="360" viewBox="0 0 715 360" fill="none" xmlns="http://www.w3.org/2000/svg">
<path fill-rule="evenodd" clip-rule="evenodd" d="M179.993 13.458C183.674 13.458 186.659 10.4453 186.659 6.72899C186.659 3.01267 183.674 0 179.993 0C176.311 0 173.326 3.01267 173.326 6.72899C173.326 10.4453 176.311 13.458 179.993 13.458ZM180.005 63.9252C187.369 63.9252 193.338 56.3936 193.338 47.1028C193.338 37.812 187.369 30.2803 180.005 30.2803C172.641 30.2803 166.672 37.812 166.672 47.1028C166.672 56.3936 172.641 63.9252 180.005 63.9252ZM112.952 65.7142C119.626 68.8555 128.19 64.5759 132.08 56.1555C135.97 47.7352 133.713 38.3626 127.039 35.2214C120.365 32.0802 111.802 36.3597 107.912 44.7801C104.022 53.2005 106.278 62.573 112.952 65.7142ZM70.2191 69.212C64.3025 76.3293 54.9333 78.2259 49.2923 73.4482C43.6514 68.6705 43.8748 59.0277 49.7915 51.9105C55.7081 44.7932 65.0773 42.8966 70.7182 47.6743C76.3592 52.452 76.1357 62.0948 70.2191 69.212ZM39.281 134.009C44.9219 138.787 54.2911 136.89 60.2078 129.773C66.1244 122.656 66.3478 113.013 60.7069 108.235C55.066 103.458 45.6967 105.354 39.7801 112.471C33.8635 119.589 33.64 129.231 39.281 134.009ZM60.216 233.593C66.1326 240.71 66.3561 250.353 60.7151 255.13C55.0742 259.908 45.705 258.012 39.7884 250.894C33.8717 243.777 33.6483 234.134 39.2892 229.357C44.9302 224.579 54.2994 226.476 60.216 233.593ZM247.032 65.7137C253.706 62.5725 255.963 53.1999 252.073 44.7796C248.183 36.3592 239.619 32.0796 232.945 35.2209C226.271 38.3621 224.014 47.7347 227.905 56.155C231.795 64.5754 240.358 68.855 247.032 65.7137ZM310.201 51.91C316.118 59.0273 316.341 68.67 310.7 73.4477C305.059 78.2254 295.69 76.3288 289.773 69.2116C283.857 62.0943 283.633 52.4516 289.274 47.6739C294.915 42.8962 304.284 44.7928 310.201 51.91ZM320.7 134.009C326.341 129.231 326.118 119.588 320.201 112.471C314.284 105.354 304.915 103.457 299.274 108.235C293.633 113.013 293.857 122.655 299.773 129.773C305.69 136.89 315.059 138.786 320.7 134.009ZM320.211 250.895C314.295 258.012 304.926 259.908 299.285 255.131C293.644 250.353 293.867 240.71 299.784 233.593C305.7 226.476 315.07 224.579 320.711 229.357C326.352 234.135 326.128 243.777 320.211 250.895ZM138.051 14.8519C134.146 18.7937 128.869 19.8589 126.266 17.231C123.662 14.6031 124.718 9.27733 128.623 5.33552C132.528 1.39371 137.804 0.32855 140.408 2.95642C143.011 5.5843 141.956 10.9101 138.051 14.8519ZM79.8955 27.7573C81.2762 30.1712 86.2728 29.8684 91.0557 27.0811C95.8386 24.2938 98.5966 20.0774 97.216 17.6636C95.8353 15.2498 90.8387 15.5525 86.0558 18.3398C81.2729 21.1271 78.5148 25.3435 79.8955 27.7573ZM231.373 5.33508C235.279 9.27689 236.334 14.6027 233.73 17.2305C231.127 19.8584 225.851 18.7933 221.945 14.8515C218.04 10.9096 216.985 5.58386 219.588 2.95599C222.192 0.328113 227.468 1.39327 231.373 5.33508ZM280.544 29.4397C281.925 27.0259 279.167 22.8095 274.384 20.0222C269.601 17.2349 264.604 16.9322 263.224 19.346C261.843 21.7599 264.601 25.9762 269.384 28.7635C274.167 31.5508 279.163 31.8536 280.544 29.4397ZM166.652 311.598C166.652 302.307 172.621 294.775 179.985 294.775C187.349 294.775 193.319 302.307 193.319 311.598C193.319 320.889 187.349 328.42 179.985 328.42C172.621 328.42 166.652 320.889 166.652 311.598ZM247.034 292.987C240.361 289.846 231.797 294.125 227.907 302.546C224.017 310.966 226.274 320.338 232.947 323.48C239.621 326.621 248.185 322.341 252.075 313.921C255.965 305.501 253.708 296.128 247.034 292.987ZM289.771 289.489C295.688 282.372 305.057 280.475 310.698 285.253C316.339 290.031 316.115 299.673 310.199 306.791C304.282 313.908 294.913 315.804 289.272 311.027C283.631 306.249 283.855 296.606 289.771 289.489ZM112.951 292.987C106.277 296.129 104.02 305.501 107.91 313.922C111.8 322.342 120.364 326.622 127.038 323.48C133.711 320.339 135.968 310.966 132.078 302.546C128.188 294.126 119.625 289.846 112.951 292.987ZM49.7893 306.791C43.8727 299.674 43.6492 290.031 49.2901 285.253C54.9311 280.476 64.3003 282.372 70.2169 289.49C76.1335 296.607 76.357 306.25 70.7161 311.027C65.0751 315.805 55.7059 313.908 49.7893 306.791ZM179.998 346.543C176.316 346.543 173.331 349.556 173.331 353.272C173.331 356.988 176.316 360.001 179.998 360.001C183.68 360.001 186.664 356.988 186.664 353.272C186.664 349.556 183.68 346.543 179.998 346.543ZM221.939 343.849C225.845 339.907 231.121 338.842 233.724 341.47C236.328 344.098 235.273 349.424 231.367 353.365C227.462 357.307 222.186 358.372 219.582 355.745C216.979 353.117 218.034 347.791 221.939 343.849ZM280.095 328.714C278.714 326.3 273.717 326.603 268.935 329.391C264.152 332.178 261.394 336.394 262.774 338.808C264.155 341.222 269.152 340.919 273.934 338.132C278.717 335.345 281.475 331.128 280.095 328.714ZM128.617 353.365C124.712 349.424 123.656 344.098 126.26 341.47C128.863 338.842 134.14 339.907 138.045 343.849C141.95 347.791 143.005 353.117 140.402 355.745C137.798 358.372 132.522 357.307 128.617 353.365ZM79.4388 328.034C78.0581 330.448 80.8162 334.665 85.5991 337.452C90.382 340.239 95.3785 340.542 96.7592 338.128C98.1399 335.714 95.3819 331.498 90.599 328.711C85.8161 325.923 80.8195 325.621 79.4388 328.034ZM133.327 178.318C133.327 189.467 124.373 198.505 113.328 198.505C102.283 198.505 93.3285 189.467 93.3285 178.318C93.3285 167.169 102.283 158.131 113.328 158.131C124.373 158.131 133.327 167.169 133.327 178.318ZM49.9975 195.141C59.202 195.141 66.6637 188.362 66.6637 180C66.6637 171.639 59.202 164.86 49.9975 164.86C40.793 164.86 33.3313 171.639 33.3313 180C33.3313 188.362 40.793 195.141 49.9975 195.141ZM13.3334 180C13.3334 184.646 10.3486 188.412 6.66669 188.412C2.98478 188.412 0 184.646 0 180C0 175.355 2.98478 171.589 6.66669 171.589C10.3486 171.589 13.3334 175.355 13.3334 180ZM3.55862 227.163C4.98801 232.547 9.02982 236.133 12.5863 235.171C16.1427 234.209 17.867 229.064 16.4376 223.679C15.0083 218.295 10.9665 214.71 7.41001 215.672C3.85356 216.633 2.12924 221.778 3.55862 227.163ZM33.729 276.298C31.1255 278.925 25.8492 277.86 21.944 273.918C18.0388 269.977 16.9835 264.651 19.587 262.023C22.1905 259.395 27.4668 260.46 31.372 264.402C35.2772 268.344 36.3324 273.67 33.729 276.298ZM16.4481 136.322C17.8775 130.937 16.1532 125.792 12.5968 124.83C9.04034 123.869 4.99849 127.454 3.56907 132.838C2.13965 138.223 3.86395 143.368 7.4204 144.33C10.9768 145.291 15.0187 141.706 16.4481 136.322ZM33.7312 83.704C36.3347 86.3318 35.2794 91.6576 31.3742 95.5994C27.469 99.5413 22.1927 100.606 19.5893 97.9785C16.9858 95.3507 18.0411 90.0249 21.9462 86.0831C25.8514 82.1413 31.1278 81.0761 33.7312 83.704ZM246.657 198.505C257.702 198.505 266.656 189.467 266.656 178.318C266.656 167.169 257.702 158.131 246.657 158.131C235.612 158.131 226.657 167.169 226.657 178.318C226.657 189.467 235.612 198.505 246.657 198.505ZM326.649 180C326.649 188.362 319.187 195.141 309.983 195.141C300.778 195.141 293.316 188.362 293.316 180C293.316 171.639 300.778 164.86 309.983 164.86C319.187 164.86 326.649 171.639 326.649 180ZM353.333 188.412C357.015 188.412 360 184.646 360 180C360 175.355 357.015 171.589 353.333 171.589C349.651 171.589 346.667 175.355 346.667 180C346.667 184.646 349.651 188.412 353.333 188.412ZM352.587 215.671C356.143 216.633 357.867 221.778 356.438 227.163C355.009 232.547 350.967 236.133 347.41 235.171C343.854 234.209 342.13 229.064 343.559 223.679C344.988 218.295 349.03 214.71 352.587 215.671ZM338.033 273.918C341.938 269.976 342.993 264.65 340.39 262.023C337.786 259.395 332.51 260.46 328.605 264.402C324.7 268.343 323.644 273.669 326.248 276.297C328.851 278.925 334.128 277.86 338.033 273.918ZM352.576 144.33C349.02 145.292 344.978 141.706 343.549 136.322C342.119 130.937 343.843 125.792 347.4 124.83C350.956 123.869 354.998 127.454 356.428 132.838C357.857 138.223 356.133 143.368 352.576 144.33ZM328.621 95.5999C332.526 99.5417 337.803 100.607 340.406 97.979C343.01 95.3511 341.954 90.0253 338.049 86.0835C334.144 82.1417 328.868 81.0765 326.264 83.7044C323.661 86.3323 324.716 91.6581 328.621 95.5999ZM132.705 240.819C135.564 251.588 129.953 262.462 120.173 265.107C110.393 267.753 100.147 261.167 97.2887 250.398C94.43 239.629 100.041 228.754 109.821 226.109C119.601 223.464 129.846 230.05 132.705 240.819ZM239.806 265.107C249.586 267.752 259.831 261.167 262.69 250.398C265.549 239.628 259.938 228.754 250.158 226.109C240.378 223.464 230.133 230.05 227.274 240.819C224.415 251.588 230.026 262.462 239.806 265.107Z" fill="url(#paint0_radial_10258_406)"/>
<path fill-rule="evenodd" clip-rule="evenodd" d="M117.75 135.827C121.323 135.827 124.685 134.917 127.62 133.314C133.859 129.907 140.107 125.37 147.215 125.37H150.114C155.429 125.37 160.51 128.302 164.313 132.015C167.489 135.115 170.035 138.914 170.744 143.295L170.832 143.844C171.407 147.401 171.425 151.025 170.884 154.587L170.839 154.887C170.071 159.944 166.711 164.142 163.592 168.196C160.87 171.734 159.25 176.176 159.25 181C159.25 183.382 159.645 185.671 160.373 187.804C163.357 196.552 169.625 204.8 169.625 214.043C169.625 223.287 163.357 231.535 160.373 240.283C159.645 242.416 159.25 244.705 159.25 247.087C159.25 258.637 168.54 268 180 268C191.46 268 200.75 258.637 200.75 247.087C200.75 244.705 200.355 242.416 199.627 240.283C196.643 231.535 190.375 223.287 190.375 214.043C190.375 204.8 196.643 196.552 199.627 187.804C200.355 185.671 200.75 183.382 200.75 181C200.75 176.176 199.13 171.734 196.408 168.196C193.289 164.142 189.929 159.944 189.161 154.887L189.116 154.587C188.575 151.025 188.593 147.401 189.168 143.844L189.256 143.295C189.965 138.914 192.511 135.115 195.687 132.015C199.49 128.302 204.571 125.37 209.886 125.37H212.785C219.893 125.37 226.141 129.907 232.38 133.314C235.315 134.917 238.677 135.827 242.25 135.827C253.71 135.827 263 126.464 263 114.913C263 103.363 253.71 94 242.25 94C238.677 94 235.315 94.9102 232.38 96.5131C226.141 99.9197 219.893 104.457 212.785 104.457C205.677 104.457 199.046 100.243 192.664 97.1152C188.633 95.14 183.999 94 180 94C176.001 94 171.367 95.14 167.336 97.1152C160.954 100.243 154.323 104.457 147.215 104.457C140.107 104.457 133.859 99.9197 127.62 96.5131C124.685 94.9102 121.323 94 117.75 94C106.29 94 97 103.363 97 114.913C97 126.464 106.29 135.827 117.75 135.827Z" fill="url(#paint1_linear_10258_406)"/>
<path fill-rule="evenodd" clip-rule="evenodd" d="M553.762 235C548.437 235 543.527 233.599 539.032 230.798C534.585 227.997 531.019 224.27 528.332 219.618C525.693 214.916 524.374 209.764 524.374 204.161V197.108C524.374 196.558 524.618 196.282 525.107 196.282H541.963C542.354 196.282 542.549 196.558 542.549 197.108V204.161C542.549 207.513 543.649 210.414 545.847 212.865C548.046 215.266 550.684 216.467 553.762 216.467C556.889 216.467 559.552 215.241 561.751 212.79C563.949 210.289 565.049 207.412 565.049 204.161C565.049 200.409 562.655 197.133 557.867 194.332C557.085 193.831 556.059 193.231 554.788 192.531C553.567 191.78 552.101 190.93 550.391 189.98C548.681 189.029 547.02 188.104 545.408 187.203C543.795 186.253 542.232 185.352 540.717 184.502C535.245 181.201 531.165 177.074 528.478 172.121C525.84 167.119 524.521 161.517 524.521 155.314C524.521 149.611 525.889 144.459 528.625 139.857C531.361 135.305 534.927 131.703 539.325 129.052C543.771 126.351 548.583 125 553.762 125C559.088 125 563.974 126.351 568.42 129.052C572.866 131.803 576.408 135.455 579.047 140.007C581.734 144.559 583.078 149.661 583.078 155.314V167.92C583.078 168.32 582.882 168.52 582.491 168.52H565.635C565.244 168.52 565.049 168.32 565.049 167.92L564.902 155.314C564.902 151.712 563.803 148.786 561.604 146.535C559.406 144.284 556.792 143.158 553.762 143.158C550.684 143.158 548.046 144.359 545.847 146.76C543.649 149.161 542.549 152.012 542.549 155.314C542.549 158.665 543.233 161.467 544.601 163.718C546.018 165.969 548.583 168.12 552.297 170.171C552.688 170.371 553.591 170.871 555.008 171.671C556.425 172.472 557.989 173.372 559.699 174.372C561.458 175.323 563.046 176.198 564.462 176.999C565.879 177.749 566.734 178.199 567.028 178.349C572.011 181.201 575.944 184.702 578.827 188.854C581.758 193.006 583.224 198.108 583.224 204.161C583.224 210.014 581.905 215.266 579.267 219.918C576.579 224.57 573.013 228.247 568.567 230.948C564.12 233.649 559.186 235 553.762 235ZM646.18 127.176L627.564 232.749C627.564 233.249 627.76 233.499 628.151 233.499H644.86C645.3 233.499 645.544 233.249 645.593 232.749L647.206 221.494H667.653L669.265 232.749C669.314 233.249 669.583 233.499 670.071 233.499H686.708C687.147 233.499 687.343 233.249 687.294 232.749L669.412 127.176C669.314 126.776 669.07 126.576 668.679 126.576H646.912C646.522 126.576 646.277 126.776 646.18 127.176ZM650.21 205.061L656.953 161.917L657.612 156.214L658.492 161.917L664.648 205.061H650.21ZM697.411 233.499H714.413C714.804 233.499 715 233.249 715 232.749L714.853 127.176C714.853 126.776 714.658 126.576 714.267 126.576H697.411C697.02 126.576 696.824 126.776 696.824 127.176L696.678 232.749C696.678 233.249 696.922 233.499 697.411 233.499ZM456.436 233.499H473.439C473.83 233.499 474.025 233.249 474.025 232.749L474.172 187.578H484.066C487.779 187.578 490.906 188.929 493.447 191.63C495.987 194.332 497.258 197.533 497.258 201.235V233.049C497.258 233.349 497.453 233.499 497.844 233.499H514.847C515.335 233.499 515.58 233.249 515.58 232.749L515.433 201.235C515.433 192.931 512.721 185.703 507.298 179.55C508.52 178.549 509.863 176.999 511.329 174.898C512.844 172.797 514.163 170.221 515.286 167.169C516.41 164.118 516.972 160.716 516.972 156.965C516.972 151.212 515.604 146.06 512.868 141.508C510.181 136.955 506.565 133.329 502.021 130.628C497.478 127.926 492.494 126.576 487.071 126.576H456.73C456.339 126.576 456.143 126.776 456.143 127.176L455.85 232.749C455.85 233.249 456.046 233.499 456.436 233.499ZM474.172 144.959H487.071C490.295 144.959 493.08 146.16 495.426 148.561C497.771 150.912 498.943 153.713 498.943 156.965C498.943 160.366 497.722 163.242 495.279 165.593C492.885 167.945 490.149 169.12 487.071 169.12H474.172V144.959ZM386.744 232.749L405.359 127.176C405.457 126.776 405.701 126.576 406.092 126.576H427.859C428.249 126.576 428.494 126.776 428.591 127.176L446.474 232.749C446.523 233.249 446.327 233.499 445.887 233.499H429.251C428.762 233.499 428.494 233.249 428.445 232.749L426.833 221.494H406.385L404.773 232.749C404.724 233.249 404.48 233.499 404.04 233.499H387.33C386.94 233.499 386.744 233.249 386.744 232.749ZM416.133 161.917L409.39 205.061H423.828L417.672 161.917L416.792 156.214L416.133 161.917ZM355.887 233.499H372.817C373.207 233.499 373.403 233.249 373.403 232.749L373.256 145.109H392.971C393.362 145.109 393.557 144.859 393.557 144.359V127.176C393.557 126.776 393.288 126.576 392.751 126.576H335.733C335.342 126.576 335.147 126.776 335.147 127.176L335 144.359C335 144.859 335.244 145.109 335.733 145.109H355.227V232.749C355.227 233.249 355.447 233.499 355.887 233.499Z" fill="white"/>
<defs>
<radialGradient id="paint0_radial_10258_406" cx="0" cy="0" r="1" gradientUnits="userSpaceOnUse" gradientTransform="translate(180 180.001) rotate(90) scale(180.001 180)">
<stop stop-color="#6F2CA4"/>
<stop offset="1" stop-color="#863CFF" stop-opacity="0"/>
</radialGradient>
<linearGradient id="paint1_linear_10258_406" x1="180" y1="94" x2="180" y2="268" gradientUnits="userSpaceOnUse">
<stop stop-color="#A93CFF"/>
<stop offset="1" stop-color="#863CFF"/>
</linearGradient>
</defs>
</svg>
