<svg width="358" height="174" viewBox="0 0 358 174" fill="none" xmlns="http://www.w3.org/2000/svg">
<path fill-rule="evenodd" clip-rule="evenodd" d="M0 0H332L358 26V174H26L0 148V0Z" fill="#EBEBDE"/>
<mask id="mask0_4049_13673" style="mask-type:alpha" maskUnits="userSpaceOnUse" x="2" y="2" width="354" height="170">
<path fill-rule="evenodd" clip-rule="evenodd" d="M2 2H331.177L356 26.8699V172H2L26.8233 172L2 147.13V2Z" fill="url(#paint0_linear_4049_13673)" fill-opacity="0.1"/>
</mask>
<g mask="url(#mask0_4049_13673)">
<g opacity="0.5">
<path d="M-25.1721 112.775L-25.1629 112.774C-22.3896 112.629 -19.981 110.746 -17.9099 108.197C-15.8472 105.658 -14.199 102.558 -12.9208 100.151L-12.9206 100.151L-12.8537 100.025C-12.0454 98.5033 -11.2814 96.9788 -10.5259 95.4714L-10.4785 95.3769L-10.4785 95.3768L-10.4657 95.3514C-8.29914 91.0271 -6.20003 86.8375 -3.42838 83.4409L-3.42814 83.4406C-0.792114 80.2153 3.13623 77.7017 7.50679 75.6883C11.8826 73.6725 16.7408 72.1407 21.2725 70.8991C21.7356 70.7715 22.4282 70.6249 23.2383 70.4534L23.2447 70.4521C25.139 70.0507 27.7524 69.4967 30.0521 68.6698C31.2015 68.2566 32.2526 67.782 33.0876 67.2364C33.5129 66.9586 33.8709 66.6695 34.1559 66.3699C28.4409 67.4139 2.79157 71.8657 -25.6313 73.0588L-25.6522 73.0597L-25.6732 73.0588C-54.0905 71.8648 -79.7325 67.4147 -85.447 66.3701C-85.1619 66.6699 -84.8036 66.959 -84.378 67.237C-83.543 67.7825 -82.4918 68.2571 -81.3424 68.6704C-79.0428 69.4972 -76.4296 70.0513 -74.5359 70.452L-74.6394 70.9412L-74.5359 70.452C-73.7222 70.6243 -73.0272 70.7723 -72.5626 70.9001C-72.5623 70.9002 -72.5621 70.9003 -72.5619 70.9003L-72.6946 71.3824C-63.6521 73.859 -53.3831 77.4758 -48.2498 83.758L-25.1721 112.775ZM-25.1721 112.775C-25.3188 112.786 -25.4684 112.786 -25.6386 112.786H-25.6443C-25.8176 112.786 -25.9713 112.786 -26.1223 112.776L-26.1278 112.776C-28.9011 112.63 -31.3094 110.747 -33.3803 108.198C-35.4428 105.659 -37.0907 102.559 -38.3689 100.152L-38.369 100.152L-38.4361 100.026C-38.4361 100.026 -38.4361 100.026 -38.4362 100.026C-39.2453 98.5035 -40.0091 96.9794 -40.7644 95.4724L-40.8123 95.3769L-40.8123 95.3768L-25.1721 112.775ZM-22.3168 -18.6492L-22.304 -18.6148L-22.2864 -18.5826C-21.6605 -17.4416 -21.2652 -15.7811 -20.999 -13.8483C-20.7342 -11.926 -20.604 -9.79323 -20.4786 -7.73252C-20.416 -6.70568 -20.3543 -5.69681 -20.2776 -4.74918L-20.2776 -4.74904C-19.5503 4.20276 -18.4096 14.0807 -16.2551 23.1141C-14.1032 32.137 -10.9272 40.3743 -6.09342 46C-3.09698 49.4902 1.35925 51.9026 6.53893 53.7946C11.7175 55.6862 17.6791 57.0777 23.7281 58.4896L23.741 58.4926L23.7412 58.4927C24.7082 58.7181 25.6806 58.9455 26.6517 59.1751L27.2667 59.3205V59.3175C29.2564 59.8028 30.967 60.2977 32.2784 60.9451C33.5004 61.5485 34.3134 62.253 34.7045 63.1497C21.8846 65.7377 -1.44366 68.3413 -25.6397 69.0474C-49.838 68.3413 -73.1693 65.7388 -85.9907 63.1507C-85.5996 62.2539 -84.7866 61.5492 -83.5646 60.9458C-82.2532 60.2982 -80.5426 59.8033 -78.5527 59.3184V59.3216L-77.9377 59.1762C-77.1606 58.9925 -76.3839 58.8109 -75.6083 58.6295C-75.4147 58.5842 -75.2212 58.539 -75.0278 58.4937C-75.0277 58.4937 -75.0276 58.4937 -75.0276 58.4937L-74.9987 58.4869C-68.9555 57.0758 -62.9998 55.685 -57.8256 53.7951C-52.6457 51.9032 -48.1892 49.4908 -45.1928 46C-40.359 40.3743 -37.183 32.1372 -35.0311 23.1145C-32.8767 14.0814 -31.736 4.20353 -31.0087 -4.7486L-31.0087 -4.74875C-30.9319 -5.69637 -30.8702 -6.70512 -30.8077 -7.73197C-30.6834 -9.77202 -30.5546 -11.8828 -30.2951 -13.7904C-30.0343 -15.7077 -29.648 -17.363 -29.0365 -18.5142L-29.0193 -18.5465L-29.007 -18.581C-28.3928 -20.3051 -27.076 -21.3945 -25.6499 -21.3945C-24.2416 -21.3945 -22.9421 -20.3344 -22.3168 -18.6492Z" stroke="#28282B"/>
<path d="M-25.1721 -21.3786L-25.1629 -21.378C-22.3896 -21.2325 -19.981 -19.3497 -17.9099 -16.8004C-15.8472 -14.2616 -14.199 -11.1617 -12.9208 -8.75485L-12.9206 -8.75452L-12.8537 -8.62863C-12.0454 -7.10686 -11.2814 -5.58232 -10.5259 -4.07496L-10.4785 -3.98038L-10.4785 -3.98032L-10.4657 -3.9549C-8.29914 0.369385 -6.20003 4.559 -3.42838 7.95563L-3.42814 7.95593C-0.792114 11.1812 3.13623 13.6948 7.50679 15.7082C11.8826 17.724 16.7408 19.2558 21.2725 20.4974C21.7356 20.625 22.4282 20.7716 23.2383 20.9431L23.2447 20.9444C25.139 21.3457 27.7524 21.8998 30.0521 22.7266C31.2015 23.1399 32.2526 23.6145 33.0876 24.16C33.5129 24.4379 33.8709 24.7269 34.1559 25.0266C28.4409 23.9826 2.79157 19.5308 -25.6313 18.3377L-25.6522 18.3368L-25.6732 18.3377C-54.0905 19.5317 -79.7325 23.9817 -85.447 25.0264C-85.1619 24.7266 -84.8036 24.4374 -84.378 24.1595C-83.543 23.614 -82.4918 23.1394 -81.3424 22.7261C-79.0428 21.8993 -76.4296 21.3452 -74.5359 20.9444L-74.6394 20.4553L-74.5359 20.9444C-73.7222 20.7722 -73.0272 20.6242 -72.5626 20.4963C-72.5623 20.4963 -72.5621 20.4962 -72.5619 20.4962L-72.6946 20.0141C-63.6521 17.5375 -53.3831 13.9206 -48.2498 7.63844L-25.1721 -21.3786ZM-25.1721 -21.3786C-25.3188 -21.389 -25.4684 -21.3893 -25.6386 -21.3893H-25.6443C-25.8176 -21.3893 -25.9713 -21.3891 -26.1223 -21.3794L-26.1278 -21.3792C-28.9011 -21.2336 -31.3094 -19.3505 -33.3803 -16.8011C-35.4428 -14.2622 -37.0907 -11.1623 -38.3689 -8.7559L-38.369 -8.7556L-38.4361 -8.62958C-38.4361 -8.62952 -38.4361 -8.62946 -38.4362 -8.62939C-39.2453 -7.10701 -40.0091 -5.58289 -40.7644 -4.0759L-40.8123 -3.98038L-40.8123 -3.98032L-25.1721 -21.3786ZM-22.3168 110.046L-22.304 110.011L-22.2864 109.979C-21.6605 108.838 -21.2652 107.178 -20.999 105.245C-20.7342 103.322 -20.604 101.19 -20.4786 99.129C-20.416 98.1022 -20.3543 97.0933 -20.2776 96.1457L-20.2776 96.1455C-19.5503 87.1937 -18.4096 77.3158 -16.2551 68.2824C-14.1032 59.2595 -10.9272 51.0222 -6.09342 45.3965C-3.09698 41.9062 1.35925 39.4938 6.53893 37.6019C11.7175 35.7103 17.6791 34.3188 23.7281 32.9069L23.741 32.9039L23.7412 32.9038C24.7082 32.6784 25.6806 32.451 26.6517 32.2214L27.2667 32.076V32.079C29.2564 31.5937 30.967 31.0988 32.2784 30.4514C33.5004 29.848 34.3134 29.1435 34.7045 28.2468C21.8846 25.6587 -1.44366 23.0552 -25.6397 22.3491C-49.838 23.0552 -73.1693 25.6577 -85.9907 28.2458C-85.5996 29.1426 -84.7866 29.8473 -83.5646 30.4507C-82.2532 31.0982 -80.5426 31.5932 -78.5527 32.078V32.0749L-77.9377 32.2203C-77.1606 32.404 -76.3839 32.5856 -75.6083 32.767C-75.4147 32.8123 -75.2212 32.8575 -75.0278 32.9028C-75.0277 32.9028 -75.0276 32.9028 -75.0276 32.9028L-74.9987 32.9096C-68.9555 34.3207 -62.9998 35.7115 -57.8256 37.6013C-52.6457 39.4933 -48.1892 41.9057 -45.1928 45.3965C-40.359 51.0222 -37.183 59.2592 -35.0311 68.2819C-32.8767 77.3151 -31.736 87.193 -31.0087 96.1451L-31.0087 96.1452C-30.9319 97.0929 -30.8702 98.1016 -30.8077 99.1285C-30.6834 101.169 -30.5546 103.279 -30.2951 105.187C-30.0343 107.104 -29.648 108.759 -29.0365 109.911L-29.0193 109.943L-29.007 109.977C-28.3928 111.702 -27.076 112.791 -25.6499 112.791C-24.2416 112.791 -22.9421 111.731 -22.3168 110.046Z" stroke="#28282B"/>
<path d="M99.0823 112.775L99.0915 112.774C101.865 112.629 104.273 110.746 106.345 108.197C108.407 105.658 110.055 102.558 111.334 100.151L111.334 100.151L111.401 100.025C112.209 98.5033 112.973 96.9788 113.729 95.4714L113.776 95.3769L113.776 95.3768L113.789 95.3514C115.955 91.0271 118.054 86.8375 120.826 83.4409L120.826 83.4406C123.462 80.2153 127.391 77.7017 131.761 75.6883C136.137 73.6725 140.995 72.1407 145.527 70.8991C145.99 70.7715 146.683 70.6249 147.493 70.4534L147.499 70.4521C149.393 70.0507 152.007 69.4967 154.306 68.6698C155.456 68.2566 156.507 67.782 157.342 67.2364C157.767 66.9586 158.125 66.6695 158.41 66.3699C152.695 67.4139 127.046 71.8657 98.6231 73.0588L98.6022 73.0597L98.5812 73.0588C70.1639 71.8648 44.5219 67.4147 38.8074 66.3701C39.0925 66.6699 39.4508 66.959 39.8764 67.237C40.7114 67.7825 41.7626 68.2571 42.912 68.6704C45.2116 69.4972 47.8248 70.0513 49.7185 70.452L49.615 70.9412L49.7185 70.452C50.5322 70.6243 51.2272 70.7723 51.6918 70.9001C51.692 70.9002 51.6923 70.9003 51.6925 70.9003L51.5598 71.3824C60.6023 73.859 70.8713 77.4758 76.0046 83.758L99.0823 112.775ZM99.0823 112.775C98.9356 112.786 98.786 112.786 98.6158 112.786H98.6101C98.4368 112.786 98.2831 112.786 98.1321 112.776L98.1266 112.776C95.3533 112.63 92.945 110.747 90.8741 108.198C88.8116 105.659 87.1637 102.559 85.8855 100.152L85.8854 100.152L85.8183 100.026C85.8183 100.026 85.8183 100.026 85.8182 100.026C85.0091 98.5035 84.2453 96.9794 83.49 95.4724L83.4421 95.3769L83.4421 95.3768L99.0823 112.775ZM101.938 -18.6492L101.95 -18.6148L101.968 -18.5826C102.594 -17.4416 102.989 -15.7811 103.255 -13.8483C103.52 -11.926 103.65 -9.79323 103.776 -7.73252C103.838 -6.70568 103.9 -5.69681 103.977 -4.74918L103.977 -4.74904C104.704 4.20276 105.845 14.0807 107.999 23.1141C110.151 32.137 113.327 40.3743 118.161 46C121.157 49.4902 125.614 51.9026 130.793 53.7946C135.972 55.6862 141.934 57.0777 147.982 58.4896L147.995 58.4926L147.996 58.4927C148.963 58.7181 149.935 58.9455 150.906 59.1751L151.521 59.3205V59.3175C153.511 59.8028 155.221 60.2977 156.533 60.9451C157.755 61.5485 158.568 62.253 158.959 63.1497C146.139 65.7377 122.811 68.3413 98.6147 69.0474C74.4164 68.3413 51.0851 65.7388 38.2637 63.1507C38.6548 62.2539 39.4678 61.5492 40.6898 60.9458C42.0012 60.2982 43.7118 59.8033 45.7017 59.3184V59.3216L46.3167 59.1762C47.0938 58.9925 47.8705 58.8109 48.6461 58.6295C48.8397 58.5842 49.0332 58.539 49.2266 58.4937C49.2267 58.4937 49.2268 58.4937 49.2268 58.4937L49.2557 58.4869C55.2989 57.0758 61.2546 55.685 66.4288 53.7951C71.6087 51.9032 76.0651 49.4908 79.0616 46C83.8953 40.3743 87.0713 32.1372 89.2233 23.1145C91.3777 14.0814 92.5184 4.20353 93.2457 -4.7486L93.2457 -4.74875C93.3225 -5.69637 93.3842 -6.70512 93.4467 -7.73197C93.571 -9.77202 93.6998 -11.8828 93.9593 -13.7904C94.2201 -15.7077 94.6064 -17.363 95.2179 -18.5142L95.2351 -18.5465L95.2474 -18.581C95.8616 -20.3051 97.1784 -21.3945 98.6044 -21.3945C100.013 -21.3945 101.312 -20.3344 101.938 -18.6492Z" stroke="#28282B"/>
<path d="M99.0823 -21.3786L99.0915 -21.378C101.865 -21.2325 104.273 -19.3497 106.345 -16.8004C108.407 -14.2616 110.055 -11.1617 111.334 -8.75485L111.334 -8.75452L111.401 -8.62863C112.209 -7.10686 112.973 -5.58232 113.729 -4.07496L113.776 -3.98038L113.776 -3.98032L113.789 -3.9549C115.955 0.369385 118.054 4.559 120.826 7.95563L120.826 7.95593C123.462 11.1812 127.391 13.6948 131.761 15.7082C136.137 17.724 140.995 19.2558 145.527 20.4974C145.99 20.625 146.683 20.7716 147.493 20.9431L147.499 20.9444C149.393 21.3457 152.007 21.8998 154.306 22.7266C155.456 23.1399 156.507 23.6145 157.342 24.16C157.767 24.4379 158.125 24.7269 158.41 25.0266C152.695 23.9826 127.046 19.5308 98.6231 18.3377L98.6022 18.3368L98.5812 18.3377C70.1639 19.5317 44.5219 23.9817 38.8074 25.0264C39.0925 24.7266 39.4508 24.4374 39.8764 24.1595C40.7114 23.614 41.7626 23.1394 42.912 22.7261C45.2116 21.8993 47.8248 21.3452 49.7185 20.9444L49.615 20.4553L49.7185 20.9444C50.5322 20.7722 51.2272 20.6242 51.6918 20.4963C51.692 20.4963 51.6923 20.4962 51.6925 20.4962L51.5598 20.0141C60.6023 17.5375 70.8713 13.9206 76.0046 7.63844L99.0823 -21.3786ZM99.0823 -21.3786C98.9356 -21.389 98.786 -21.3893 98.6158 -21.3893H98.6101C98.4368 -21.3893 98.2831 -21.3891 98.1321 -21.3794L98.1266 -21.3792C95.3533 -21.2336 92.945 -19.3505 90.8741 -16.8011C88.8116 -14.2622 87.1637 -11.1623 85.8855 -8.7559L85.8854 -8.7556L85.8183 -8.62958C85.8183 -8.62952 85.8183 -8.62946 85.8182 -8.62939C85.0091 -7.10701 84.2453 -5.58289 83.49 -4.0759L83.4421 -3.98038L83.4421 -3.98032L99.0823 -21.3786ZM101.938 110.046L101.95 110.011L101.968 109.979C102.594 108.838 102.989 107.178 103.255 105.245C103.52 103.322 103.65 101.19 103.776 99.129C103.838 98.1022 103.9 97.0933 103.977 96.1457L103.977 96.1455C104.704 87.1937 105.845 77.3158 107.999 68.2824C110.151 59.2595 113.327 51.0222 118.161 45.3965C121.157 41.9062 125.614 39.4938 130.793 37.6019C135.972 35.7103 141.934 34.3188 147.982 32.9069L147.995 32.9039L147.996 32.9038C148.963 32.6784 149.935 32.451 150.906 32.2214L151.521 32.076V32.079C153.511 31.5937 155.221 31.0988 156.533 30.4514C157.755 29.848 158.568 29.1435 158.959 28.2468C146.139 25.6587 122.811 23.0552 98.6147 22.3491C74.4164 23.0552 51.0851 25.6577 38.2637 28.2458C38.6548 29.1426 39.4678 29.8473 40.6898 30.4507C42.0012 31.0982 43.7118 31.5932 45.7017 32.078V32.0749L46.3167 32.2203C47.0938 32.404 47.8705 32.5856 48.6461 32.767C48.8397 32.8123 49.0332 32.8575 49.2266 32.9028C49.2267 32.9028 49.2268 32.9028 49.2268 32.9028L49.2557 32.9096C55.2989 34.3207 61.2546 35.7115 66.4288 37.6013C71.6087 39.4933 76.0651 41.9057 79.0616 45.3965C83.8953 51.0222 87.0713 59.2592 89.2233 68.2819C91.3777 77.3151 92.5184 87.193 93.2457 96.1451L93.2457 96.1452C93.3225 97.0929 93.3842 98.1016 93.4467 99.1285C93.571 101.169 93.6998 103.279 93.9593 105.187C94.2201 107.104 94.6064 108.759 95.2179 109.911L95.2351 109.943L95.2474 109.977C95.8616 111.702 97.1784 112.791 98.6044 112.791C100.013 112.791 101.312 111.731 101.938 110.046Z" stroke="#28282B"/>
<path d="M223.352 112.775L223.361 112.774C226.134 112.629 228.543 110.746 230.614 108.197C232.677 105.658 234.325 102.558 235.603 100.151L235.603 100.151L235.67 100.025C236.479 98.5033 237.243 96.9788 237.998 95.4714L238.045 95.3769L238.045 95.3768L238.058 95.3514C240.225 91.0271 242.324 86.8375 245.096 83.4409L245.096 83.4406C247.732 80.2153 251.66 77.7017 256.031 75.6883C260.407 73.6725 265.265 72.1407 269.796 70.8991C270.26 70.7715 270.952 70.6249 271.762 70.4534L271.769 70.4521C273.663 70.0507 276.276 69.4967 278.576 68.6698C279.725 68.2566 280.777 67.782 281.612 67.2364C282.037 66.9586 282.395 66.6695 282.68 66.3699C276.965 67.4139 251.315 71.8657 222.893 73.0588L222.872 73.0597L222.851 73.0588C194.433 71.8648 168.791 67.4147 163.077 66.3701C163.362 66.6699 163.72 66.959 164.146 67.237C164.981 67.7825 166.032 68.2571 167.182 68.6704C169.481 69.4972 172.094 70.0513 173.988 70.452L173.885 70.9412L173.988 70.452C174.802 70.6243 175.497 70.7723 175.961 70.9001C175.962 70.9002 175.962 70.9003 175.962 70.9003L175.829 71.3824C184.872 73.859 195.141 77.4758 200.274 83.758L223.352 112.775ZM223.352 112.775C223.205 112.786 223.056 112.786 222.885 112.786H222.88C222.706 112.786 222.553 112.786 222.402 112.776L222.396 112.776C219.623 112.63 217.215 110.747 215.144 108.198C213.081 105.659 211.433 102.559 210.155 100.152L210.155 100.152L210.088 100.026C210.088 100.026 210.088 100.026 210.088 100.026C209.279 98.5035 208.515 96.9794 207.76 95.4724L207.712 95.3769L207.712 95.3768L223.352 112.775ZM226.207 -18.6492L226.22 -18.6148L226.238 -18.5826C226.863 -17.4416 227.259 -15.7811 227.525 -13.8483C227.79 -11.926 227.92 -9.79323 228.045 -7.73252C228.108 -6.70568 228.17 -5.69681 228.246 -4.74918L228.246 -4.74904C228.974 4.20276 230.114 14.0807 232.269 23.1141C234.421 32.137 237.597 40.3743 242.431 46C245.427 49.4902 249.883 51.9026 255.063 53.7946C260.241 55.6862 266.203 57.0777 272.252 58.4896L272.265 58.4926L272.265 58.4927C273.232 58.7181 274.204 58.9455 275.176 59.1751L275.791 59.3205V59.3175C277.78 59.8028 279.491 60.2977 280.802 60.9451C282.024 61.5485 282.837 62.253 283.228 63.1497C270.409 65.7377 247.08 68.3413 222.884 69.0474C198.686 68.3413 175.355 65.7388 162.533 63.1507C162.924 62.2539 163.737 61.5492 164.959 60.9458C166.271 60.2982 167.981 59.8033 169.971 59.3184V59.3216L170.586 59.1762C171.363 58.9925 172.14 58.8109 172.916 58.6295C173.109 58.5842 173.303 58.539 173.496 58.4937C173.496 58.4937 173.496 58.4937 173.496 58.4937L173.525 58.4869C179.568 57.0758 185.524 55.685 190.698 53.7951C195.878 51.9032 200.335 49.4908 203.331 46C208.165 40.3743 211.341 32.1372 213.493 23.1145C215.647 14.0814 216.788 4.20353 217.515 -4.7486L217.515 -4.74875C217.592 -5.69637 217.654 -6.70512 217.716 -7.73197C217.841 -9.77202 217.969 -11.8828 218.229 -13.7904C218.49 -15.7077 218.876 -17.363 219.487 -18.5142L219.505 -18.5465L219.517 -18.581C220.131 -20.3051 221.448 -21.3945 222.874 -21.3945C224.282 -21.3945 225.582 -20.3344 226.207 -18.6492Z" stroke="#28282B"/>
<path d="M223.352 -21.3786L223.361 -21.378C226.134 -21.2325 228.543 -19.3497 230.614 -16.8004C232.677 -14.2616 234.325 -11.1617 235.603 -8.75485L235.603 -8.75452L235.67 -8.62863C236.479 -7.10686 237.243 -5.58232 237.998 -4.07496L238.045 -3.98038L238.045 -3.98032L238.058 -3.9549C240.225 0.369385 242.324 4.559 245.096 7.95563L245.096 7.95593C247.732 11.1812 251.66 13.6948 256.031 15.7082C260.407 17.724 265.265 19.2558 269.796 20.4974C270.26 20.625 270.952 20.7716 271.762 20.9431L271.769 20.9444C273.663 21.3457 276.276 21.8998 278.576 22.7266C279.725 23.1399 280.777 23.6145 281.612 24.16C282.037 24.4379 282.395 24.7269 282.68 25.0266C276.965 23.9826 251.315 19.5308 222.893 18.3377L222.872 18.3368L222.851 18.3377C194.433 19.5317 168.791 23.9817 163.077 25.0264C163.362 24.7266 163.72 24.4374 164.146 24.1595C164.981 23.614 166.032 23.1394 167.182 22.7261C169.481 21.8993 172.094 21.3452 173.988 20.9444L173.885 20.4553L173.988 20.9444C174.802 20.7722 175.497 20.6242 175.961 20.4963C175.962 20.4963 175.962 20.4962 175.962 20.4962L175.829 20.0141C184.872 17.5375 195.141 13.9206 200.274 7.63844L223.352 -21.3786ZM223.352 -21.3786C223.205 -21.389 223.056 -21.3893 222.885 -21.3893H222.88C222.706 -21.3893 222.553 -21.3891 222.402 -21.3794L222.396 -21.3792C219.623 -21.2336 217.215 -19.3505 215.144 -16.8011C213.081 -14.2622 211.433 -11.1623 210.155 -8.7559L210.155 -8.7556L210.088 -8.62958C210.088 -8.62952 210.088 -8.62946 210.088 -8.62939C209.279 -7.10701 208.515 -5.58289 207.76 -4.0759L207.712 -3.98038L207.712 -3.98032L223.352 -21.3786ZM226.207 110.046L226.22 110.011L226.238 109.979C226.863 108.838 227.259 107.178 227.525 105.245C227.79 103.322 227.92 101.19 228.045 99.129C228.108 98.1022 228.17 97.0933 228.246 96.1457L228.246 96.1455C228.974 87.1937 230.114 77.3158 232.269 68.2824C234.421 59.2595 237.597 51.0222 242.431 45.3965C245.427 41.9062 249.883 39.4938 255.063 37.6019C260.241 35.7103 266.203 34.3188 272.252 32.9069L272.265 32.9039L272.265 32.9038C273.232 32.6784 274.204 32.451 275.176 32.2214L275.791 32.076V32.079C277.78 31.5937 279.491 31.0988 280.802 30.4514C282.024 29.848 282.837 29.1435 283.228 28.2468C270.409 25.6587 247.08 23.0552 222.884 22.3491C198.686 23.0552 175.355 25.6577 162.533 28.2458C162.924 29.1426 163.737 29.8473 164.959 30.4507C166.271 31.0982 167.981 31.5932 169.971 32.078V32.0749L170.586 32.2203C171.363 32.404 172.14 32.5856 172.916 32.767C173.109 32.8123 173.303 32.8575 173.496 32.9028C173.496 32.9028 173.496 32.9028 173.496 32.9028L173.525 32.9096C179.568 34.3207 185.524 35.7115 190.698 37.6013C195.878 39.4933 200.335 41.9057 203.331 45.3965C208.165 51.0222 211.341 59.2592 213.493 68.2819C215.647 77.3151 216.788 87.193 217.515 96.1451L217.515 96.1452C217.592 97.0929 217.654 98.1016 217.716 99.1285C217.841 101.169 217.969 103.279 218.229 105.187C218.49 107.104 218.876 108.759 219.487 109.911L219.505 109.943L219.517 109.977C220.131 111.702 221.448 112.791 222.874 112.791C224.282 112.791 225.582 111.731 226.207 110.046Z" stroke="#28282B"/>
<path d="M347.558 112.775L347.567 112.774C350.34 112.629 352.749 110.746 354.82 108.197C356.883 105.658 358.531 102.558 359.809 100.151L359.809 100.151L359.876 100.025C360.685 98.5033 361.449 96.9788 362.204 95.4714L362.251 95.3769L362.252 95.3768L362.264 95.3514C364.431 91.0271 366.53 86.8375 369.302 83.4409L369.302 83.4406C371.938 80.2153 375.866 77.7017 380.237 75.6883C384.613 73.6725 389.471 72.1407 394.003 70.8991C394.466 70.7715 395.158 70.6249 395.968 70.4534L395.975 70.4521C397.869 70.0507 400.482 69.4967 402.782 68.6698C403.931 68.2566 404.983 67.782 405.818 67.2364C406.243 66.9586 406.601 66.6695 406.886 66.3699C401.171 67.4139 375.522 71.8657 347.099 73.0588L347.078 73.0597L347.057 73.0588C318.64 71.8648 292.997 67.4147 287.283 66.3701C287.568 66.6699 287.926 66.959 288.352 67.237C289.187 67.7825 290.238 68.2571 291.388 68.6704C293.687 69.4972 296.3 70.0513 298.194 70.452L298.091 70.9412L298.194 70.452C299.008 70.6243 299.703 70.7723 300.167 70.9001C300.168 70.9002 300.168 70.9003 300.168 70.9003L300.035 71.3824C309.078 73.859 319.347 77.4758 324.48 83.758L347.558 112.775ZM347.558 112.775C347.411 112.786 347.262 112.786 347.091 112.786H347.086C346.912 112.786 346.759 112.786 346.608 112.776L346.602 112.776C343.829 112.63 341.421 110.747 339.35 108.198C337.287 105.659 335.639 102.559 334.361 100.152L334.361 100.152L334.294 100.026C334.294 100.026 334.294 100.026 334.294 100.026C333.485 98.5035 332.721 96.9794 331.966 95.4724L331.918 95.3769L331.918 95.3768L347.558 112.775ZM350.413 -18.6492L350.426 -18.6148L350.444 -18.5826C351.069 -17.4416 351.465 -15.7811 351.731 -13.8483C351.996 -11.926 352.126 -9.79323 352.251 -7.73252C352.314 -6.70568 352.376 -5.69681 352.452 -4.74918L352.452 -4.74904C353.18 4.20276 354.32 14.0807 356.475 23.1141C358.627 32.137 361.803 40.3743 366.637 46C369.633 49.4902 374.089 51.9026 379.269 53.7946C384.448 55.6862 390.409 57.0777 396.458 58.4896L396.471 58.4926L396.471 58.4927C397.438 58.7181 398.411 58.9455 399.382 59.1751L399.997 59.3205V59.3175C401.986 59.8028 403.697 60.2977 405.008 60.9451C406.23 61.5485 407.043 62.253 407.434 63.1497C394.615 65.7377 371.286 68.3413 347.09 69.0474C322.892 68.3413 299.561 65.7388 286.739 63.1507C287.13 62.2539 287.943 61.5492 289.165 60.9458C290.477 60.2982 292.187 59.8033 294.177 59.3184V59.3216L294.792 59.1762C295.569 58.9925 296.346 58.8109 297.122 58.6295C297.315 58.5842 297.509 58.539 297.702 58.4937C297.702 58.4937 297.702 58.4937 297.702 58.4937L297.731 58.4869C303.774 57.0758 309.73 55.685 314.904 53.7951C320.084 51.9032 324.541 49.4908 327.537 46C332.371 40.3743 335.547 32.1372 337.699 23.1145C339.853 14.0814 340.994 4.20353 341.721 -4.7486L341.721 -4.74875C341.798 -5.69637 341.86 -6.70512 341.922 -7.73197C342.047 -9.77202 342.175 -11.8828 342.435 -13.7904C342.696 -15.7077 343.082 -17.363 343.694 -18.5142L343.711 -18.5465L343.723 -18.581C344.337 -20.3051 345.654 -21.3945 347.08 -21.3945C348.488 -21.3945 349.788 -20.3344 350.413 -18.6492Z" stroke="#28282B"/>
<path d="M347.558 -21.3786L347.567 -21.378C350.34 -21.2325 352.749 -19.3497 354.82 -16.8004C356.883 -14.2616 358.531 -11.1617 359.809 -8.75485L359.809 -8.75452L359.876 -8.62863C360.685 -7.10686 361.449 -5.58232 362.204 -4.07496L362.251 -3.98038L362.252 -3.98032L362.264 -3.9549C364.431 0.369385 366.53 4.559 369.302 7.95563L369.302 7.95593C371.938 11.1812 375.866 13.6948 380.237 15.7082C384.613 17.724 389.471 19.2558 394.003 20.4974C394.466 20.625 395.158 20.7716 395.968 20.9431L395.975 20.9444C397.869 21.3457 400.482 21.8998 402.782 22.7266C403.931 23.1399 404.983 23.6145 405.818 24.16C406.243 24.4379 406.601 24.7269 406.886 25.0266C401.171 23.9826 375.522 19.5308 347.099 18.3377L347.078 18.3368L347.057 18.3377C318.64 19.5317 292.997 23.9817 287.283 25.0264C287.568 24.7266 287.926 24.4374 288.352 24.1595C289.187 23.614 290.238 23.1394 291.388 22.7261C293.687 21.8993 296.3 21.3452 298.194 20.9444L298.091 20.4553L298.194 20.9444C299.008 20.7722 299.703 20.6242 300.167 20.4963C300.168 20.4963 300.168 20.4962 300.168 20.4962L300.035 20.0141C309.078 17.5375 319.347 13.9206 324.48 7.63844L347.558 -21.3786ZM347.558 -21.3786C347.411 -21.389 347.262 -21.3893 347.091 -21.3893H347.086C346.912 -21.3893 346.759 -21.3891 346.608 -21.3794L346.602 -21.3792C343.829 -21.2336 341.421 -19.3505 339.35 -16.8011C337.287 -14.2622 335.639 -11.1623 334.361 -8.7559L334.361 -8.7556L334.294 -8.62958C334.294 -8.62952 334.294 -8.62946 334.294 -8.62939C333.485 -7.10701 332.721 -5.58289 331.966 -4.0759L331.918 -3.98038L331.918 -3.98032L347.558 -21.3786ZM350.413 110.046L350.426 110.011L350.444 109.979C351.069 108.838 351.465 107.178 351.731 105.245C351.996 103.322 352.126 101.19 352.251 99.129C352.314 98.1022 352.376 97.0933 352.452 96.1457L352.452 96.1455C353.18 87.1937 354.32 77.3158 356.475 68.2824C358.627 59.2595 361.803 51.0222 366.637 45.3965C369.633 41.9062 374.089 39.4938 379.269 37.6019C384.448 35.7103 390.409 34.3188 396.458 32.9069L396.471 32.9039L396.471 32.9038C397.438 32.6784 398.411 32.451 399.382 32.2214L399.997 32.076V32.079C401.986 31.5937 403.697 31.0988 405.008 30.4514C406.23 29.848 407.043 29.1435 407.434 28.2468C394.615 25.6587 371.286 23.0552 347.09 22.3491C322.892 23.0552 299.561 25.6577 286.739 28.2458C287.13 29.1426 287.943 29.8473 289.165 30.4507C290.477 31.0982 292.187 31.5932 294.177 32.078V32.0749L294.792 32.2203C295.569 32.404 296.346 32.5856 297.122 32.767C297.315 32.8123 297.509 32.8575 297.702 32.9028C297.702 32.9028 297.702 32.9028 297.702 32.9028L297.731 32.9096C303.774 34.3207 309.73 35.7115 314.904 37.6013C320.084 39.4933 324.541 41.9057 327.537 45.3965C332.371 51.0222 335.547 59.2592 337.699 68.2819C339.853 77.3151 340.994 87.193 341.721 96.1451L341.721 96.1452C341.798 97.0929 341.86 98.1016 341.922 99.1285C342.047 101.169 342.175 103.279 342.435 105.187C342.696 107.104 343.082 108.759 343.694 109.911L343.711 109.943L343.723 109.977C344.337 111.702 345.654 112.791 347.08 112.791C348.488 112.791 349.788 111.731 350.413 110.046Z" stroke="#28282B"/>
<path d="M36.9886 205.953L36.9977 205.952C39.771 205.807 42.1796 203.924 44.2508 201.375C46.3135 198.836 47.9617 195.736 49.2398 193.329L49.24 193.329L49.307 193.203C50.1152 191.681 50.8793 190.157 51.6348 188.649L51.6822 188.555L51.6822 188.555L51.6949 188.529C53.8615 184.205 55.9606 180.015 58.7323 176.619L58.7325 176.618C61.3685 173.393 65.2969 170.879 69.6674 168.866C74.0432 166.85 78.9015 165.318 83.4332 164.077C83.8962 163.949 84.5888 163.803 85.3989 163.631L85.4053 163.63C87.2997 163.228 89.9131 162.674 92.2127 161.848C93.3622 161.434 94.4133 160.96 95.2482 160.414C95.6735 160.136 96.0316 159.847 96.3166 159.548C90.6015 160.592 64.9522 165.043 36.5294 166.237L36.5084 166.237L36.4874 166.237C8.07017 165.042 -17.5718 160.592 -23.2863 159.548C-23.0012 159.848 -22.6429 160.137 -22.2174 160.415C-21.3823 160.96 -20.3312 161.435 -19.1818 161.848C-16.8821 162.675 -14.2689 163.229 -12.3752 163.63L-12.4788 164.119L-12.3752 163.63C-11.5615 163.802 -10.8665 163.95 -10.4019 164.078C-10.4017 164.078 -10.4015 164.078 -10.4013 164.078L-10.534 164.56C-1.49143 167.037 8.7775 170.654 13.9108 176.936L36.9886 205.953ZM36.9886 205.953C36.8419 205.963 36.6922 205.963 36.5221 205.963H36.5164C36.343 205.963 36.1894 205.963 36.0383 205.954L36.0328 205.953C33.2595 205.808 30.8512 203.925 28.7803 201.375C26.7179 198.836 25.07 195.737 23.7918 193.33L23.7916 193.33L23.7246 193.204C23.7245 193.204 23.7245 193.204 23.7245 193.204C22.9154 191.681 22.1515 190.157 21.3962 188.65L21.3483 188.555L21.3483 188.555L36.9886 205.953ZM39.8438 74.5286L39.8566 74.5629L39.8742 74.5951C40.5001 75.7361 40.8954 77.3966 41.1617 79.3294C41.4264 81.2518 41.5566 83.3845 41.6821 85.4452C41.7446 86.4721 41.8063 87.4809 41.8831 88.4286L41.8831 88.4287C42.6104 97.3805 43.7511 107.258 45.9055 116.292C48.0574 125.315 51.2335 133.552 56.0672 139.178C59.0637 142.668 63.5199 145.08 68.6996 146.972C73.8782 148.864 79.8398 150.255 85.8887 151.667L85.9017 151.67L85.9018 151.67C86.8689 151.896 87.8412 152.123 88.8123 152.353L89.4273 152.498V152.495C91.4171 152.981 93.1276 153.475 94.439 154.123C95.6611 154.726 96.4741 155.431 96.8651 156.327C84.0453 158.915 60.717 161.519 36.5209 162.225C12.3226 161.519 -11.0086 158.917 -23.83 156.328C-23.4389 155.432 -22.626 154.727 -21.404 154.124C-20.0926 153.476 -18.382 152.981 -16.3921 152.496V152.499L-15.777 152.354C-15 152.17 -14.2233 151.989 -13.4477 151.807C-13.2541 151.762 -13.0606 151.717 -12.8671 151.671C-12.8671 151.671 -12.867 151.671 -12.8669 151.671L-12.838 151.665C-6.79486 150.253 -0.839115 148.863 4.33506 146.973C9.51492 145.081 13.9714 142.669 16.9678 139.178C21.8016 133.552 24.9776 125.315 27.1295 116.292C29.284 107.259 30.4247 97.3813 31.152 88.4291L31.152 88.429C31.2287 87.4814 31.2905 86.4726 31.353 85.4458C31.4773 83.4057 31.6061 81.2949 31.8656 79.3873C32.1263 77.47 32.5126 75.8148 33.1242 74.6635L33.1413 74.6312L33.1536 74.5968C33.7679 72.8727 35.0847 71.7832 36.5107 71.7832C37.919 71.7832 39.2185 72.8433 39.8438 74.5286Z" stroke="#28282B"/>
<path d="M36.9886 71.8069L36.9977 71.8076C39.771 71.9531 42.1796 73.8359 44.2508 76.3851C46.3135 78.924 47.9617 82.0238 49.2398 84.4307L49.24 84.431L49.307 84.5569C50.1152 86.0787 50.8793 87.6032 51.6348 89.1106L51.6822 89.2052L51.6822 89.2052L51.6949 89.2306C53.8615 93.5549 55.9606 97.7445 58.7323 101.141L58.7325 101.141C61.3685 104.367 65.2969 106.88 69.6674 108.894C74.0432 110.91 78.9015 112.441 83.4332 113.683C83.8962 113.811 84.5888 113.957 85.3989 114.129L85.4053 114.13C87.2997 114.531 89.9131 115.085 92.2127 115.912C93.3622 116.325 94.4133 116.8 95.2482 117.346C95.6735 117.623 96.0316 117.912 96.3166 118.212C90.6015 117.168 64.9522 112.716 36.5294 111.523L36.5084 111.522L36.4874 111.523C8.07017 112.717 -17.5718 117.167 -23.2863 118.212C-23.0012 117.912 -22.6429 117.623 -22.2174 117.345C-21.3823 116.8 -20.3312 116.325 -19.1818 115.912C-16.8821 115.085 -14.2689 114.531 -12.3752 114.13L-12.4788 113.641L-12.3752 114.13C-11.5615 113.958 -10.8665 113.81 -10.4019 113.682C-10.4017 113.682 -10.4015 113.682 -10.4013 113.682L-10.534 113.2C-1.49143 110.723 8.7775 107.106 13.9108 100.824L36.9886 71.8069ZM36.9886 71.8069C36.8419 71.7965 36.6922 71.7963 36.5221 71.7963H36.5164C36.343 71.7963 36.1894 71.7965 36.0383 71.8061L36.0328 71.8064C33.2595 71.952 30.8512 73.835 28.7803 76.3844C26.7179 78.9234 25.07 82.0232 23.7918 84.4296L23.7916 84.4299L23.7246 84.556C23.7245 84.556 23.7245 84.5561 23.7245 84.5562C22.9154 86.0785 22.1515 87.6027 21.3962 89.1096L21.3483 89.2052L21.3483 89.2052L36.9886 71.8069ZM39.8438 203.231L39.8566 203.197L39.8742 203.165C40.5001 202.024 40.8954 200.363 41.1617 198.43C41.4264 196.508 41.5566 194.375 41.6821 192.315C41.7446 191.288 41.8063 190.279 41.8831 189.331L41.8831 189.331C42.6104 180.379 43.7511 170.501 45.9055 161.468C48.0574 152.445 51.2335 144.208 56.0672 138.582C59.0637 135.092 63.5199 132.679 68.6996 130.787C73.8782 128.896 79.8398 127.504 85.8887 126.092L85.9017 126.089L85.9018 126.089C86.8689 125.864 87.8412 125.636 88.8123 125.407L89.4273 125.261V125.265C91.4171 124.779 93.1276 124.284 94.439 123.637C95.6611 123.034 96.4741 122.329 96.8651 121.432C84.0453 118.844 60.717 116.241 36.5209 115.535C12.3226 116.241 -11.0086 118.843 -23.83 121.431C-23.4389 122.328 -22.626 123.033 -21.404 123.636C-20.0926 124.284 -18.382 124.779 -16.3921 125.264V125.26L-15.777 125.406C-15 125.59 -14.2233 125.771 -13.4477 125.953C-13.2541 125.998 -13.0606 126.043 -12.8671 126.088C-12.8671 126.088 -12.867 126.088 -12.8669 126.088L-12.838 126.095C-6.79486 127.506 -0.839115 128.897 4.33506 130.787C9.51492 132.679 13.9714 135.091 16.9678 138.582C21.8016 144.208 24.9776 152.445 27.1295 161.467C29.284 170.501 30.4247 180.379 31.152 189.331L31.152 189.331C31.2287 190.278 31.2905 191.287 31.353 192.314C31.4773 194.354 31.6061 196.465 31.8656 198.372C32.1263 200.29 32.5126 201.945 33.1242 203.096L33.1413 203.129L33.1536 203.163C33.7679 204.887 35.0847 205.977 36.5107 205.977C37.919 205.977 39.2185 204.916 39.8438 203.231Z" stroke="#28282B"/>
<path d="M161.187 205.953L161.196 205.952C163.969 205.807 166.378 203.924 168.449 201.375C170.512 198.836 172.16 195.736 173.438 193.329L173.438 193.329L173.505 193.203C174.313 191.681 175.078 190.157 175.833 188.649L175.88 188.555L175.88 188.555L175.893 188.529C178.06 184.205 180.159 180.015 182.931 176.619L182.931 176.618C185.567 173.393 189.495 170.879 193.866 168.866C198.241 166.85 203.1 165.318 207.631 164.077C208.094 163.949 208.787 163.803 209.597 163.631L209.604 163.63C211.498 163.228 214.111 162.674 216.411 161.848C217.56 161.434 218.612 160.96 219.446 160.414C219.872 160.136 220.23 159.847 220.515 159.548C214.8 160.592 189.15 165.043 160.728 166.237L160.707 166.237L160.686 166.237C132.268 165.042 106.626 160.592 100.912 159.548C101.197 159.848 101.555 160.137 101.981 160.415C102.816 160.96 103.867 161.435 105.016 161.848C107.316 162.675 109.929 163.229 111.823 163.63L111.719 164.119L111.823 163.63C112.637 163.802 113.332 163.95 113.796 164.078C113.797 164.078 113.797 164.078 113.797 164.078L113.664 164.56C122.707 167.037 132.976 170.654 138.109 176.936L161.187 205.953ZM161.187 205.953C161.04 205.963 160.89 205.963 160.72 205.963H160.715C160.541 205.963 160.388 205.963 160.237 205.954L160.231 205.953C157.458 205.808 155.049 203.925 152.979 201.375C150.916 198.836 149.268 195.737 147.99 193.33L147.99 193.33L147.923 193.204C147.923 193.204 147.923 193.204 147.923 193.204C147.114 191.681 146.35 190.157 145.594 188.65L145.547 188.555L145.547 188.555L161.187 205.953ZM164.042 74.5286L164.055 74.5629L164.072 74.5951C164.698 75.7361 165.094 77.3966 165.36 79.3294C165.625 81.2518 165.755 83.3845 165.88 85.4452C165.943 86.4721 166.005 87.4809 166.081 88.4286L166.081 88.4287C166.809 97.3805 167.949 107.258 170.104 116.292C172.256 125.315 175.432 133.552 180.265 139.178C183.262 142.668 187.718 145.08 192.898 146.972C198.076 148.864 204.038 150.255 210.087 151.667L210.1 151.67L210.1 151.67C211.067 151.896 212.039 152.123 213.011 152.353L213.626 152.498V152.495C215.615 152.981 217.326 153.475 218.637 154.123C219.859 154.726 220.672 155.431 221.063 156.327C208.244 158.915 184.915 161.519 160.719 162.225C136.521 161.519 113.19 158.917 100.368 156.328C100.759 155.432 101.572 154.727 102.794 154.124C104.106 153.476 105.816 152.981 107.806 152.496V152.499L108.421 152.354C109.198 152.17 109.975 151.989 110.751 151.807C110.944 151.762 111.138 151.717 111.331 151.671C111.331 151.671 111.331 151.671 111.331 151.671L111.36 151.665C117.403 150.253 123.359 148.863 128.533 146.973C133.713 145.081 138.17 142.669 141.166 139.178C146 133.552 149.176 125.315 151.328 116.292C153.482 107.259 154.623 97.3813 155.35 88.4291L155.35 88.429C155.427 87.4814 155.489 86.4726 155.551 85.4458C155.676 83.4057 155.804 81.2949 156.064 79.3873C156.325 77.47 156.711 75.8148 157.322 74.6635L157.34 74.6312L157.352 74.5968C157.966 72.8727 159.283 71.7832 160.709 71.7832C162.117 71.7832 163.417 72.8433 164.042 74.5286Z" stroke="#28282B"/>
<path d="M161.187 71.8069L161.196 71.8076C163.969 71.9531 166.378 73.8359 168.449 76.3851C170.512 78.924 172.16 82.0238 173.438 84.4307L173.438 84.431L173.505 84.5569C174.313 86.0787 175.078 87.6032 175.833 89.1106L175.88 89.2052L175.88 89.2052L175.893 89.2306C178.06 93.5549 180.159 97.7445 182.931 101.141L182.931 101.141C185.567 104.367 189.495 106.88 193.866 108.894C198.241 110.91 203.1 112.441 207.631 113.683C208.094 113.811 208.787 113.957 209.597 114.129L209.604 114.13C211.498 114.531 214.111 115.085 216.411 115.912C217.56 116.325 218.612 116.8 219.446 117.346C219.872 117.623 220.23 117.912 220.515 118.212C214.8 117.168 189.15 112.716 160.728 111.523L160.707 111.522L160.686 111.523C132.268 112.717 106.626 117.167 100.912 118.212C101.197 117.912 101.555 117.623 101.981 117.345C102.816 116.8 103.867 116.325 105.016 115.912C107.316 115.085 109.929 114.531 111.823 114.13L111.719 113.641L111.823 114.13C112.637 113.958 113.332 113.81 113.796 113.682C113.797 113.682 113.797 113.682 113.797 113.682L113.664 113.2C122.707 110.723 132.976 107.106 138.109 100.824L161.187 71.8069ZM161.187 71.8069C161.04 71.7965 160.89 71.7963 160.72 71.7963H160.715C160.541 71.7963 160.388 71.7965 160.237 71.8061L160.231 71.8064C157.458 71.952 155.049 73.835 152.979 76.3844C150.916 78.9234 149.268 82.0232 147.99 84.4296L147.99 84.4299L147.923 84.556C147.923 84.556 147.923 84.5561 147.923 84.5562C147.114 86.0785 146.35 87.6027 145.594 89.1096L145.547 89.2052L145.547 89.2052L161.187 71.8069ZM164.042 203.231L164.055 203.197L164.072 203.165C164.698 202.024 165.094 200.363 165.36 198.43C165.625 196.508 165.755 194.375 165.88 192.315C165.943 191.288 166.005 190.279 166.081 189.331L166.081 189.331C166.809 180.379 167.949 170.501 170.104 161.468C172.256 152.445 175.432 144.208 180.265 138.582C183.262 135.092 187.718 132.679 192.898 130.787C198.076 128.896 204.038 127.504 210.087 126.092L210.1 126.089L210.1 126.089C211.067 125.864 212.039 125.636 213.011 125.407L213.626 125.261V125.265C215.615 124.779 217.326 124.284 218.637 123.637C219.859 123.034 220.672 122.329 221.063 121.432C208.244 118.844 184.915 116.241 160.719 115.535C136.521 116.241 113.19 118.843 100.368 121.431C100.759 122.328 101.572 123.033 102.794 123.636C104.106 124.284 105.816 124.779 107.806 125.264V125.26L108.421 125.406C109.198 125.59 109.975 125.771 110.751 125.953C110.944 125.998 111.138 126.043 111.331 126.088C111.331 126.088 111.331 126.088 111.331 126.088L111.36 126.095C117.403 127.506 123.359 128.897 128.533 130.787C133.713 132.679 138.17 135.091 141.166 138.582C146 144.208 149.176 152.445 151.328 161.467C153.482 170.501 154.623 180.379 155.35 189.331L155.35 189.331C155.427 190.278 155.489 191.287 155.551 192.314C155.676 194.354 155.804 196.465 156.064 198.372C156.325 200.29 156.711 201.945 157.322 203.096L157.34 203.129L157.352 203.163C157.966 204.887 159.283 205.977 160.709 205.977C162.117 205.977 163.417 204.916 164.042 203.231Z" stroke="#28282B"/>
<path d="M285.46 205.953L285.469 205.952C288.243 205.807 290.651 203.924 292.722 201.375C294.785 198.836 296.433 195.736 297.712 193.329L297.712 193.329L297.779 193.203C298.587 191.681 299.351 190.157 300.106 188.649L300.154 188.555L300.154 188.555L300.167 188.529C302.333 184.205 304.432 180.015 307.204 176.619L307.204 176.618C309.84 173.393 313.769 170.879 318.139 168.866C322.515 166.85 327.373 165.318 331.905 164.077C332.368 163.949 333.061 163.803 333.871 163.631L333.877 163.63C335.771 163.228 338.385 162.674 340.684 161.848C341.834 161.434 342.885 160.96 343.72 160.414C344.145 160.136 344.503 159.847 344.788 159.548C339.073 160.592 313.424 165.043 285.001 166.237L284.98 166.237L284.959 166.237C256.542 165.042 230.9 160.592 225.185 159.548C225.47 159.848 225.829 160.137 226.254 160.415C227.089 160.96 228.141 161.435 229.29 161.848C231.59 162.675 234.203 163.229 236.096 163.63L235.993 164.119L236.096 163.63C236.91 163.802 237.605 163.95 238.07 164.078C238.07 164.078 238.07 164.078 238.07 164.078L237.938 164.56C246.98 167.037 257.249 170.654 262.383 176.936L285.46 205.953ZM285.46 205.953C285.314 205.963 285.164 205.963 284.994 205.963H284.988C284.815 205.963 284.661 205.963 284.51 205.954L284.504 205.953C281.731 205.808 279.323 203.925 277.252 201.375C275.19 198.836 273.542 195.737 272.263 193.33L272.263 193.33L272.196 193.204C272.196 193.204 272.196 193.204 272.196 193.204C271.387 191.681 270.623 190.157 269.868 188.65L269.82 188.555L269.82 188.555L285.46 205.953ZM288.316 74.5286L288.328 74.5629L288.346 74.5951C288.972 75.7361 289.367 77.3966 289.633 79.3294C289.898 81.2518 290.028 83.3845 290.154 85.4452C290.216 86.4721 290.278 87.4809 290.355 88.4286L290.355 88.4287C291.082 97.3805 292.223 107.258 294.377 116.292C296.529 125.315 299.705 133.552 304.539 139.178C307.535 142.668 311.992 145.08 317.171 146.972C322.35 148.864 328.311 150.255 334.36 151.667L334.373 151.67L334.374 151.67C335.341 151.896 336.313 152.123 337.284 152.353L337.899 152.498V152.495C339.889 152.981 341.599 153.475 342.911 154.123C344.133 154.726 344.946 155.431 345.337 156.327C332.517 158.915 309.189 161.519 284.993 162.225C260.794 161.519 237.463 158.917 224.642 156.328C225.033 155.432 225.846 154.727 227.068 154.124C228.379 153.476 230.09 152.981 232.08 152.496V152.499L232.695 152.354C233.472 152.17 234.248 151.989 235.024 151.807C235.218 151.762 235.411 151.717 235.605 151.671C235.605 151.671 235.605 151.671 235.605 151.671L235.634 151.665C241.677 150.253 247.633 148.863 252.807 146.973C257.987 145.081 262.443 142.669 265.44 139.178C270.273 133.552 273.449 125.315 275.601 116.292C277.756 107.259 278.896 97.3813 279.624 88.4291L279.624 88.429C279.7 87.4814 279.762 86.4726 279.825 85.4458C279.949 83.4057 280.078 81.2949 280.337 79.3873C280.598 77.47 280.984 75.8148 281.596 74.6635L281.613 74.6312L281.625 74.5968C282.24 72.8727 283.556 71.7832 284.982 71.7832C286.391 71.7832 287.69 72.8433 288.316 74.5286Z" stroke="#28282B"/>
<path d="M285.46 71.8069L285.469 71.8076C288.243 71.9531 290.651 73.8359 292.722 76.3851C294.785 78.924 296.433 82.0238 297.712 84.4307L297.712 84.431L297.779 84.5569C298.587 86.0787 299.351 87.6032 300.106 89.1106L300.154 89.2052L300.154 89.2052L300.167 89.2306C302.333 93.5549 304.432 97.7445 307.204 101.141L307.204 101.141C309.84 104.367 313.769 106.88 318.139 108.894C322.515 110.91 327.373 112.441 331.905 113.683C332.368 113.811 333.061 113.957 333.871 114.129L333.877 114.13C335.771 114.531 338.385 115.085 340.684 115.912C341.834 116.325 342.885 116.8 343.72 117.346C344.145 117.623 344.503 117.912 344.788 118.212C339.073 117.168 313.424 112.716 285.001 111.523L284.98 111.522L284.959 111.523C256.542 112.717 230.9 117.167 225.185 118.212C225.47 117.912 225.829 117.623 226.254 117.345C227.089 116.8 228.141 116.325 229.29 115.912C231.59 115.085 234.203 114.531 236.096 114.13L235.993 113.641L236.096 114.13C236.91 113.958 237.605 113.81 238.07 113.682C238.07 113.682 238.07 113.682 238.07 113.682L237.938 113.2C246.98 110.723 257.249 107.106 262.383 100.824L285.46 71.8069ZM285.46 71.8069C285.314 71.7965 285.164 71.7963 284.994 71.7963H284.988C284.815 71.7963 284.661 71.7965 284.51 71.8061L284.504 71.8064C281.731 71.952 279.323 73.835 277.252 76.3844C275.19 78.9234 273.542 82.0232 272.263 84.4296L272.263 84.4299L272.196 84.556C272.196 84.556 272.196 84.5561 272.196 84.5562C271.387 86.0785 270.623 87.6027 269.868 89.1096L269.82 89.2052L269.82 89.2052L285.46 71.8069ZM288.316 203.231L288.328 203.197L288.346 203.165C288.972 202.024 289.367 200.363 289.633 198.43C289.898 196.508 290.028 194.375 290.154 192.315C290.216 191.288 290.278 190.279 290.355 189.331L290.355 189.331C291.082 180.379 292.223 170.501 294.377 161.468C296.529 152.445 299.705 144.208 304.539 138.582C307.535 135.092 311.992 132.679 317.171 130.787C322.35 128.896 328.311 127.504 334.36 126.092L334.373 126.089L334.374 126.089C335.341 125.864 336.313 125.636 337.284 125.407L337.899 125.261V125.265C339.889 124.779 341.599 124.284 342.911 123.637C344.133 123.034 344.946 122.329 345.337 121.432C332.517 118.844 309.189 116.241 284.993 115.535C260.794 116.241 237.463 118.843 224.642 121.431C225.033 122.328 225.846 123.033 227.068 123.636C228.379 124.284 230.09 124.779 232.08 125.264V125.26L232.695 125.406C233.472 125.59 234.248 125.771 235.024 125.953C235.218 125.998 235.411 126.043 235.605 126.088C235.605 126.088 235.605 126.088 235.605 126.088L235.634 126.095C241.677 127.506 247.633 128.897 252.807 130.787C257.987 132.679 262.443 135.091 265.44 138.582C270.273 144.208 273.449 152.445 275.601 161.467C277.756 170.501 278.896 180.379 279.624 189.331L279.624 189.331C279.7 190.278 279.762 191.287 279.825 192.314C279.949 194.354 280.078 196.465 280.337 198.372C280.598 200.29 280.984 201.945 281.596 203.096L281.613 203.129L281.625 203.163C282.24 204.887 283.556 205.977 284.982 205.977C286.391 205.977 287.69 204.916 288.316 203.231Z" stroke="#28282B"/>
<path d="M409.716 205.953L409.725 205.952C412.498 205.807 414.907 203.924 416.978 201.375C419.041 198.836 420.689 195.736 421.967 193.329L421.967 193.329L422.034 193.203C422.842 191.681 423.606 190.157 424.362 188.649L424.409 188.555L424.409 188.555L424.422 188.529C426.589 184.205 428.688 180.015 431.459 176.619L431.46 176.618C434.096 173.393 438.024 170.879 442.394 168.866C446.77 166.85 451.629 165.318 456.16 164.077C456.623 163.949 457.316 163.803 458.126 163.631L458.132 163.63C460.027 163.228 462.64 162.674 464.94 161.848C466.089 161.434 467.14 160.96 467.975 160.414C468.401 160.136 468.759 159.847 469.044 159.548C463.329 160.592 437.679 165.043 409.256 166.237L409.235 166.237L409.214 166.237C380.797 165.042 355.155 160.592 349.441 159.548C349.726 159.848 350.084 160.137 350.51 160.415C351.345 160.96 352.396 161.435 353.545 161.848C355.845 162.675 358.458 163.229 360.352 163.63L360.248 164.119L360.352 163.63C361.166 163.802 361.861 163.95 362.325 164.078C362.325 164.078 362.326 164.078 362.326 164.078L362.193 164.56C371.236 167.037 381.505 170.654 386.638 176.936L409.716 205.953ZM409.716 205.953C409.569 205.963 409.419 205.963 409.249 205.963H409.243C409.07 205.963 408.916 205.963 408.765 205.954L408.76 205.953C405.987 205.808 403.578 203.925 401.507 201.375C399.445 198.836 397.797 195.737 396.519 193.33L396.519 193.33L396.452 193.204C396.452 193.204 396.452 193.204 396.452 193.204C395.642 191.681 394.879 190.157 394.123 188.65L394.075 188.555L394.075 188.555L409.716 205.953ZM412.571 74.5286L412.584 74.5629L412.601 74.5951C413.227 75.7361 413.622 77.3966 413.889 79.3294C414.153 81.2518 414.284 83.3845 414.409 85.4452C414.472 86.4721 414.533 87.4809 414.61 88.4286L414.61 88.4287C415.337 97.3805 416.478 107.258 418.633 116.292C420.785 125.315 423.961 133.552 428.794 139.178C431.791 142.668 436.247 145.08 441.427 146.972C446.605 148.864 452.567 150.255 458.616 151.667L458.629 151.67L458.629 151.67C459.596 151.896 460.568 152.123 461.539 152.353L462.154 152.498V152.495C464.144 152.981 465.855 153.475 467.166 154.123C468.388 154.726 469.201 155.431 469.592 156.327C456.772 158.915 433.444 161.519 409.248 162.225C385.05 161.519 361.718 158.917 348.897 156.328C349.288 155.432 350.101 154.727 351.323 154.124C352.634 153.476 354.345 152.981 356.335 152.496V152.499L356.95 152.354C357.727 152.17 358.504 151.989 359.279 151.807C359.473 151.762 359.666 151.717 359.86 151.671C359.86 151.671 359.86 151.671 359.86 151.671L359.889 151.665C365.932 150.253 371.888 148.863 377.062 146.973C382.242 145.081 386.698 142.669 389.695 139.178C394.529 133.552 397.705 125.315 399.857 116.292C402.011 107.259 403.152 97.3813 403.879 88.4291L403.879 88.429C403.956 87.4814 404.018 86.4726 404.08 85.4458C404.204 83.4057 404.333 81.2949 404.593 79.3873C404.853 77.47 405.24 75.8148 405.851 74.6635L405.868 74.6312L405.881 74.5968C406.495 72.8727 407.812 71.7832 409.238 71.7832C410.646 71.7832 411.946 72.8433 412.571 74.5286Z" stroke="#28282B"/>
<path d="M409.716 71.8069L409.725 71.8076C412.498 71.9531 414.907 73.8359 416.978 76.3851C419.041 78.924 420.689 82.0238 421.967 84.4307L421.967 84.431L422.034 84.5569C422.842 86.0787 423.606 87.6032 424.362 89.1106L424.409 89.2052L424.409 89.2052L424.422 89.2306C426.589 93.5549 428.688 97.7445 431.459 101.141L431.46 101.141C434.096 104.367 438.024 106.88 442.394 108.894C446.77 110.91 451.629 112.441 456.16 113.683C456.623 113.811 457.316 113.957 458.126 114.129L458.132 114.13C460.027 114.531 462.64 115.085 464.94 115.912C466.089 116.325 467.14 116.8 467.975 117.346C468.401 117.623 468.759 117.912 469.044 118.212C463.329 117.168 437.679 112.716 409.256 111.523L409.235 111.522L409.214 111.523C380.797 112.717 355.155 117.167 349.441 118.212C349.726 117.912 350.084 117.623 350.51 117.345C351.345 116.8 352.396 116.325 353.545 115.912C355.845 115.085 358.458 114.531 360.352 114.13L360.248 113.641L360.352 114.13C361.166 113.958 361.861 113.81 362.325 113.682C362.325 113.682 362.326 113.682 362.326 113.682L362.193 113.2C371.236 110.723 381.505 107.106 386.638 100.824L409.716 71.8069ZM409.716 71.8069C409.569 71.7965 409.419 71.7963 409.249 71.7963H409.243C409.07 71.7963 408.916 71.7965 408.765 71.8061L408.76 71.8064C405.987 71.952 403.578 73.835 401.507 76.3844C399.445 78.9234 397.797 82.0232 396.519 84.4296L396.519 84.4299L396.452 84.556C396.452 84.556 396.452 84.5561 396.452 84.5562C395.642 86.0785 394.879 87.6027 394.123 89.1096L394.075 89.2052L394.075 89.2052L409.716 71.8069ZM412.571 203.231L412.584 203.197L412.601 203.165C413.227 202.024 413.622 200.363 413.889 198.43C414.153 196.508 414.284 194.375 414.409 192.315C414.472 191.288 414.533 190.279 414.61 189.331L414.61 189.331C415.337 180.379 416.478 170.501 418.633 161.468C420.785 152.445 423.961 144.208 428.794 138.582C431.791 135.092 436.247 132.679 441.427 130.787C446.605 128.896 452.567 127.504 458.616 126.092L458.629 126.089L458.629 126.089C459.596 125.864 460.568 125.636 461.539 125.407L462.154 125.261V125.265C464.144 124.779 465.855 124.284 467.166 123.637C468.388 123.034 469.201 122.329 469.592 121.432C456.772 118.844 433.444 116.241 409.248 115.535C385.05 116.241 361.718 118.843 348.897 121.431C349.288 122.328 350.101 123.033 351.323 123.636C352.634 124.284 354.345 124.779 356.335 125.264V125.26L356.95 125.406C357.727 125.59 358.504 125.771 359.279 125.953C359.473 125.998 359.666 126.043 359.86 126.088C359.86 126.088 359.86 126.088 359.86 126.088L359.889 126.095C365.932 127.506 371.888 128.897 377.062 130.787C382.242 132.679 386.698 135.091 389.695 138.582C394.529 144.208 397.705 152.445 399.857 161.467C402.011 170.501 403.152 180.379 403.879 189.331L403.879 189.331C403.956 190.278 404.018 191.287 404.08 192.314C404.204 194.354 404.333 196.465 404.593 198.372C404.853 200.29 405.24 201.945 405.851 203.096L405.868 203.129L405.881 203.163C406.495 204.887 407.812 205.977 409.238 205.977C410.646 205.977 411.946 204.916 412.571 203.231Z" stroke="#28282B"/>
</g>
</g>
<defs>
<linearGradient id="paint0_linear_4049_13673" x1="2" y1="133.783" x2="357.887" y2="128.305" gradientUnits="userSpaceOnUse">
<stop stop-color="#9845FE"/>
<stop offset="0.432132" stop-color="#47CEFF"/>
<stop offset="0.678681" stop-color="#03FFE1"/>
<stop offset="1" stop-color="#03FFB3"/>
</linearGradient>
</defs>
</svg>
