<svg width="1720" height="333" viewBox="0 0 1720 333" fill="none" xmlns="http://www.w3.org/2000/svg">
<mask id="path-1-inside-1_8184_2440" fill="white">
<path fill-rule="evenodd" clip-rule="evenodd" d="M0 0H1644L1720 76V333H76L0 257V0Z"/>
</mask>
<path fill-rule="evenodd" clip-rule="evenodd" d="M0 0H1644L1720 76V333H76L0 257V0Z" fill="#EBEBDE"/>
<path d="M1644 0L1645.41 -1.41421L1644.83 -2H1644V0ZM0 0V-2H-2V0H0ZM1720 76H1722V75.1716L1721.41 74.5858L1720 76ZM1720 333V335H1722V333H1720ZM76 333L74.5858 334.414L75.1716 335H76V333ZM0 257H-2V257.828L-1.41421 258.414L0 257ZM1644 -2H0V2H1644V-2ZM1721.41 74.5858L1645.41 -1.41421L1642.59 1.41421L1718.59 77.4142L1721.41 74.5858ZM1722 333V76H1718V333H1722ZM76 335H1720V331H76V335ZM-1.41421 258.414L74.5858 334.414L77.4142 331.586L1.41421 255.586L-1.41421 258.414ZM-2 0V257H2V0H-2Z" fill="#28282B" mask="url(#path-1-inside-1_8184_2440)"/>
</svg>
