<svg width="199" height="102" viewBox="0 0 199 102" fill="none" xmlns="http://www.w3.org/2000/svg">
<path fill-rule="evenodd" clip-rule="evenodd" d="M68 0H0V102H80V12L68 0Z" fill="url(#paint0_linear_4049_13673)"/>
<path d="M21.8184 12.6699V13.8184C22.2793 13.8926 22.6562 14.0449 22.9492 14.2754C23.2422 14.5059 23.5215 14.8594 23.7871 15.3359L22.6445 15.9746C22.3008 15.3496 21.8516 15.0371 21.2969 15.0371C20.9531 15.0371 20.668 15.1387 20.4414 15.3418C20.2148 15.5449 20.1016 15.7988 20.1016 16.1035C20.1016 16.3809 20.1934 16.6113 20.377 16.7949C20.5566 16.9746 20.9199 17.1875 21.4668 17.4336C21.9395 17.6484 22.3301 17.8516 22.6387 18.043C22.9473 18.2305 23.1797 18.4121 23.3359 18.5879C23.7773 19.0645 23.998 19.6406 23.998 20.3164C23.998 20.9805 23.7988 21.5664 23.4004 22.0742C23.0059 22.5781 22.4785 22.918 21.8184 23.0938V24.3066H20.793V23.1289C20.0273 23.0039 19.4434 22.7402 19.041 22.3379C18.6387 21.9355 18.3418 21.3145 18.1504 20.4746L19.4395 20.2051C19.6152 20.7988 19.8301 21.2227 20.084 21.4766C20.3496 21.7188 20.7031 21.8398 21.1445 21.8398C21.5742 21.8398 21.9336 21.7012 22.2227 21.4238C22.5078 21.1504 22.6504 20.7969 22.6504 20.3633C22.6504 19.9766 22.5312 19.666 22.293 19.4316C22.1719 19.3184 21.9922 19.1914 21.7539 19.0508C21.5195 18.9062 21.2188 18.75 20.8516 18.582C20.0938 18.2422 19.5957 17.9297 19.3574 17.6445C18.9785 17.2188 18.7891 16.709 18.7891 16.1152C18.7891 15.834 18.834 15.5723 18.9238 15.3301C19.0137 15.0879 19.1426 14.8691 19.3105 14.6738C19.4824 14.4746 19.6934 14.3027 19.9434 14.1582C20.1934 14.0137 20.4766 13.9004 20.793 13.8184V12.6699H21.8184ZM28.123 15.2305H26.5586L27.3086 13.9531H29.4883V23H28.123V15.2305ZM35.9336 13.6367L36.9355 14.3867L34.7734 17.3281C34.8906 17.3125 34.9902 17.3008 35.0723 17.293C35.1543 17.2852 35.2188 17.2812 35.2656 17.2812C36 17.2812 36.6348 17.5625 37.1699 18.125C37.7012 18.6797 37.9668 19.3477 37.9668 20.1289C37.9668 20.957 37.6699 21.668 37.0762 22.2617C36.4863 22.8516 35.7773 23.1465 34.9492 23.1465C34.1289 23.1465 33.4102 22.8555 32.793 22.2734C32.1875 21.6914 31.8848 21.002 31.8848 20.2051C31.8848 19.4902 32.1797 18.7324 32.7695 17.9316L35.9336 13.6367ZM36.6367 20.2168C36.6367 19.7363 36.4707 19.3301 36.1387 18.998C35.8027 18.6621 35.3984 18.4941 34.9258 18.4941C34.4492 18.4941 34.0449 18.6602 33.7129 18.9922C33.3809 19.3242 33.2148 19.7266 33.2148 20.1992C33.2148 20.6719 33.3809 21.0742 33.7129 21.4062C34.0449 21.7383 34.4512 21.9043 34.9316 21.9043C35.4004 21.9043 35.8008 21.7383 36.1328 21.4062C36.4688 21.0703 36.6367 20.6738 36.6367 20.2168ZM41.6348 21.7168H45.0039V23H38.9277L42.0684 19.1973C42.377 18.8184 42.6348 18.4902 42.8418 18.2129C43.0527 17.9355 43.2129 17.7031 43.3223 17.5156C43.5449 17.1484 43.6562 16.8184 43.6562 16.5254C43.6562 16.1035 43.5078 15.75 43.2109 15.4648C42.9141 15.1797 42.5469 15.0371 42.1094 15.0371C41.1953 15.0371 40.6719 15.5781 40.5391 16.6602H39.1797C39.3984 14.7539 40.3613 13.8008 42.0684 13.8008C42.8926 13.8008 43.584 14.0625 44.1426 14.5859C44.7051 15.1094 44.9863 15.7578 44.9863 16.5312C44.9863 17.0234 44.8555 17.5059 44.5938 17.9785C44.4609 18.2246 44.2656 18.5176 44.0078 18.8574C43.7539 19.1934 43.4316 19.5918 43.041 20.0527L41.6348 21.7168ZM50.8047 15.2305H46.3398V13.9531H53.084L47.377 23.3105L46.293 22.625L50.8047 15.2305ZM52.4629 22.3438C52.4629 22.125 52.543 21.9355 52.7031 21.7754C52.8633 21.6152 53.0547 21.5352 53.2773 21.5352C53.5 21.5352 53.6914 21.6152 53.8516 21.7754C54.0117 21.9355 54.0918 22.127 54.0918 22.3496C54.0918 22.5762 54.0117 22.7695 53.8516 22.9297C53.6953 23.0859 53.5039 23.1641 53.2773 23.1641C53.0469 23.1641 52.8535 23.0859 52.6973 22.9297C52.541 22.7734 52.4629 22.5781 52.4629 22.3438ZM57.8242 23.3105L56.8223 22.5664L58.9844 19.6191C58.8672 19.6348 58.7676 19.6465 58.6855 19.6543C58.6035 19.6621 58.5371 19.666 58.4863 19.666C57.7559 19.666 57.123 19.3867 56.5879 18.8281C56.0566 18.2734 55.791 17.6055 55.791 16.8242C55.791 15.9922 56.0859 15.2812 56.6758 14.6914C57.2695 14.0977 57.9805 13.8008 58.8086 13.8008C59.6328 13.8008 60.3496 14.0938 60.959 14.6797C61.5684 15.2617 61.873 15.9492 61.873 16.7422C61.873 17.4453 61.5762 18.2051 60.9824 19.0215L57.8242 23.3105ZM57.1211 16.7246C57.1211 17.2129 57.2871 17.623 57.6191 17.9551C57.9551 18.291 58.3594 18.459 58.832 18.459C59.3047 18.459 59.707 18.293 60.0391 17.9609C60.375 17.625 60.543 17.2207 60.543 16.748C60.543 16.2754 60.375 15.8711 60.0391 15.5352C59.707 15.2031 59.3027 15.0371 58.8262 15.0371C58.3574 15.0371 57.957 15.2031 57.625 15.5352C57.2891 15.8711 57.1211 16.2676 57.1211 16.7246Z" fill="black"/>
<path d="M94.848 18.524V19.976C95.712 20.064 96.44 20.296 97.032 20.672L96.144 22.4C95.632 22.008 95.128 21.812 94.632 21.812C94.328 21.812 94.08 21.884 93.888 22.028C93.696 22.164 93.6 22.32 93.6 22.496C93.6 22.656 93.676 22.808 93.828 22.952C93.98 23.096 94.18 23.212 94.428 23.3L95.136 23.54C95.928 23.812 96.5 24.148 96.852 24.548C97.204 24.94 97.38 25.452 97.38 26.084C97.38 26.468 97.336 26.808 97.248 27.104C97.16 27.4 97.016 27.664 96.816 27.896C96.616 28.128 96.352 28.332 96.024 28.508C95.704 28.684 95.312 28.844 94.848 28.988V30.476H93.744V29.048C93.496 29.048 93.232 29.02 92.952 28.964C92.672 28.9 92.396 28.82 92.124 28.724C91.852 28.62 91.596 28.504 91.356 28.376C91.124 28.24 90.932 28.1 90.78 27.956L91.752 26.144C92.504 26.808 93.236 27.14 93.948 27.14C94.244 27.14 94.5 27.06 94.716 26.9C94.94 26.74 95.052 26.532 95.052 26.276C95.052 25.924 94.792 25.664 94.272 25.496L93.588 25.28C93.18 25.152 92.832 25.012 92.544 24.86C92.256 24.708 92.02 24.532 91.836 24.332C91.652 24.132 91.516 23.908 91.428 23.66C91.34 23.404 91.296 23.112 91.296 22.784C91.296 22.44 91.344 22.108 91.44 21.788C91.544 21.468 91.696 21.184 91.896 20.936C92.104 20.68 92.36 20.468 92.664 20.3C92.968 20.124 93.328 20.016 93.744 19.976V18.524H94.848ZM100.724 24.464C100.724 24.864 100.76 25.228 100.832 25.556C100.904 25.884 101.004 26.168 101.132 26.408C101.268 26.648 101.428 26.836 101.612 26.972C101.796 27.1 102.004 27.164 102.236 27.164C102.46 27.164 102.664 27.1 102.848 26.972C103.04 26.836 103.2 26.648 103.328 26.408C103.456 26.168 103.556 25.884 103.628 25.556C103.7 25.228 103.736 24.864 103.736 24.464C103.736 24.072 103.7 23.712 103.628 23.384C103.556 23.048 103.456 22.764 103.328 22.532C103.2 22.292 103.04 22.108 102.848 21.98C102.664 21.844 102.46 21.776 102.236 21.776C102.004 21.776 101.796 21.844 101.612 21.98C101.428 22.108 101.268 22.292 101.132 22.532C101.004 22.764 100.904 23.048 100.832 23.384C100.76 23.712 100.724 24.072 100.724 24.464ZM98.3963 24.464C98.3963 23.744 98.4883 23.092 98.6723 22.508C98.8643 21.916 99.1283 21.412 99.4643 20.996C99.8083 20.58 100.212 20.26 100.676 20.036C101.148 19.804 101.668 19.688 102.236 19.688C102.796 19.688 103.312 19.804 103.784 20.036C104.256 20.26 104.66 20.58 104.996 20.996C105.332 21.412 105.592 21.916 105.776 22.508C105.968 23.092 106.064 23.744 106.064 24.464C106.064 25.184 105.968 25.84 105.776 26.432C105.592 27.016 105.332 27.52 104.996 27.944C104.66 28.36 104.256 28.684 103.784 28.916C103.312 29.14 102.796 29.252 102.236 29.252C101.668 29.252 101.148 29.14 100.676 28.916C100.212 28.684 99.8083 28.36 99.4643 27.944C99.1283 27.52 98.8643 27.016 98.6723 26.432C98.4883 25.84 98.3963 25.184 98.3963 24.464ZM106.949 27.848C106.949 27.656 106.985 27.476 107.057 27.308C107.129 27.132 107.229 26.98 107.357 26.852C107.485 26.724 107.633 26.624 107.801 26.552C107.977 26.48 108.161 26.444 108.353 26.444C108.545 26.444 108.725 26.48 108.893 26.552C109.069 26.624 109.221 26.724 109.349 26.852C109.477 26.98 109.577 27.132 109.649 27.308C109.721 27.476 109.757 27.656 109.757 27.848C109.757 28.04 109.721 28.224 109.649 28.4C109.577 28.568 109.477 28.716 109.349 28.844C109.221 28.972 109.069 29.072 108.893 29.144C108.725 29.216 108.545 29.252 108.353 29.252C108.161 29.252 107.977 29.216 107.801 29.144C107.633 29.072 107.485 28.972 107.357 28.844C107.229 28.716 107.129 28.568 107.057 28.4C106.985 28.224 106.949 28.04 106.949 27.848ZM113.391 26.264C113.391 26.416 113.419 26.56 113.475 26.696C113.531 26.832 113.607 26.952 113.703 27.056C113.799 27.152 113.911 27.232 114.039 27.296C114.175 27.352 114.319 27.38 114.471 27.38C114.615 27.38 114.751 27.352 114.879 27.296C115.015 27.232 115.131 27.152 115.227 27.056C115.331 26.952 115.411 26.836 115.467 26.708C115.523 26.572 115.551 26.428 115.551 26.276C115.551 25.972 115.443 25.716 115.227 25.508C115.019 25.292 114.767 25.184 114.471 25.184C114.167 25.184 113.911 25.292 113.703 25.508C113.495 25.716 113.391 25.968 113.391 26.264ZM113.475 22.256C113.475 22.536 113.571 22.776 113.763 22.976C113.955 23.168 114.191 23.264 114.471 23.264C114.615 23.264 114.747 23.236 114.867 23.18C114.987 23.124 115.091 23.052 115.179 22.964C115.267 22.868 115.335 22.76 115.383 22.64C115.439 22.52 115.467 22.396 115.467 22.268C115.467 21.996 115.371 21.764 115.179 21.572C114.987 21.372 114.751 21.272 114.471 21.272C114.191 21.272 113.955 21.368 113.763 21.56C113.571 21.752 113.475 21.984 113.475 22.256ZM112.803 24.224C111.859 23.832 111.387 23.168 111.387 22.232C111.387 21.848 111.463 21.504 111.615 21.2C111.767 20.888 111.975 20.62 112.239 20.396C112.511 20.172 112.835 20 113.211 19.88C113.595 19.76 114.015 19.7 114.471 19.7C114.927 19.7 115.343 19.76 115.719 19.88C116.103 20 116.427 20.172 116.691 20.396C116.963 20.62 117.175 20.888 117.327 21.2C117.479 21.504 117.555 21.848 117.555 22.232C117.555 22.472 117.531 22.688 117.483 22.88C117.435 23.064 117.351 23.236 117.231 23.396C117.119 23.548 116.967 23.692 116.775 23.828C116.591 23.964 116.359 24.096 116.079 24.224C117.311 24.704 117.927 25.48 117.927 26.552C117.927 26.936 117.839 27.292 117.663 27.62C117.495 27.948 117.255 28.232 116.943 28.472C116.639 28.712 116.275 28.9 115.851 29.036C115.435 29.172 114.975 29.24 114.471 29.24C113.983 29.24 113.527 29.172 113.103 29.036C112.687 28.908 112.323 28.724 112.011 28.484C111.699 28.244 111.455 27.96 111.279 27.632C111.103 27.304 111.015 26.944 111.015 26.552C111.015 25.456 111.611 24.68 112.803 24.224ZM121.115 24.464C121.115 24.864 121.151 25.228 121.223 25.556C121.295 25.884 121.395 26.168 121.523 26.408C121.659 26.648 121.819 26.836 122.003 26.972C122.187 27.1 122.395 27.164 122.627 27.164C122.851 27.164 123.055 27.1 123.239 26.972C123.431 26.836 123.591 26.648 123.719 26.408C123.847 26.168 123.947 25.884 124.019 25.556C124.091 25.228 124.127 24.864 124.127 24.464C124.127 24.072 124.091 23.712 124.019 23.384C123.947 23.048 123.847 22.764 123.719 22.532C123.591 22.292 123.431 22.108 123.239 21.98C123.055 21.844 122.851 21.776 122.627 21.776C122.395 21.776 122.187 21.844 122.003 21.98C121.819 22.108 121.659 22.292 121.523 22.532C121.395 22.764 121.295 23.048 121.223 23.384C121.151 23.712 121.115 24.072 121.115 24.464ZM118.787 24.464C118.787 23.744 118.879 23.092 119.063 22.508C119.255 21.916 119.519 21.412 119.855 20.996C120.199 20.58 120.603 20.26 121.067 20.036C121.539 19.804 122.059 19.688 122.627 19.688C123.187 19.688 123.703 19.804 124.175 20.036C124.647 20.26 125.051 20.58 125.387 20.996C125.723 21.412 125.983 21.916 126.167 22.508C126.359 23.092 126.455 23.744 126.455 24.464C126.455 25.184 126.359 25.84 126.167 26.432C125.983 27.016 125.723 27.52 125.387 27.944C125.051 28.36 124.647 28.684 124.175 28.916C123.703 29.14 123.187 29.252 122.627 29.252C122.059 29.252 121.539 29.14 121.067 28.916C120.603 28.684 120.199 28.36 119.855 27.944C119.519 27.52 119.255 27.016 119.063 26.432C118.879 25.84 118.787 25.184 118.787 24.464ZM136.433 25.94C136.433 25.748 136.397 25.568 136.325 25.4C136.261 25.224 136.165 25.072 136.037 24.944C135.909 24.816 135.757 24.716 135.581 24.644C135.413 24.564 135.229 24.524 135.029 24.524C134.837 24.524 134.657 24.56 134.489 24.632C134.321 24.704 134.173 24.804 134.045 24.932C133.925 25.06 133.825 25.212 133.745 25.388C133.673 25.556 133.637 25.736 133.637 25.928C133.637 26.12 133.673 26.3 133.745 26.468C133.817 26.636 133.917 26.784 134.045 26.912C134.173 27.032 134.321 27.132 134.489 27.212C134.665 27.284 134.849 27.32 135.041 27.32C135.233 27.32 135.413 27.284 135.581 27.212C135.749 27.14 135.893 27.04 136.013 26.912C136.141 26.784 136.241 26.636 136.313 26.468C136.393 26.3 136.433 26.124 136.433 25.94ZM133.697 32.072H131.525V22.844H133.697V23.528C134.161 22.944 134.793 22.652 135.593 22.652C136.033 22.652 136.441 22.74 136.817 22.916C137.201 23.084 137.533 23.316 137.813 23.612C138.093 23.908 138.309 24.256 138.461 24.656C138.621 25.056 138.701 25.484 138.701 25.94C138.701 26.396 138.621 26.82 138.461 27.212C138.309 27.604 138.093 27.948 137.813 28.244C137.541 28.54 137.217 28.772 136.841 28.94C136.465 29.108 136.057 29.192 135.617 29.192C134.849 29.192 134.209 28.928 133.697 28.4V32.072ZM144.439 25.028C144.367 24.724 144.219 24.48 143.995 24.296C143.771 24.112 143.499 24.02 143.179 24.02C142.843 24.02 142.567 24.108 142.351 24.284C142.143 24.46 142.011 24.708 141.955 25.028H144.439ZM141.895 26.288C141.895 27.224 142.335 27.692 143.215 27.692C143.687 27.692 144.043 27.5 144.283 27.116H146.383C145.959 28.524 144.899 29.228 143.203 29.228C142.683 29.228 142.207 29.152 141.775 29C141.343 28.84 140.971 28.616 140.659 28.328C140.355 28.04 140.119 27.696 139.951 27.296C139.783 26.896 139.699 26.448 139.699 25.952C139.699 25.44 139.779 24.98 139.939 24.572C140.099 24.156 140.327 23.804 140.623 23.516C140.919 23.228 141.275 23.008 141.691 22.856C142.115 22.696 142.591 22.616 143.119 22.616C143.639 22.616 144.107 22.696 144.523 22.856C144.939 23.008 145.291 23.232 145.579 23.528C145.867 23.824 146.087 24.188 146.239 24.62C146.391 25.044 146.467 25.524 146.467 26.06V26.288H141.895ZM147.709 22.844H149.881V23.852C150.113 23.484 150.397 23.204 150.733 23.012C151.069 22.812 151.461 22.712 151.909 22.712C151.965 22.712 152.025 22.712 152.089 22.712C152.161 22.712 152.241 22.72 152.329 22.736V24.812C152.041 24.668 151.729 24.596 151.393 24.596C150.889 24.596 150.509 24.748 150.253 25.052C150.005 25.348 149.881 25.784 149.881 26.36V29H147.709V22.844ZM157.463 19.04H159.179L154.235 31.076H152.531L157.463 19.04ZM160.002 19.04H162.174V23.624C162.47 23.264 162.77 23.024 163.074 22.904C163.378 22.776 163.734 22.712 164.142 22.712C164.918 22.712 165.502 22.928 165.894 23.36C166.294 23.784 166.494 24.36 166.494 25.088V29H164.322V25.892C164.322 25.58 164.298 25.328 164.25 25.136C164.202 24.944 164.122 24.796 164.01 24.692C163.818 24.524 163.586 24.44 163.314 24.44C162.946 24.44 162.662 24.552 162.462 24.776C162.27 24.992 162.174 25.304 162.174 25.712V29H160.002V19.04Z" fill="white"/>
<path d="M92.4492 50.3262V54H91.084V44.9531H92.6309C93.3887 44.9531 93.9609 45.0059 94.3477 45.1113C94.7383 45.2168 95.082 45.416 95.3789 45.709C95.8984 46.2168 96.1582 46.8574 96.1582 47.6309C96.1582 48.459 95.8809 49.1152 95.3262 49.5996C94.7715 50.084 94.0234 50.3262 93.082 50.3262H92.4492ZM92.4492 49.0605H92.959C94.2129 49.0605 94.8398 48.5781 94.8398 47.6133C94.8398 46.6797 94.1934 46.2129 92.9004 46.2129H92.4492V49.0605ZM98.9297 44.9531V52.7168H101.59V54H97.5645V44.9531H98.9297ZM103.969 44.9531V50.4023C103.969 51.1797 104.096 51.748 104.35 52.1074C104.729 52.627 105.262 52.8867 105.949 52.8867C106.641 52.8867 107.176 52.627 107.555 52.1074C107.809 51.7598 107.936 51.1914 107.936 50.4023V44.9531H109.301V50.7773C109.301 51.7305 109.004 52.5156 108.41 53.1328C107.742 53.8203 106.922 54.1641 105.949 54.1641C104.977 54.1641 104.158 53.8203 103.494 53.1328C102.9 52.5156 102.604 51.7305 102.604 50.7773V44.9531H103.969ZM116.59 46.3008L115.482 46.957C115.275 46.5977 115.078 46.3633 114.891 46.2539C114.695 46.1289 114.443 46.0664 114.135 46.0664C113.756 46.0664 113.441 46.1738 113.191 46.3887C112.941 46.5996 112.816 46.8652 112.816 47.1855C112.816 47.627 113.145 47.9824 113.801 48.252L114.703 48.6211C115.438 48.918 115.975 49.2812 116.314 49.7109C116.654 50.1367 116.824 50.6602 116.824 51.2812C116.824 52.1133 116.547 52.8008 115.992 53.3438C115.434 53.8906 114.74 54.1641 113.912 54.1641C113.127 54.1641 112.479 53.9316 111.967 53.4668C111.463 53.002 111.148 52.3477 111.023 51.5039L112.406 51.1992C112.469 51.7305 112.578 52.0977 112.734 52.3008C113.016 52.6914 113.426 52.8867 113.965 52.8867C114.391 52.8867 114.744 52.7441 115.025 52.459C115.307 52.1738 115.447 51.8125 115.447 51.375C115.447 51.1992 115.422 51.0391 115.371 50.8945C115.324 50.7461 115.248 50.6113 115.143 50.4902C115.041 50.3652 114.908 50.25 114.744 50.1445C114.58 50.0352 114.385 49.9316 114.158 49.834L113.285 49.4707C112.047 48.9473 111.428 48.1816 111.428 47.1738C111.428 46.4941 111.688 45.9258 112.207 45.4688C112.727 45.0078 113.373 44.7773 114.146 44.7773C115.189 44.7773 116.004 45.2852 116.59 46.3008ZM125.443 43.6699V44.8184C125.904 44.8926 126.281 45.0449 126.574 45.2754C126.867 45.5059 127.146 45.8594 127.412 46.3359L126.27 46.9746C125.926 46.3496 125.477 46.0371 124.922 46.0371C124.578 46.0371 124.293 46.1387 124.066 46.3418C123.84 46.5449 123.727 46.7988 123.727 47.1035C123.727 47.3809 123.818 47.6113 124.002 47.7949C124.182 47.9746 124.545 48.1875 125.092 48.4336C125.564 48.6484 125.955 48.8516 126.264 49.043C126.572 49.2305 126.805 49.4121 126.961 49.5879C127.402 50.0645 127.623 50.6406 127.623 51.3164C127.623 51.9805 127.424 52.5664 127.025 53.0742C126.631 53.5781 126.104 53.918 125.443 54.0938V55.3066H124.418V54.1289C123.652 54.0039 123.068 53.7402 122.666 53.3379C122.264 52.9355 121.967 52.3145 121.775 51.4746L123.064 51.2051C123.24 51.7988 123.455 52.2227 123.709 52.4766C123.975 52.7188 124.328 52.8398 124.77 52.8398C125.199 52.8398 125.559 52.7012 125.848 52.4238C126.133 52.1504 126.275 51.7969 126.275 51.3633C126.275 50.9766 126.156 50.666 125.918 50.4316C125.797 50.3184 125.617 50.1914 125.379 50.0508C125.145 49.9062 124.844 49.75 124.477 49.582C123.719 49.2422 123.221 48.9297 122.982 48.6445C122.604 48.2188 122.414 47.709 122.414 47.1152C122.414 46.834 122.459 46.5723 122.549 46.3301C122.639 46.0879 122.768 45.8691 122.936 45.6738C123.107 45.4746 123.318 45.3027 123.568 45.1582C123.818 45.0137 124.102 44.9004 124.418 44.8184V43.6699H125.443ZM132.076 46.2363V54H130.711V46.2363H128.631V44.9531H134.15V46.2363H132.076ZM140.191 51.8027H136.318L135.311 54H133.84L138.316 44.3848L142.635 54H141.141L140.191 51.8027ZM139.635 50.5195L138.293 47.4434L136.887 50.5195H139.635ZM145.137 44.9531V54H143.771V44.9531H145.137ZM150.697 54L152.602 44.2734L155.707 51.3047L158.924 44.2734L160.635 54H159.234L158.361 48.5391L155.684 54.416L153.082 48.5332L152.109 54H150.697ZM163.922 44.9531V54H162.557V44.9531H163.922ZM166.096 54V44.3379L172.693 51.2402V44.9531H174.059V54.5508L167.461 47.666V54H166.096ZM177.598 44.9531V54H176.232V44.9531H177.598ZM179.771 54V44.3379L186.369 51.2402V44.9531H187.734V54.5508L181.137 47.666V54H179.771ZM194.654 49.2891H198.393V49.5879C198.393 50.2676 198.312 50.8691 198.152 51.3926C197.996 51.877 197.732 52.3301 197.361 52.752C196.521 53.6973 195.453 54.1699 194.156 54.1699C192.891 54.1699 191.807 53.7129 190.904 52.7988C190.002 51.8809 189.551 50.7793 189.551 49.4941C189.551 48.1816 190.01 47.0684 190.928 46.1543C191.846 45.2363 192.963 44.7773 194.279 44.7773C194.986 44.7773 195.646 44.9219 196.26 45.2109C196.846 45.5 197.422 45.9688 197.988 46.6172L197.016 47.5488C196.273 46.5605 195.369 46.0664 194.303 46.0664C193.346 46.0664 192.543 46.3965 191.895 47.0566C191.246 47.7051 190.922 48.5176 190.922 49.4941C190.922 50.502 191.283 51.332 192.006 51.9844C192.682 52.5898 193.414 52.8926 194.203 52.8926C194.875 52.8926 195.479 52.666 196.014 52.2129C196.549 51.7559 196.848 51.209 196.91 50.5723H194.654V49.2891Z" fill="#65ACF3"/>
<defs>
<linearGradient id="paint0_linear_4049_13673" x1="40" y1="0" x2="40" y2="102" gradientUnits="userSpaceOnUse">
<stop stop-color="#65ACF3"/>
<stop offset="1" stop-color="#65ACF3" stop-opacity="0.2"/>
</linearGradient>
</defs>
</svg>
