<svg width="706" height="115" viewBox="0 0 706 115" fill="none" xmlns="http://www.w3.org/2000/svg">
<path d="M219.866 11.1925H181.789V20.6486H209.744C215.375 20.6486 219.866 25.177 219.866 30.7042V38.9617C219.866 44.5554 215.375 49.0171 209.744 49.0171H172.27V39.561H210.348V30.1048H182.392C176.761 30.1048 172.27 25.5765 172.27 20.0493V11.7918C172.27 6.19803 176.761 1.73633 182.392 1.73633H219.866V11.1925Z" fill="#000C01"/>
<path d="M266.025 1.73633C271.656 1.73633 276.215 6.19803 276.215 11.7918V38.9617C276.215 44.5554 271.656 49.0171 266.025 49.0171H236.73C231.099 49.0171 226.607 44.5554 226.607 38.9617V11.7918C226.607 6.19803 231.099 1.73633 236.73 1.73633H266.025ZM266.629 11.1925H236.127V39.561H266.629V11.1925Z" fill="#000C01"/>
<path d="M293.165 39.2271H330.304V49.4159H289.479C285.858 49.4159 282.909 46.4858 282.909 42.8897V1.33594H293.165V39.2271Z" fill="#000C01"/>
<path d="M378.346 1.73633C382.904 1.73633 386.592 5.33233 386.592 9.86063V49.0171H377.006V33.5011H346.503V49.0171H336.984V9.86063C336.984 5.33233 340.603 1.73633 345.162 1.73633H378.346ZM377.006 11.1925H346.503V24.0449H377.006V11.1925Z" fill="#000C01"/>
<path d="M433.307 1.73633H442.894V42.8906C442.894 46.2868 440.077 49.0171 436.659 49.0171H429.284C426.938 49.0838 424.86 47.8184 423.788 45.7541L405.286 11.1925H402.805V49.0171H393.286V7.92944C393.286 4.46662 396.034 1.73633 399.452 1.73633H407.229C409.508 1.73633 411.653 2.93499 412.725 4.99938L431.229 39.561H433.307V1.73633Z" fill="#000C01"/>
<path d="M490.949 1.73633C495.508 1.73633 499.195 5.33233 499.195 9.86063V49.0171H489.607V33.5011H459.105V49.0171H449.587V9.86063C449.587 5.33233 453.207 1.73633 457.765 1.73633H490.949ZM489.607 11.1925H459.105V24.0449H489.607V11.1925Z" fill="#000C01"/>
<path d="M218.928 73.4052H181.789V82.8614H218.928V92.3176H181.789V111.23H172.27V63.9492H218.928V73.4052Z" fill="#000C01"/>
<path d="M265.044 63.9492C270.675 63.9492 275.234 68.4108 275.234 74.0046V101.175C275.234 106.768 270.675 111.23 265.044 111.23H235.747C230.116 111.23 225.626 106.768 225.626 101.175V74.0046C225.626 68.4108 230.116 63.9492 235.747 63.9492H265.044ZM265.646 73.4052H235.144V101.774H265.646V73.4052Z" fill="#000C01"/>
<path d="M321.948 63.9492H331.536V95.3808C331.467 104.171 324.362 111.23 315.512 111.23H297.881C289.033 111.23 281.926 104.171 281.926 95.3808V63.9492H291.445V93.4497C291.445 98.0446 295.199 101.774 299.826 101.774H313.569C318.194 101.774 321.948 98.0446 321.948 93.4497V63.9492Z" fill="#000C01"/>
<path d="M378.249 63.9492H387.835V105.103C387.835 108.5 385.02 111.23 381.601 111.23H374.227C371.88 111.297 369.802 110.031 368.729 107.967L350.227 73.4052H347.747V111.23H338.227V70.1423C338.227 66.6794 340.977 63.9492 344.395 63.9492H352.172C354.45 63.9492 356.596 65.1479 357.669 67.2122L376.171 101.774H378.249V63.9492Z" fill="#000C01"/>
<path d="M428.115 63.9492C436.965 63.9492 444.07 71.0745 444.137 79.7981V95.3808C444.07 104.171 436.965 111.23 428.115 111.23H394.529V63.9492H428.115ZM434.551 81.7959C434.551 77.1344 430.797 73.4052 426.172 73.4052H404.048V101.774H426.172C430.797 101.774 434.551 98.0446 434.551 93.4497V81.7959Z" fill="#000C01"/>
<path d="M492.192 63.9492C496.751 63.9492 500.438 67.5451 500.438 72.0735V111.23H490.852V95.7139H460.35V111.23H450.831V72.0735C450.831 67.5451 454.45 63.9492 459.008 63.9492H492.192ZM490.852 73.4052H460.35V86.2577H490.852V73.4052Z" fill="#000C01"/>
<path d="M507.132 63.9492H554.728V73.4052H535.691V111.23H526.171V73.4052H507.132V63.9492Z" fill="#000C01"/>
<path d="M570.989 111.23H561.469V63.9492H570.989V111.23Z" fill="#000C01"/>
<path d="M617.124 63.9492C622.755 63.9492 627.313 68.4108 627.313 74.0046V101.175C627.313 106.768 622.755 111.23 617.124 111.23H587.827C582.196 111.23 577.706 106.768 577.706 101.175V74.0046C577.706 68.4108 582.196 63.9492 587.827 63.9492H617.124ZM617.727 73.4052H587.225V101.774H617.727V73.4052Z" fill="#000C01"/>
<path d="M674.027 63.9492H683.615V105.103C683.615 108.5 680.798 111.23 677.38 111.23H670.005C667.659 111.297 665.581 110.031 664.509 107.967L646.005 73.4052H643.525V111.23H634.007V70.1423C634.007 66.6794 636.755 63.9492 640.173 63.9492H647.95C650.23 63.9492 652.374 65.1479 653.446 67.2122L671.949 101.774H674.027V63.9492Z" fill="#000C01"/>
<mask id="mask0_10008_560" style="mask-type:luminance" maskUnits="userSpaceOnUse" x="0" y="3" width="124" height="110">
<path d="M123.074 3.06641H0V112.605H123.074V3.06641Z" fill="white"/>
</mask>
<g mask="url(#mask0_10008_560)">
<path d="M122.44 89.4299L102.123 111.113C101.682 111.584 101.147 111.96 100.553 112.217C99.9595 112.473 99.319 112.606 98.6716 112.605H2.35867C1.8991 112.605 1.44956 112.472 1.06526 112.221C0.680963 111.97 0.378653 111.613 0.195477 111.194C0.012298 110.774 -0.0437682 110.311 0.034166 109.86C0.1121 109.409 0.32064 108.991 0.634162 108.657L20.9665 86.9732C21.407 86.5034 21.9397 86.1286 22.5316 85.872C23.1236 85.6155 23.762 85.4824 24.4077 85.4812H120.715C121.175 85.4814 121.625 85.6149 122.009 85.8658C122.393 86.1166 122.695 86.4736 122.879 86.8929C123.062 87.3124 123.118 87.776 123.04 88.2267C122.962 88.6773 122.753 89.0956 122.44 89.4299ZM102.123 45.7657C101.682 45.2946 101.147 44.919 100.553 44.6625C99.9595 44.4059 99.319 44.2735 98.6716 44.2739H2.35867C1.8991 44.2739 1.44956 44.4076 1.06526 44.6583C0.680963 44.909 0.378653 45.2661 0.195477 45.6856C0.012298 46.1049 -0.0437682 46.5684 0.034166 47.0192C0.1121 47.47 0.32064 47.8881 0.634162 48.2225L20.9665 69.9059C21.407 70.3757 21.9397 70.7505 22.5316 71.0071C23.1236 71.2636 23.762 71.3968 24.4077 71.3977H120.715C121.175 71.3977 121.625 71.2642 122.009 71.0133C122.393 70.7626 122.695 70.4055 122.879 69.986C123.062 69.5667 123.118 69.1032 123.04 68.6524C122.962 68.2018 122.753 67.7835 122.44 67.4492L102.123 45.7657ZM2.35867 30.1904H98.6716C99.319 30.1906 99.9595 30.0584 100.553 29.8016C101.147 29.545 101.682 29.1695 102.123 28.6986L122.44 7.01502C122.753 6.68065 122.962 6.26243 123.04 5.81172C123.118 5.36101 123.062 4.89749 122.879 4.47806C122.695 4.05863 122.393 3.7016 122.009 3.45081C121.625 3.20003 121.175 3.06643 120.715 3.06641H24.4077C23.762 3.0675 23.1236 3.20047 22.5316 3.45707C21.9397 3.71367 21.407 4.08845 20.9665 4.55822L0.639404 26.2417C0.326183 26.5758 0.117737 26.9936 0.0396256 27.4437C-0.0384855 27.8939 0.0171358 28.357 0.199669 28.7762C0.3822 29.1955 0.683708 29.5526 1.06722 29.8037C1.45072 30.055 1.89956 30.1892 2.35867 30.1904Z" fill="#000C01"/>
</g>
</svg>
