<svg width="23" height="18" viewBox="0 0 23 18" fill="none" xmlns="http://www.w3.org/2000/svg">
<path d="M11.5 1.33313C6.91892 1.33313 3.71037 3.36968 3.71037 3.36968C5.47507 1.74044 8.54102 0.796225 8.54102 0.796225L8.25581 0.5C5.36812 0.555542 2.74781 2.62912 2.74781 2.62912C-0.193364 8.99797 0.00271389 14.5152 0.00271389 14.5152C2.3913 17.7366 5.95635 17.4959 5.95635 17.4959L7.16847 15.9037C5.02944 15.4224 3.67472 13.4599 3.67472 13.4599C3.67472 13.4599 6.88327 15.7371 11.5 15.7371C16.1168 15.7371 19.3253 13.4599 19.3253 13.4599C19.3253 13.4599 17.9706 15.4409 15.8316 15.9037L17.0437 17.4959C17.0437 17.4959 20.5909 17.7366 22.9973 14.5152C22.9973 14.5152 23.1934 9.01648 20.2344 2.62912C20.2344 2.62912 17.6141 0.555542 14.7264 0.5L14.4412 0.796225C14.4412 0.796225 17.525 1.74044 19.2718 3.36968C19.3075 3.36968 16.0811 1.33313 11.5 1.33313ZM7.97061 8.05375C9.07578 8.05375 9.98487 9.07202 9.96704 10.3125C9.96704 11.5344 9.07578 12.5712 7.97061 12.5712C6.88327 12.5712 5.99201 11.5344 5.99201 10.3125C5.99201 9.07202 6.84762 8.05375 7.97061 8.05375ZM15.1007 8.05375C16.2059 8.05375 17.0971 9.07202 17.0971 10.3125C17.0971 11.5344 16.2059 12.5712 15.1007 12.5712C14.0134 12.5712 13.1221 11.5344 13.1221 10.3125C13.1221 9.07202 13.9777 8.05375 15.1007 8.05375Z" fill="white"/>
</svg>
