<svg width="167" height="180" viewBox="0 0 167 180" fill="none" xmlns="http://www.w3.org/2000/svg">
<path fill-rule="evenodd" clip-rule="evenodd" d="M68 0H0V180H80V12L68 0Z" fill="url(#paint0_linear_4049_13673)"/>
<path d="M21.8184 12.6699V13.8184C22.2793 13.8926 22.6562 14.0449 22.9492 14.2754C23.2422 14.5059 23.5215 14.8594 23.7871 15.3359L22.6445 15.9746C22.3008 15.3496 21.8516 15.0371 21.2969 15.0371C20.9531 15.0371 20.668 15.1387 20.4414 15.3418C20.2148 15.5449 20.1016 15.7988 20.1016 16.1035C20.1016 16.3809 20.1934 16.6113 20.377 16.7949C20.5566 16.9746 20.9199 17.1875 21.4668 17.4336C21.9395 17.6484 22.3301 17.8516 22.6387 18.043C22.9473 18.2305 23.1797 18.4121 23.3359 18.5879C23.7773 19.0645 23.998 19.6406 23.998 20.3164C23.998 20.9805 23.7988 21.5664 23.4004 22.0742C23.0059 22.5781 22.4785 22.918 21.8184 23.0938V24.3066H20.793V23.1289C20.0273 23.0039 19.4434 22.7402 19.041 22.3379C18.6387 21.9355 18.3418 21.3145 18.1504 20.4746L19.4395 20.2051C19.6152 20.7988 19.8301 21.2227 20.084 21.4766C20.3496 21.7188 20.7031 21.8398 21.1445 21.8398C21.5742 21.8398 21.9336 21.7012 22.2227 21.4238C22.5078 21.1504 22.6504 20.7969 22.6504 20.3633C22.6504 19.9766 22.5312 19.666 22.293 19.4316C22.1719 19.3184 21.9922 19.1914 21.7539 19.0508C21.5195 18.9062 21.2188 18.75 20.8516 18.582C20.0938 18.2422 19.5957 17.9297 19.3574 17.6445C18.9785 17.2188 18.7891 16.709 18.7891 16.1152C18.7891 15.834 18.834 15.5723 18.9238 15.3301C19.0137 15.0879 19.1426 14.8691 19.3105 14.6738C19.4824 14.4746 19.6934 14.3027 19.9434 14.1582C20.1934 14.0137 20.4766 13.9004 20.793 13.8184V12.6699H21.8184ZM28.123 15.2305H26.5586L27.3086 13.9531H29.4883V23H28.123V15.2305ZM35.9336 13.6367L36.9355 14.3867L34.7734 17.3281C34.8906 17.3125 34.9902 17.3008 35.0723 17.293C35.1543 17.2852 35.2188 17.2812 35.2656 17.2812C36 17.2812 36.6348 17.5625 37.1699 18.125C37.7012 18.6797 37.9668 19.3477 37.9668 20.1289C37.9668 20.957 37.6699 21.668 37.0762 22.2617C36.4863 22.8516 35.7773 23.1465 34.9492 23.1465C34.1289 23.1465 33.4102 22.8555 32.793 22.2734C32.1875 21.6914 31.8848 21.002 31.8848 20.2051C31.8848 19.4902 32.1797 18.7324 32.7695 17.9316L35.9336 13.6367ZM36.6367 20.2168C36.6367 19.7363 36.4707 19.3301 36.1387 18.998C35.8027 18.6621 35.3984 18.4941 34.9258 18.4941C34.4492 18.4941 34.0449 18.6602 33.7129 18.9922C33.3809 19.3242 33.2148 19.7266 33.2148 20.1992C33.2148 20.6719 33.3809 21.0742 33.7129 21.4062C34.0449 21.7383 34.4512 21.9043 34.9316 21.9043C35.4004 21.9043 35.8008 21.7383 36.1328 21.4062C36.4688 21.0703 36.6367 20.6738 36.6367 20.2168ZM41.6348 21.7168H45.0039V23H38.9277L42.0684 19.1973C42.377 18.8184 42.6348 18.4902 42.8418 18.2129C43.0527 17.9355 43.2129 17.7031 43.3223 17.5156C43.5449 17.1484 43.6562 16.8184 43.6562 16.5254C43.6562 16.1035 43.5078 15.75 43.2109 15.4648C42.9141 15.1797 42.5469 15.0371 42.1094 15.0371C41.1953 15.0371 40.6719 15.5781 40.5391 16.6602H39.1797C39.3984 14.7539 40.3613 13.8008 42.0684 13.8008C42.8926 13.8008 43.584 14.0625 44.1426 14.5859C44.7051 15.1094 44.9863 15.7578 44.9863 16.5312C44.9863 17.0234 44.8555 17.5059 44.5938 17.9785C44.4609 18.2246 44.2656 18.5176 44.0078 18.8574C43.7539 19.1934 43.4316 19.5918 43.041 20.0527L41.6348 21.7168ZM50.8047 15.2305H46.3398V13.9531H53.084L47.377 23.3105L46.293 22.625L50.8047 15.2305ZM52.4629 22.3438C52.4629 22.125 52.543 21.9355 52.7031 21.7754C52.8633 21.6152 53.0547 21.5352 53.2773 21.5352C53.5 21.5352 53.6914 21.6152 53.8516 21.7754C54.0117 21.9355 54.0918 22.127 54.0918 22.3496C54.0918 22.5762 54.0117 22.7695 53.8516 22.9297C53.6953 23.0859 53.5039 23.1641 53.2773 23.1641C53.0469 23.1641 52.8535 23.0859 52.6973 22.9297C52.541 22.7734 52.4629 22.5781 52.4629 22.3438ZM57.8242 23.3105L56.8223 22.5664L58.9844 19.6191C58.8672 19.6348 58.7676 19.6465 58.6855 19.6543C58.6035 19.6621 58.5371 19.666 58.4863 19.666C57.7559 19.666 57.123 19.3867 56.5879 18.8281C56.0566 18.2734 55.791 17.6055 55.791 16.8242C55.791 15.9922 56.0859 15.2812 56.6758 14.6914C57.2695 14.0977 57.9805 13.8008 58.8086 13.8008C59.6328 13.8008 60.3496 14.0938 60.959 14.6797C61.5684 15.2617 61.873 15.9492 61.873 16.7422C61.873 17.4453 61.5762 18.2051 60.9824 19.0215L57.8242 23.3105ZM57.1211 16.7246C57.1211 17.2129 57.2871 17.623 57.6191 17.9551C57.9551 18.291 58.3594 18.459 58.832 18.459C59.3047 18.459 59.707 18.293 60.0391 17.9609C60.375 17.625 60.543 17.2207 60.543 16.748C60.543 16.2754 60.375 15.8711 60.0391 15.5352C59.707 15.2031 59.3027 15.0371 58.8262 15.0371C58.3574 15.0371 57.957 15.2031 57.625 15.5352C57.2891 15.8711 57.1211 16.2676 57.1211 16.7246Z" fill="black"/>
<path d="M94.848 10.524V11.976C95.712 12.064 96.44 12.296 97.032 12.672L96.144 14.4C95.632 14.008 95.128 13.812 94.632 13.812C94.328 13.812 94.08 13.884 93.888 14.028C93.696 14.164 93.6 14.32 93.6 14.496C93.6 14.656 93.676 14.808 93.828 14.952C93.98 15.096 94.18 15.212 94.428 15.3L95.136 15.54C95.928 15.812 96.5 16.148 96.852 16.548C97.204 16.94 97.38 17.452 97.38 18.084C97.38 18.468 97.336 18.808 97.248 19.104C97.16 19.4 97.016 19.664 96.816 19.896C96.616 20.128 96.352 20.332 96.024 20.508C95.704 20.684 95.312 20.844 94.848 20.988V22.476H93.744V21.048C93.496 21.048 93.232 21.02 92.952 20.964C92.672 20.9 92.396 20.82 92.124 20.724C91.852 20.62 91.596 20.504 91.356 20.376C91.124 20.24 90.932 20.1 90.78 19.956L91.752 18.144C92.504 18.808 93.236 19.14 93.948 19.14C94.244 19.14 94.5 19.06 94.716 18.9C94.94 18.74 95.052 18.532 95.052 18.276C95.052 17.924 94.792 17.664 94.272 17.496L93.588 17.28C93.18 17.152 92.832 17.012 92.544 16.86C92.256 16.708 92.02 16.532 91.836 16.332C91.652 16.132 91.516 15.908 91.428 15.66C91.34 15.404 91.296 15.112 91.296 14.784C91.296 14.44 91.344 14.108 91.44 13.788C91.544 13.468 91.696 13.184 91.896 12.936C92.104 12.68 92.36 12.468 92.664 12.3C92.968 12.124 93.328 12.016 93.744 11.976V10.524H94.848ZM105.776 21H98.4923L100.736 18.672C101.328 18.056 101.792 17.536 102.128 17.112C102.464 16.68 102.712 16.316 102.872 16.02C103.04 15.724 103.144 15.484 103.184 15.3C103.224 15.116 103.244 14.96 103.244 14.832C103.244 14.696 103.22 14.564 103.172 14.436C103.132 14.308 103.068 14.196 102.98 14.1C102.892 13.996 102.784 13.916 102.656 13.86C102.536 13.796 102.392 13.764 102.224 13.764C101.904 13.764 101.652 13.868 101.468 14.076C101.292 14.284 101.204 14.544 101.204 14.856C101.204 14.944 101.216 15.072 101.24 15.24H98.6723C98.6723 14.712 98.7563 14.232 98.9243 13.8C99.1003 13.368 99.3443 12.996 99.6562 12.684C99.9683 12.372 100.336 12.132 100.76 11.964C101.192 11.796 101.664 11.712 102.176 11.712C102.68 11.712 103.144 11.792 103.568 11.952C104 12.112 104.372 12.336 104.684 12.624C104.996 12.912 105.24 13.256 105.416 13.656C105.592 14.048 105.68 14.476 105.68 14.94C105.68 15.436 105.572 15.896 105.356 16.32C105.148 16.736 104.812 17.164 104.348 17.604L102.848 19.008H105.776V21ZM106.949 19.848C106.949 19.656 106.985 19.476 107.057 19.308C107.129 19.132 107.229 18.98 107.357 18.852C107.485 18.724 107.633 18.624 107.801 18.552C107.977 18.48 108.161 18.444 108.353 18.444C108.545 18.444 108.725 18.48 108.893 18.552C109.069 18.624 109.221 18.724 109.349 18.852C109.477 18.98 109.577 19.132 109.649 19.308C109.721 19.476 109.757 19.656 109.757 19.848C109.757 20.04 109.721 20.224 109.649 20.4C109.577 20.568 109.477 20.716 109.349 20.844C109.221 20.972 109.069 21.072 108.893 21.144C108.725 21.216 108.545 21.252 108.353 21.252C108.161 21.252 107.977 21.216 107.801 21.144C107.633 21.072 107.485 20.972 107.357 20.844C107.229 20.716 107.129 20.568 107.057 20.4C106.985 20.224 106.949 20.04 106.949 19.848ZM118.011 21H110.727L112.971 18.672C113.563 18.056 114.027 17.536 114.363 17.112C114.699 16.68 114.947 16.316 115.107 16.02C115.275 15.724 115.379 15.484 115.419 15.3C115.459 15.116 115.479 14.96 115.479 14.832C115.479 14.696 115.455 14.564 115.407 14.436C115.367 14.308 115.303 14.196 115.215 14.1C115.127 13.996 115.019 13.916 114.891 13.86C114.771 13.796 114.627 13.764 114.459 13.764C114.139 13.764 113.887 13.868 113.703 14.076C113.527 14.284 113.439 14.544 113.439 14.856C113.439 14.944 113.451 15.072 113.475 15.24H110.907C110.907 14.712 110.991 14.232 111.159 13.8C111.335 13.368 111.579 12.996 111.891 12.684C112.203 12.372 112.571 12.132 112.995 11.964C113.427 11.796 113.899 11.712 114.411 11.712C114.915 11.712 115.379 11.792 115.803 11.952C116.235 12.112 116.607 12.336 116.919 12.624C117.231 12.912 117.475 13.256 117.651 13.656C117.827 14.048 117.915 14.476 117.915 14.94C117.915 15.436 117.807 15.896 117.591 16.32C117.383 16.736 117.047 17.164 116.583 17.604L115.083 19.008H118.011V21ZM122.135 15.48C122.199 15.488 122.251 15.492 122.291 15.492C122.339 15.492 122.379 15.492 122.411 15.492C122.707 15.492 122.947 15.404 123.131 15.228C123.315 15.052 123.407 14.824 123.407 14.544C123.407 14.272 123.319 14.052 123.143 13.884C122.975 13.716 122.755 13.632 122.483 13.632C122.195 13.632 121.963 13.728 121.787 13.92C121.611 14.112 121.523 14.36 121.523 14.664H119.351C119.407 14.192 119.523 13.772 119.699 13.404C119.883 13.036 120.115 12.728 120.395 12.48C120.675 12.224 121.003 12.032 121.379 11.904C121.755 11.768 122.171 11.7 122.627 11.7C123.075 11.7 123.479 11.764 123.839 11.892C124.207 12.012 124.519 12.188 124.775 12.42C125.039 12.644 125.239 12.92 125.375 13.248C125.519 13.568 125.591 13.928 125.591 14.328C125.591 14.76 125.507 15.116 125.339 15.396C125.179 15.668 124.947 15.904 124.643 16.104C125.107 16.248 125.467 16.508 125.723 16.884C125.987 17.252 126.119 17.708 126.119 18.252C126.119 18.7 126.031 19.108 125.855 19.476C125.679 19.844 125.431 20.16 125.111 20.424C124.799 20.688 124.423 20.892 123.983 21.036C123.551 21.18 123.075 21.252 122.555 21.252C121.859 21.252 121.231 21.116 120.671 20.844C120.111 20.572 119.663 20.14 119.327 19.548C119.175 19.284 119.071 19.02 119.015 18.756C118.967 18.492 118.943 18.224 118.943 17.952H121.271C121.287 18.376 121.411 18.7 121.643 18.924C121.875 19.14 122.187 19.248 122.579 19.248C122.995 19.248 123.299 19.136 123.491 18.912C123.683 18.688 123.779 18.412 123.779 18.084C123.779 17.692 123.663 17.396 123.431 17.196C123.199 16.996 122.923 16.896 122.603 16.896C122.523 16.896 122.447 16.904 122.375 16.92C122.303 16.928 122.223 16.94 122.135 16.956V15.48ZM136.433 17.94C136.433 17.748 136.397 17.568 136.325 17.4C136.261 17.224 136.165 17.072 136.037 16.944C135.909 16.816 135.757 16.716 135.581 16.644C135.413 16.564 135.229 16.524 135.029 16.524C134.837 16.524 134.657 16.56 134.489 16.632C134.321 16.704 134.173 16.804 134.045 16.932C133.925 17.06 133.825 17.212 133.745 17.388C133.673 17.556 133.637 17.736 133.637 17.928C133.637 18.12 133.673 18.3 133.745 18.468C133.817 18.636 133.917 18.784 134.045 18.912C134.173 19.032 134.321 19.132 134.489 19.212C134.665 19.284 134.849 19.32 135.041 19.32C135.233 19.32 135.413 19.284 135.581 19.212C135.749 19.14 135.893 19.04 136.013 18.912C136.141 18.784 136.241 18.636 136.313 18.468C136.393 18.3 136.433 18.124 136.433 17.94ZM133.697 24.072H131.525V14.844H133.697V15.528C134.161 14.944 134.793 14.652 135.593 14.652C136.033 14.652 136.441 14.74 136.817 14.916C137.201 15.084 137.533 15.316 137.813 15.612C138.093 15.908 138.309 16.256 138.461 16.656C138.621 17.056 138.701 17.484 138.701 17.94C138.701 18.396 138.621 18.82 138.461 19.212C138.309 19.604 138.093 19.948 137.813 20.244C137.541 20.54 137.217 20.772 136.841 20.94C136.465 21.108 136.057 21.192 135.617 21.192C134.849 21.192 134.209 20.928 133.697 20.4V24.072ZM144.439 17.028C144.367 16.724 144.219 16.48 143.995 16.296C143.771 16.112 143.499 16.02 143.179 16.02C142.843 16.02 142.567 16.108 142.351 16.284C142.143 16.46 142.011 16.708 141.955 17.028H144.439ZM141.895 18.288C141.895 19.224 142.335 19.692 143.215 19.692C143.687 19.692 144.043 19.5 144.283 19.116H146.383C145.959 20.524 144.899 21.228 143.203 21.228C142.683 21.228 142.207 21.152 141.775 21C141.343 20.84 140.971 20.616 140.659 20.328C140.355 20.04 140.119 19.696 139.951 19.296C139.783 18.896 139.699 18.448 139.699 17.952C139.699 17.44 139.779 16.98 139.939 16.572C140.099 16.156 140.327 15.804 140.623 15.516C140.919 15.228 141.275 15.008 141.691 14.856C142.115 14.696 142.591 14.616 143.119 14.616C143.639 14.616 144.107 14.696 144.523 14.856C144.939 15.008 145.291 15.232 145.579 15.528C145.867 15.824 146.087 16.188 146.239 16.62C146.391 17.044 146.467 17.524 146.467 18.06V18.288H141.895ZM147.709 14.844H149.881V15.852C150.113 15.484 150.397 15.204 150.733 15.012C151.069 14.812 151.461 14.712 151.909 14.712C151.965 14.712 152.025 14.712 152.089 14.712C152.161 14.712 152.241 14.72 152.329 14.736V16.812C152.041 16.668 151.729 16.596 151.393 16.596C150.889 16.596 150.509 16.748 150.253 17.052C150.005 17.348 149.881 17.784 149.881 18.36V21H147.709V14.844ZM157.463 11.04H159.179L154.235 23.076H152.531L157.463 11.04ZM160.002 11.04H162.174V15.624C162.47 15.264 162.77 15.024 163.074 14.904C163.378 14.776 163.734 14.712 164.142 14.712C164.918 14.712 165.502 14.928 165.894 15.36C166.294 15.784 166.494 16.36 166.494 17.088V21H164.322V17.892C164.322 17.58 164.298 17.328 164.25 17.136C164.202 16.944 164.122 16.796 164.01 16.692C163.818 16.524 163.586 16.44 163.314 16.44C162.946 16.44 162.662 16.552 162.462 16.776C162.27 16.992 162.174 17.304 162.174 17.712V21H160.002V11.04Z" fill="white"/>
<defs>
<linearGradient id="paint0_linear_4049_13673" x1="40" y1="0" x2="40" y2="180" gradientUnits="userSpaceOnUse">
<stop stop-color="#12FDA0"/>
<stop offset="1" stop-color="#12FDA0" stop-opacity="0.2"/>
</linearGradient>
</defs>
</svg>
