<svg width="51" height="57" viewBox="0 0 51 57" fill="none" xmlns="http://www.w3.org/2000/svg">
<path fill-rule="evenodd" clip-rule="evenodd" d="M26.8783 1.27407C27.4358 2.2904 27.5495 4.1559 27.6534 5.86198C27.6793 6.28831 27.7048 6.70471 27.7365 7.09537C28.3392 14.5146 29.6251 23.4362 33.5708 28.0284C35.9886 30.8447 40.8081 31.97 45.8363 33.1436C46.2375 33.2372 46.6411 33.3316 47.0442 33.4269V33.4246C48.9111 33.8672 50.331 34.3186 50.6081 35.4337C45.326 36.5259 35.4982 37.6342 25.3055 37.9314C15.1118 37.6342 5.28276 36.5264 0 35.4341C0.277133 34.3191 1.69688 33.8672 3.56398 33.4251V33.4273C3.9671 33.332 4.37003 33.2381 4.77159 33.1441C9.79959 31.97 14.6195 30.8451 17.0373 28.0284C20.983 23.4362 22.2688 14.515 22.8716 7.09555C22.9033 6.70489 22.9288 6.28854 22.9547 5.86221C23.0576 4.17318 23.17 2.32776 23.7133 1.30489C23.9875 0.535148 24.5955 0 25.3012 0C25.9979 0 26.5988 0.520922 26.8783 1.27407ZM25.3059 56.0745C25.3753 56.0745 25.4447 56.0745 25.5141 56.0696C27.9942 55.9394 29.7072 52.7146 30.7646 50.7235L30.7924 50.6711C31.1361 50.0241 31.4604 49.3762 31.7799 48.7386C32.6829 46.9363 33.5449 45.2163 34.6797 43.8256C36.8095 41.2197 41.0687 39.7198 44.82 38.692C45.005 38.641 45.2859 38.5815 45.6262 38.5095C47.1934 38.1774 50.018 37.5797 50.5571 36.3187L50.5557 36.3192C50.2711 36.3733 38.5074 38.6262 25.3003 39.1806C12.0955 38.6258 0.335147 36.3738 0.0506495 36.3192H0.049137C0.588393 37.5797 3.41316 38.1779 4.97985 38.5095C5.32019 38.5815 5.60129 38.6414 5.78657 38.6925C9.53752 39.7198 13.7972 41.2201 15.9265 43.826C17.0618 45.2163 17.9233 46.9363 18.8263 48.7386C19.1458 49.3762 19.4701 50.0241 19.8142 50.6716L19.8421 50.7239C20.8995 52.7146 22.612 55.9398 25.0921 56.07C25.1624 56.0745 25.2328 56.0745 25.3036 56.0745H25.3059Z" fill="#16F195"/>
</svg>
