<svg width="1720" height="711" viewBox="0 0 1720 711" fill="none" xmlns="http://www.w3.org/2000/svg">
<mask id="mask0_8022_2134" style="mask-type:alpha" maskUnits="userSpaceOnUse" x="0" y="0" width="1720" height="711">
<path d="M0.5 0.5H1643.79L1719.5 76.7505V710.5H76.2062L0.5 635.248V0.5Z" fill="#090909" stroke="#28282B"/>
</mask>
<g mask="url(#mask0_8022_2134)">
<g opacity="0.04">
<mask id="path-2-inside-1_8022_2134" fill="white">
<path d="M1650.43 -342.232H1645.55L1646.17 -341.26C1646.21 -341.196 1646.26 -341.158 1646.31 -341.094L1680.36 -287.16H1614.44L1579.66 -342.232H1430.42L1431 -341.324L1398.02 -289.078L1364.46 -342.232H1359.57L1326.01 -289.078L1292.45 -342.232H1290H1287.6L1288.18 -341.324L1322.38 -287.16H1255.2L1220.43 -342.232H1215.55L1216.17 -341.26C1216.21 -341.196 1216.26 -341.158 1216.31 -341.094L1250.36 -287.16H1184.43L1149.66 -342.232H1000.42L1001.01 -341.324L968.024 -289.078L934.463 -342.232H929.568L896.008 -289.078L862.447 -342.232H860H857.605L858.183 -341.324L892.375 -287.16H825.203L790.432 -342.232H785.552L786.167 -341.26C786.206 -341.196 786.264 -341.158 786.31 -341.094L820.359 -287.16H754.43L719.659 -342.232H570.425L571.005 -341.324L538.024 -289.078L504.463 -342.232H499.569L466.008 -289.078L432.447 -342.232H430H427.603L462.375 -287.16H395.203L360.431 -342.232H355.552L356.167 -341.26C356.206 -341.196 356.262 -341.158 356.309 -341.094L390.359 -287.16H324.43L289.659 -342.232H140.425L141.005 -341.324L108.024 -289.078L74.464 -342.232H69.5686L36.0081 -289.078L2.4477 -342.232H0V-338.446L32.3752 -287.16H0V-283.297H32.3752L0 -232.005V-224.818L0.904026 -226.249H69.97L103.198 -173.611H0V-169.774H34.849L65.835 -120.689L69.5943 -114.733L36.0081 -61.5278L0 -118.569V-114.692V-110.896L32.3752 -59.6094H0V-55.7469H32.3756L0 -4.45923V2.72723L0.904026 1.29608H69.97L103.198 53.9343H0V57.7712H34.849L65.835 106.857L69.5943 112.813L36.0081 166.018L0 108.976V112.854V116.65L32.3752 167.936H0V171.798H32.3756L0 223.086V230.273L0.904026 228.841H69.97L103.198 281.48H0V285.317H34.849L65.835 334.403L69.5943 340.358L36.0081 393.563L0 336.521V340.399V344.195L32.3752 395.481H0V399.345H32.3752L0 450.631V457.819L0.904573 456.385H69.9695L103.198 509.025H0V512.862H34.849L69.5943 567.903L36.0081 621.108L0 564.066V567.944V571.74L32.3752 623.027H0V626.89H32.3752L0 678.177V685.365L0.904573 683.932H69.9695L103.198 736.57H0V740.407H34.849L69.5943 795.449L36.0081 848.654L0 791.612V795.49V799.286L32.3752 850.572H0V854.436H32.3752L0 905.722V912.909L0.904026 911.477H69.9695L103.198 964.115H0V967.952H34.849L69.5943 1022.99L69.5686 1023.03H74.4645L39.6935 967.952H105.654L140.425 1023.03H289.659L289.642 1023.01L322.589 970.816L355.552 1023.03H360.431L360.424 1023.02L394.01 969.817L427.603 1023.03H430H432.449L397.678 967.952H464.849L499.594 1022.99L499.569 1023.03H504.465L469.694 967.952H535.654L570.426 1023.03H719.659L719.642 1023.01L752.59 970.816L785.552 1023.03H790.432L790.424 1023.02L824.01 969.817L857.605 1023.03H860H862.447L827.677 967.952H894.849L929.594 1022.99L929.568 1023.03H934.463L899.693 967.952H965.654L1000.42 1023.03H1149.66L1149.64 1023.01L1182.59 970.816L1215.55 1023.03H1220.43L1220.42 1023.02L1254.01 969.817L1287.6 1023.03H1290H1292.45L1257.68 967.952H1324.85L1359.59 1022.99L1359.57 1023.03H1364.46L1329.69 967.952H1395.65L1430.42 1023.03H1579.66L1579.65 1023.01L1612.59 970.816L1645.55 1023.03H1650.43L1650.42 1023.02L1684.01 969.817L1717.61 1023.03H1720V1019.16L1687.67 967.952H1720V964.115H1687.67L1720 912.909V905.722L1718.78 907.64H1650.46L1616.87 854.436H1720V850.572H1685.21L1650.42 795.476L1684.01 742.271L1718.18 796.408L1720 799.286V795.49V791.612L1687.67 740.407H1720V736.57H1687.67L1720 685.365V678.177L1718.78 680.095H1650.46L1616.87 626.89H1720V623.027H1685.21L1650.42 567.93L1684.01 514.725L1718.18 568.863L1720 571.739V567.944V564.066L1687.67 512.862H1720V509.025H1687.67L1720 457.819V450.631L1718.78 452.549H1650.46L1616.87 399.345H1720V395.481H1685.21L1650.42 340.385L1684.01 287.18L1718.18 341.317L1720 344.194V340.399V336.521L1687.67 285.317H1720V281.48H1687.67L1720 230.273V223.086L1718.78 225.005H1650.46L1616.87 171.798H1720V167.936H1685.21L1650.42 112.84L1684.01 59.6347L1718.18 113.772L1720 116.65V112.854V108.976L1687.67 57.7712H1720V53.9343H1687.67L1720 2.72723V-4.45923L1718.78 -2.54077H1650.46L1616.87 -55.7456L1720 -55.7469V-59.6094H1685.21L1650.42 -114.706L1684.01 -167.911L1718.18 -113.773L1720 -110.896V-114.692V-118.569L1687.67 -169.774H1720V-173.611H1687.67L1720 -224.818V-232.005L1718.78 -230.086H1650.46L1616.87 -283.297H1720V-287.16H1685.21L1650.43 -342.232ZM1576.22 -340.019L1609.44 -287.377H1472.67L1505.91 -340.019H1576.22ZM1537.37 -169.52L1503.78 -116.313H1434.24L1400.65 -169.518L1537.37 -169.52ZM1470.21 -173.382L1435.42 -228.479L1469.01 -281.686L1503.18 -227.546L1537.37 -173.382H1470.21ZM1322.38 171.798L1288.79 225.005H1220.46L1186.87 171.798H1322.38ZM1255.2 167.936L1220.42 112.84L1254.01 59.6347L1288.18 113.772L1322.38 167.936H1255.2ZM464.849 285.317L495.835 334.403L499.594 340.358L466.008 393.563L397.678 285.317H464.849ZM397.675 281.48L430.903 228.841H499.97L533.199 281.48H397.675ZM502.016 344.22L535.602 397.427L500.805 452.549H433.633L502.016 344.22ZM469.694 285.317H535.654L571.005 341.317L538.024 393.563L469.694 285.317ZM681.008 279.79L612.678 171.544H679.849L714.594 226.585L681.008 279.79ZM717.016 230.448L750.602 283.653L715.805 338.776H648.633L717.016 230.448ZM677.375 281.709H610.203L575.424 226.613L609.01 173.407L677.375 281.709ZM677.375 285.571L643.789 338.776H574.245L540.659 285.571H677.375ZM575.031 342.613H640.994L572.984 450.35L540.003 398.103L575.031 342.613ZM609.01 400.953L677.375 509.254H610.203L575.424 454.159L609.01 400.953ZM612.678 399.089H679.849L714.594 454.131L681.008 507.336L612.678 399.089ZM612.675 395.252L645.905 342.613H716.212L749.443 395.252H612.675ZM719.642 340.372L752.588 288.18L786.167 341.374C786.206 341.436 786.264 341.485 786.31 341.542L820.359 395.481H754.431L719.642 340.372ZM827.677 285.317H894.849L929.594 340.358L896.008 393.563L827.677 285.317ZM892.375 395.481H825.203L790.424 340.385L824.01 287.18L858.183 341.317L892.375 395.481ZM827.675 281.48L860.903 228.841H929.97L963.199 281.48H827.675ZM787.984 336.577L755.003 284.329L790.03 228.841H855.992L787.984 336.577ZM892.375 399.345L858.789 452.549H790.456L756.871 399.345H892.375ZM932.016 344.22L965.602 397.427L930.805 452.549H863.633L932.016 344.22ZM899.693 285.317H965.654L1001.01 341.316L968.024 393.563L899.693 285.317ZM1111.01 279.79L1042.68 171.544H1109.85L1144.59 226.585L1111.01 279.79ZM1147.02 230.448L1180.6 283.653L1145.81 338.776H1078.63L1147.02 230.448ZM1073.18 227.545L1107.38 281.709H1040.2L1005.42 226.612L1039.01 173.407L1073.18 227.545ZM1107.38 285.571L1073.79 338.776H1004.25L970.659 285.571H1107.38ZM1005.03 342.613H1070.99L1002.98 450.35L970.003 398.102L1005.03 342.613ZM1039.01 400.953L1073.18 455.09L1107.38 509.254H1040.2L1005.42 454.158L1039.01 400.953ZM1042.68 399.089H1109.85L1144.59 454.131L1111.01 507.336L1042.68 399.089ZM1042.68 395.252L1075.9 342.613H1146.21L1179.44 395.252H1042.68ZM1149.64 340.372L1182.59 288.18L1216.17 341.374C1216.21 341.436 1216.26 341.485 1216.31 341.542L1250.36 395.481H1184.43L1149.64 340.372ZM1322.38 399.345L1288.79 452.549H1220.46L1186.87 399.345H1322.38ZM1255.2 395.481L1220.42 340.385L1254.01 287.18L1288.18 341.317L1322.38 395.481H1255.2ZM1217.98 336.577L1185 284.329L1220.03 228.841H1285.99L1217.98 336.577ZM1216.61 226.585L1183.02 279.79L1114.69 171.544H1181.87L1216.61 226.585ZM1042.68 167.707L1075.9 115.069H1146.21L1179.44 167.707H1042.68ZM1002.98 222.805L970.003 170.557L1005.03 115.069H1070.99L1002.98 222.805ZM1001.17 227.601C1001.21 227.663 1001.26 227.712 1001.31 227.77L1035.36 281.709H968.187L934.021 227.584L967.588 174.406L1001.17 227.601ZM930.805 225.005H863.633L932.016 116.675L965.602 169.88L930.805 225.005ZM896.008 166.018L827.677 57.7712H894.849L929.594 112.813L896.008 166.018ZM858.183 113.772L892.375 167.936H825.203L790.424 112.84L824.01 59.6347L858.183 113.772ZM892.375 171.798L858.789 225.005H790.456L756.87 171.798H892.375ZM786.611 226.585L753.024 279.79L684.694 171.544H751.865L786.611 226.585ZM612.675 167.707L645.903 115.069H716.214L749.443 167.707H612.675ZM572.984 222.805L540.002 170.558L575.03 115.069H640.992L572.984 222.805ZM571.167 227.601C571.206 227.662 571.262 227.711 571.308 227.767L605.359 281.709H538.187L504.02 227.584L537.588 174.406L571.167 227.601ZM500.805 225.005H433.633L502.016 116.675L535.602 169.88L500.805 225.005ZM466.008 166.018L397.678 57.7712H464.849L495.835 106.857L499.594 112.813L466.008 166.018ZM462.375 167.936H395.203L360.424 112.841L394.01 59.6347L462.375 167.936ZM462.375 171.798L428.789 225.005H360.456L326.87 171.798H462.375ZM425.992 228.841L357.984 336.577L325.002 284.33L360.03 228.841H425.992ZM394.01 287.18L462.375 395.481H395.203L360.424 340.386L394.01 287.18ZM462.375 399.345L428.789 452.549H360.456L326.871 399.345H462.375ZM425.994 456.385L357.984 564.123L325.003 511.876L360.031 456.385H425.994ZM394.01 514.725L462.375 623.027H395.203L360.424 567.931L394.01 514.725ZM397.678 512.862H464.849L499.594 567.903L466.008 621.108L397.678 512.862ZM397.675 509.025L430.905 456.385H499.969L533.197 509.025H397.675ZM504.02 455.13L537.589 401.953L571.167 455.146C571.206 455.208 571.262 455.257 571.308 455.314L605.359 509.254H538.187L504.02 455.13ZM677.375 513.118L643.789 566.323H574.245L540.659 513.118H677.375ZM717.016 457.993L750.602 511.199L715.805 566.323H648.633L717.016 457.993ZM684.694 399.089H751.865L786.611 454.131L753.024 507.336L684.694 399.089ZM790.031 456.385H855.994L787.984 564.123L755.003 511.875L790.031 456.385ZM824.01 514.725L858.183 568.863L892.375 623.027H825.203L790.424 567.93L824.01 514.725ZM827.677 512.862H894.849L929.594 567.903L896.008 621.108L827.677 512.862ZM827.675 509.025L860.905 456.385H929.969L963.197 509.025H827.675ZM934.02 455.13L967.59 401.953L1001.17 455.146C1001.21 455.209 1001.26 455.257 1001.31 455.315L1035.36 509.254H968.187L934.02 455.13ZM1107.38 513.118L1073.79 566.323H1004.25L970.659 513.118H1107.38ZM1147.02 457.993L1180.6 511.199L1145.81 566.323H1078.63L1147.02 457.993ZM1114.69 399.089H1181.87L1216.61 454.131L1183.02 507.336L1114.69 399.089ZM1220.03 456.385H1285.99L1217.98 564.123L1185 511.875L1220.03 456.385ZM1254.01 514.725L1288.18 568.863L1322.38 623.027H1255.2L1220.42 567.93L1254.01 514.725ZM1257.68 512.862H1324.85L1359.59 567.903L1326.01 621.108L1257.68 512.862ZM1257.68 509.025L1290.9 456.385H1359.97L1393.2 509.025H1257.68ZM1293.63 452.549L1362.02 344.22L1395.6 397.427L1360.81 452.549H1293.63ZM1326.01 393.563L1257.68 285.317H1324.85L1359.59 340.358L1326.01 393.563ZM1257.68 281.48L1290.9 228.841H1359.97L1393.2 281.48H1257.68ZM1293.63 225.005L1362.02 116.675L1395.6 169.88L1360.81 225.005H1293.63ZM1326.01 166.018L1257.68 57.7712H1324.85L1359.59 112.813L1326.01 166.018ZM1257.68 53.9343L1290.9 1.29608H1359.97L1393.2 53.9343H1257.68ZM1217.98 109.031L1185 56.7839L1220.03 1.29608H1285.99L1217.98 109.031ZM1216.17 113.827C1216.21 113.891 1216.26 113.939 1216.31 113.996L1250.36 167.936H1184.43L1149.64 112.827L1182.59 60.6335L1216.17 113.827ZM1145.81 111.232H1078.63L1147.02 2.90247L1180.6 56.1073L1145.81 111.232ZM1111.01 52.2448L1042.68 -56.0013H1109.85L1144.59 -0.960022L1111.01 52.2448ZM1073.18 -0.000793457L1107.38 54.1633H1040.2L1005.42 -0.933167L1039.01 -54.1381L1073.18 -0.000793457ZM1107.38 58.0258L1073.79 111.232H1004.25L970.659 58.027L1107.38 58.0258ZM1001.01 113.771L968.024 166.018L899.693 57.7712H965.654L1001.01 113.771ZM827.675 53.9343L860.903 1.29608H929.97L963.199 53.9343H827.675ZM787.984 109.031L755.003 56.7839L790.03 1.29608H855.992L787.984 109.031ZM786.167 113.827C786.206 113.891 786.264 113.939 786.31 113.996L820.359 167.936H754.43L719.642 112.827L752.588 60.6335L786.167 113.827ZM715.805 111.232H648.633L717.016 2.90247L750.602 56.1073L715.805 111.232ZM681.008 52.2448L612.678 -56.0013H679.849L714.594 -0.960022L681.008 52.2448ZM677.375 54.1633H610.203L575.424 -0.931885L609.01 -54.1381L677.375 54.1633ZM677.375 58.0258L643.789 111.232H574.245L540.659 58.027L677.375 58.0258ZM571.005 113.772L538.024 166.018L469.694 57.7712H535.654L571.005 113.772ZM397.675 53.9343L430.903 1.29608H499.97L533.199 53.9343H397.675ZM357.984 109.031L325.002 56.7851L360.03 1.29608H425.992L357.984 109.031ZM356.167 113.827C356.206 113.89 356.262 113.938 356.309 113.994L390.359 167.936H324.43L289.642 112.827L322.588 60.6335L356.167 113.827ZM356.611 226.585L323.024 279.79L254.694 171.544H321.865L356.611 226.585ZM356.167 341.374C356.206 341.435 356.262 341.483 356.309 341.54L390.359 395.481H324.431L289.642 340.372L322.588 288.18L356.167 341.374ZM356.611 454.131L323.024 507.336L254.694 399.089H321.865L356.611 454.131ZM356.167 568.919C356.206 568.98 356.262 569.03 356.309 569.086L390.359 623.027H324.431L289.642 567.917L322.589 515.725L356.167 568.919ZM462.375 626.89L428.789 680.095H360.456L326.871 626.89H462.375ZM502.016 571.766L535.602 624.972L500.805 680.095H433.633L502.016 571.766ZM469.694 512.862H535.654L571.005 568.863L538.024 621.108L469.694 512.862ZM575.031 570.159H640.994L572.984 677.895L540.003 625.648L575.031 570.159ZM609.01 628.498L677.375 736.799H610.203L575.424 681.704L609.01 628.498ZM612.678 626.635H679.849L714.594 681.676L681.008 734.881L612.678 626.635ZM612.675 622.798L645.905 570.159H716.212L749.443 622.798H612.675ZM719.642 567.917L752.59 515.725L786.167 568.919C786.208 568.982 786.264 569.03 786.31 569.088L820.359 623.027H754.431L719.642 567.917ZM892.375 626.89L858.789 680.095H790.456L756.871 626.89H892.375ZM932.016 571.766L965.602 624.972L930.805 680.095H863.633L932.016 571.766ZM899.693 512.862H965.654L1001.01 568.861L968.024 621.108L899.693 512.862ZM1005.03 570.159H1070.99L1002.98 677.895L970.003 625.647L1005.03 570.159ZM1039.01 628.498L1073.18 682.635L1107.38 736.799H1040.2L1005.42 681.703L1039.01 628.498ZM1042.68 626.635H1109.85L1144.59 681.676L1111.01 734.881L1042.68 626.635ZM1042.68 622.798L1075.9 570.159H1146.21L1179.44 622.798H1042.68ZM1149.64 567.917L1182.59 515.725L1216.17 568.919C1216.21 568.982 1216.26 569.03 1216.31 569.088L1250.36 623.027H1184.43L1149.64 567.917ZM1322.38 626.89L1288.79 680.095H1220.46L1186.87 626.89H1322.38ZM1362.02 571.766L1395.6 624.972L1360.81 680.095H1293.63L1362.02 571.766ZM1329.69 512.862H1395.65L1431 568.861L1398.02 621.108L1329.69 512.862ZM1364.02 455.13L1397.59 401.953L1431.17 455.146C1431.21 455.209 1431.26 455.257 1431.31 455.315L1465.36 509.254H1398.19L1364.02 455.13ZM1329.69 285.317H1395.65L1431 341.316L1398.02 393.563L1329.69 285.317ZM1364.02 227.584L1397.59 174.406L1431.17 227.601C1431.21 227.663 1431.26 227.712 1431.31 227.77L1465.36 281.709H1398.19L1364.02 227.584ZM1329.69 57.7712H1395.65L1431 113.771L1398.02 166.018L1329.69 57.7712ZM1364.02 0.0388184L1397.59 -53.1378L1431.17 0.0541992C1431.21 0.118164 1431.26 0.166748 1431.31 0.223022L1465.36 54.1633H1398.19L1364.02 0.0388184ZM1360.81 -2.54077H1293.63L1362.02 -110.87L1395.6 -57.6641L1360.81 -2.54077ZM1326.01 -61.5278L1257.68 -169.774H1324.85L1359.59 -114.733L1326.01 -61.5278ZM1288.18 -113.773L1322.38 -59.6094H1255.2L1220.42 -114.706L1254.01 -167.911L1288.18 -113.773ZM1322.38 -55.7469L1288.79 -2.54077H1220.46L1186.87 -55.7456L1322.38 -55.7469ZM1216.61 -0.960022L1183.02 52.2448L1114.69 -56.0013H1181.87L1216.61 -0.960022ZM1042.68 -59.8383L1075.9 -112.477H1146.21L1179.44 -59.8383H1042.68ZM1002.98 -4.74194L970.003 -56.9889L1005.03 -112.477H1070.99L1002.98 -4.74194ZM1001.17 0.0541992C1001.21 0.118164 1001.26 0.166748 1001.31 0.223022L1035.36 54.1633H968.187L934.021 0.0388184L967.59 -53.1378L1001.17 0.0541992ZM930.805 -2.54077H863.633L932.016 -110.87L965.602 -57.6641L930.805 -2.54077ZM896.008 -61.5278L827.677 -169.774H894.849L929.594 -114.733L896.008 -61.5278ZM858.183 -113.773L892.375 -59.6094H825.203L790.424 -114.706L824.01 -167.911L858.183 -113.773ZM892.375 -55.7469L858.789 -2.54077H790.456L756.87 -55.7456L892.375 -55.7469ZM786.611 -0.960022L753.024 52.2448L684.694 -56.0013H751.865L786.611 -0.960022ZM612.675 -59.8383L645.903 -112.477H716.214L749.443 -59.8383H612.675ZM572.984 -4.74194L540.002 -56.9874L575.03 -112.477H640.992L572.984 -4.74194ZM571.167 0.0541992C571.206 0.116882 571.262 0.165466 571.308 0.221741L605.359 54.1633H538.187L504.02 0.0388184L537.589 -53.1378L571.167 0.0541992ZM500.805 -2.54077H433.633L502.016 -110.87L535.602 -57.6641L500.805 -2.54077ZM466.008 -61.5278L397.678 -169.774H464.849L495.835 -120.689L499.594 -114.733L466.008 -61.5278ZM462.375 -59.6094H395.203L360.424 -114.704L394.01 -167.911L462.375 -59.6094ZM462.375 -55.7469L428.789 -2.54077H360.456L326.87 -55.7456L462.375 -55.7469ZM356.611 -0.960022L323.024 52.2448L254.694 -56.0013H321.865L356.611 -0.960022ZM182.675 -59.8383L215.903 -112.477H286.214L319.442 -59.8383H182.675ZM249.849 -56.0013L280.835 -6.91614L284.594 -0.960022L251.008 52.2448L182.678 -56.0013H249.849ZM287.016 2.90247L320.602 56.1073L285.805 111.232H218.633L287.016 2.90247ZM286.214 115.069L319.442 167.707H182.675L215.903 115.069H286.214ZM249.849 171.544L280.835 220.629L284.594 226.585L251.008 279.79L182.678 171.544H249.849ZM287.016 230.448L320.602 283.653L285.805 338.776H218.633L287.016 230.448ZM286.212 342.613L319.442 395.252H182.675L215.905 342.613H286.212ZM249.849 399.089L284.594 454.131L251.008 507.336L182.678 399.089H249.849ZM287.016 457.993L320.602 511.199L285.805 566.323H218.633L287.016 457.993ZM286.212 570.159L319.442 622.798H182.675L215.905 570.159H286.212ZM249.849 626.635L284.594 681.676L251.008 734.881L182.678 626.635H249.849ZM287.016 685.54L320.602 738.745L285.805 793.868H218.633L287.016 685.54ZM254.694 626.635H321.865L356.611 681.676L323.024 734.881L254.694 626.635ZM360.031 683.932H425.994L357.984 791.668L325.003 739.421L360.031 683.932ZM394.01 742.271L462.375 850.572H395.203L360.424 795.477L394.01 742.271ZM397.678 740.407H464.849L499.594 795.449L466.008 848.654L397.678 740.407ZM397.675 736.57L430.905 683.932H499.969L533.197 736.57H397.675ZM504.02 682.675L537.589 629.498L571.167 682.691C571.206 682.753 571.262 682.803 571.308 682.859L605.359 736.799H538.187L504.02 682.675ZM677.375 740.663L643.789 793.868H574.245L540.659 740.663H677.375ZM717.016 685.54L750.602 738.745L715.805 793.868H648.633L717.016 685.54ZM684.694 626.635H751.865L786.611 681.676L753.024 734.881L684.694 626.635ZM790.031 683.932H855.994L787.984 791.668L755.003 739.42L790.031 683.932ZM824.01 742.271L858.183 796.408L892.375 850.572H825.203L790.424 795.476L824.01 742.271ZM827.677 740.407H894.849L929.594 795.449L896.008 848.654L827.677 740.407ZM827.675 736.57L860.905 683.932H929.969L963.197 736.57H827.675ZM934.02 682.675L967.59 629.498L1001.17 682.691C1001.21 682.754 1001.26 682.804 1001.31 682.86L1035.36 736.799H968.187L934.02 682.675ZM1107.38 740.663L1073.79 793.868H1004.25L970.659 740.663H1107.38ZM1147.02 685.54L1180.6 738.745L1145.81 793.868H1078.63L1147.02 685.54ZM1114.69 626.635H1181.87L1216.61 681.676L1183.02 734.881L1114.69 626.635ZM1220.03 683.932H1285.99L1217.98 791.668L1185 739.42L1220.03 683.932ZM1254.01 742.271L1288.18 796.408L1322.38 850.572H1255.2L1220.42 795.476L1254.01 742.271ZM1257.68 740.407H1324.85L1359.59 795.449L1326.01 848.654L1257.68 740.407ZM1257.68 736.57L1290.9 683.932H1359.97L1393.2 736.57H1257.68ZM1364.02 682.675L1397.59 629.498L1431.17 682.691C1431.21 682.754 1431.26 682.804 1431.31 682.86L1465.36 736.799H1398.19L1364.02 682.675ZM1537.37 740.663L1503.78 793.868H1434.24L1400.65 740.663H1537.37ZM1470.21 736.799L1435.42 681.703L1469.01 628.498L1503.18 682.635L1537.37 736.799H1470.21ZM1432.98 677.895L1400 625.647L1435.03 570.159H1501L1432.98 677.895ZM1434.24 566.323L1400.65 513.118H1537.37L1503.78 566.323H1434.24ZM1470.21 509.254L1435.42 454.158L1469.01 400.953L1503.18 455.09L1537.37 509.254H1470.21ZM1432.98 450.35L1400 398.102L1435.03 342.613H1501L1432.98 450.35ZM1434.24 338.776L1400.65 285.571H1537.37L1503.78 338.776H1434.24ZM1470.21 281.709L1435.42 226.612L1469.01 173.407L1503.18 227.545L1537.37 281.709H1470.21ZM1432.98 222.805L1400 170.557L1435.03 115.069H1500.99L1432.98 222.805ZM1434.24 111.232L1400.65 58.027L1537.37 58.0258L1503.78 111.232H1434.24ZM1470.21 54.1633L1435.42 -0.933167L1469.01 -54.1381L1503.18 -0.000793457L1537.37 54.1633H1470.21ZM1432.98 -4.74194L1400 -56.9889L1435.03 -112.477H1500.99L1432.98 -4.74194ZM1431 -113.773L1398.02 -61.5278L1329.69 -169.774H1395.65L1431 -113.773ZM1257.68 -173.611L1290.9 -226.249H1359.97L1393.2 -173.611H1257.68ZM1217.98 -118.515L1185 -170.761L1220.03 -226.249H1285.99L1217.98 -118.515ZM1216.17 -113.718C1216.21 -113.655 1216.26 -113.606 1216.31 -113.55L1250.36 -59.6094H1184.43L1149.64 -114.719L1182.59 -166.911L1216.17 -113.718ZM1145.81 -116.313H1078.63L1147.02 -224.643L1180.6 -171.437L1145.81 -116.313ZM1111.01 -175.301L1042.68 -283.54H1109.85L1144.59 -228.505L1111.01 -175.301ZM1073.18 -227.546L1107.38 -173.382H1040.2L1005.42 -228.479L1039.01 -281.686L1073.18 -227.546ZM1107.38 -169.52L1073.79 -116.313H1004.25L970.659 -169.518L1107.38 -169.52ZM1001.01 -113.773L968.024 -61.5278L899.693 -169.774H965.654L1001.01 -113.773ZM827.675 -173.611L860.903 -226.249H929.97L963.199 -173.611H827.675ZM787.984 -118.515L755.003 -170.761L790.03 -226.249H855.992L787.984 -118.515ZM786.167 -113.718C786.206 -113.655 786.264 -113.606 786.31 -113.55L820.359 -59.6094H754.43L719.642 -114.719L752.59 -166.911L786.167 -113.718ZM715.805 -116.313H648.633L717.016 -224.643L750.602 -171.437L715.805 -116.313ZM681.008 -175.301L612.678 -283.54H679.849L714.594 -228.505L681.008 -175.301ZM677.375 -173.382H610.203L575.424 -228.479L609.01 -281.686L677.375 -173.382ZM677.375 -169.52L643.789 -116.313H574.245L540.659 -169.518L677.375 -169.52ZM571.005 -113.773L538.024 -61.5278L469.694 -169.774H535.654L571.005 -113.773ZM397.675 -173.611L430.903 -226.249H499.97L533.199 -173.611H397.675ZM357.984 -118.515L325.002 -170.76L360.03 -226.249H425.992L357.984 -118.515ZM356.167 -113.718C356.206 -113.656 356.262 -113.607 356.309 -113.551L390.359 -59.6094H324.43L289.642 -114.719L322.589 -166.911L356.167 -113.718ZM285.805 -116.313H218.633L287.016 -224.643L320.602 -171.437L285.805 -116.313ZM251.008 -175.301L182.678 -283.54H249.849L280.835 -234.462L284.594 -228.505L251.008 -175.301ZM247.375 -173.382H180.203L145.424 -228.479L179.01 -281.686L247.375 -173.382ZM247.375 -169.52L213.789 -116.313H144.245L110.659 -169.518L247.375 -169.52ZM145.03 -112.477H210.992L142.984 -4.74194L110.002 -56.9874L145.03 -112.477ZM179.01 -54.1381L247.375 54.1633H180.203L145.424 -0.931885L179.01 -54.1381ZM247.375 58.0258L213.789 111.232H144.245L110.659 58.027L247.375 58.0258ZM145.03 115.069H210.992L142.984 222.805L110.002 170.558L145.03 115.069ZM179.01 173.407L247.375 281.709H180.203L145.424 226.613L179.01 173.407ZM247.375 285.571L213.789 338.776H144.245L110.659 285.571H247.375ZM145.031 342.613H210.994L142.984 450.35L110.003 398.103L145.031 342.613ZM179.01 400.953L247.375 509.254H180.203L145.424 454.159L179.01 400.953ZM247.375 513.118L213.789 566.323H144.245L110.659 513.118H247.375ZM145.031 570.159H210.994L142.984 677.895L110.003 625.648L145.031 570.159ZM179.01 628.498L247.375 736.799H180.203L145.424 681.704L179.01 628.498ZM247.375 740.663L213.789 793.868H144.245L110.659 740.663H247.375ZM145.031 797.705H210.994L142.984 905.441L110.003 853.194L145.031 797.705ZM179.01 856.043L247.375 964.345H180.203L145.424 909.249L179.01 856.043ZM182.678 854.18H249.849L284.594 909.221L251.008 962.427L182.678 854.18ZM182.675 850.343L215.903 797.705H286.212L319.442 850.343H182.675ZM289.642 795.463L322.589 743.271L356.167 796.464C356.206 796.526 356.262 796.575 356.309 796.632L390.359 850.572H324.431L289.642 795.463ZM462.375 854.436L428.789 907.64H360.456L326.871 854.436H462.375ZM502.016 799.311L535.602 852.517L500.805 907.64H433.633L502.016 799.311ZM469.694 740.407H535.654L571.005 796.408L538.024 848.654L469.694 740.407ZM575.031 797.705H640.994L572.984 905.441L540.003 853.194L575.031 797.705ZM609.01 856.043L677.375 964.345H610.203L575.424 909.249L609.01 856.043ZM612.678 854.18H679.849L714.594 909.221L681.008 962.427L612.678 854.18ZM612.675 850.343L645.903 797.705H716.212L749.443 850.343H612.675ZM719.642 795.463L752.59 743.271L786.167 796.464C786.208 796.527 786.264 796.577 786.31 796.633L820.359 850.572H754.431L719.642 795.463ZM892.375 854.436L858.789 907.64H790.456L756.871 854.436H892.375ZM932.016 799.311L965.602 852.517L930.805 907.64H863.633L932.016 799.311ZM899.693 740.407H965.654L1001.01 796.408L968.024 848.654L899.693 740.407ZM1005.03 797.705H1070.99L1002.98 905.441L970.003 853.194L1005.03 797.705ZM1039.01 856.043L1073.18 910.18L1107.38 964.345H1040.2L1005.42 909.249L1039.01 856.043ZM1042.68 854.18H1109.85L1144.59 909.221L1111.01 962.427L1042.68 854.18ZM1042.68 850.343L1075.9 797.705H1146.21L1179.44 850.343H1042.68ZM1149.64 795.463L1182.59 743.271L1216.17 796.464C1216.21 796.527 1216.26 796.577 1216.31 796.633L1250.36 850.572H1184.43L1149.64 795.463ZM1322.38 854.436L1288.79 907.64H1220.46L1186.87 854.436H1322.38ZM1362.02 799.311L1395.6 852.517L1360.81 907.64H1293.63L1362.02 799.311ZM1329.69 740.407H1395.65L1431 796.408L1398.02 848.654L1329.69 740.407ZM1435.03 797.705H1501L1432.98 905.441L1400 853.194L1435.03 797.705ZM1469.01 856.043L1503.18 910.18L1537.37 964.345H1470.21L1435.42 909.249L1469.01 856.043ZM1472.67 854.18H1539.85L1574.6 909.221L1541.01 962.427L1472.67 854.18ZM1472.67 850.343L1505.91 797.705H1576.22L1609.44 850.343H1472.67ZM1575.8 793.868H1508.64L1577.02 685.54L1610.61 738.745L1575.8 793.868ZM1541.01 734.881L1472.67 626.635H1539.85L1574.6 681.676L1541.01 734.881ZM1472.67 622.798L1505.91 570.159H1576.22L1609.44 622.798H1472.67ZM1575.8 566.323H1508.64L1577.02 457.993L1610.61 511.199L1575.8 566.323ZM1541.01 507.336L1472.67 399.089H1539.85L1574.6 454.131L1541.01 507.336ZM1472.67 395.252L1505.91 342.613H1576.22L1609.44 395.252H1472.67ZM1575.8 338.776H1508.64L1577.02 230.448L1610.61 283.653L1575.8 338.776ZM1541.01 279.79L1472.67 171.544H1539.85L1574.6 226.585L1541.01 279.79ZM1472.67 167.707L1505.91 115.069H1576.22L1609.44 167.707H1472.67ZM1575.8 111.232H1508.64L1577.02 2.90247L1610.61 56.1073L1575.8 111.232ZM1541.01 52.2448L1472.67 -56.0013H1539.85L1574.6 -0.960022L1541.01 52.2448ZM1472.67 -59.8383L1505.91 -112.477H1576.22L1609.44 -59.8383H1472.67ZM1575.8 -116.313H1508.64L1577.02 -224.643L1610.61 -171.437L1575.8 -116.313ZM1541.01 -175.301L1472.67 -283.54H1539.85L1574.6 -228.505L1541.01 -175.301ZM1435.03 -340.019H1500.99L1432.98 -232.286L1400 -284.538L1435.03 -340.019ZM1431.17 -227.49C1431.21 -227.427 1431.26 -227.38 1431.31 -227.322L1465.36 -173.382H1398.19L1364.02 -227.508L1397.59 -280.688L1431.17 -227.49ZM1362.02 -338.421L1395.6 -285.216L1360.81 -230.086H1293.63L1362.02 -338.421ZM1322.38 -283.297L1288.79 -230.086H1220.46L1186.87 -283.297H1322.38ZM1216.61 -228.505L1183.02 -175.301L1114.69 -283.54H1181.87L1216.61 -228.505ZM1146.21 -340.019L1179.44 -287.377H1042.68L1075.9 -340.019H1146.21ZM1005.03 -340.019H1070.99L1002.98 -232.286L970.003 -284.538L1005.03 -340.019ZM1001.17 -227.49C1001.21 -227.427 1001.26 -227.38 1001.31 -227.322L1035.36 -173.382H968.187L934.021 -227.508L967.59 -280.688L1001.17 -227.49ZM932.016 -338.421L965.602 -285.216L930.805 -230.086H863.633L932.016 -338.421ZM892.375 -283.297L858.789 -230.086H790.456L756.87 -283.297H892.375ZM786.611 -228.505L753.024 -175.301L684.694 -283.54H751.865L786.611 -228.505ZM716.214 -340.019L749.443 -287.377H612.675L645.903 -340.019H716.214ZM575.03 -340.019H640.992L572.984 -232.286L540.002 -284.538L575.03 -340.019ZM571.167 -227.49C571.206 -227.428 571.262 -227.38 571.308 -227.323L605.359 -173.382H538.187L504.02 -227.506L537.589 -280.688L571.167 -227.49ZM502.016 -338.421L535.602 -285.216L500.805 -230.086H433.633L502.016 -338.421ZM462.375 -283.297L428.789 -230.086H360.456L326.87 -283.297H462.375ZM356.611 -228.505L323.024 -175.301L254.694 -283.54H321.865L356.611 -228.505ZM286.214 -340.019L319.442 -287.377H182.675L215.903 -340.019H286.214ZM145.03 -340.019H210.992L142.984 -232.286L110.002 -284.538L145.03 -340.019ZM3.63305 -230.086L72.0163 -338.421L105.602 -285.216L70.8053 -230.086H3.63305ZM74.0204 -227.506L107.589 -280.688L141.167 -227.49C141.206 -227.428 141.262 -227.38 141.308 -227.323L175.359 -173.382H108.187L74.0204 -227.506ZM39.6935 -169.774H105.654L141.005 -113.773L108.024 -61.5278L39.6935 -169.774ZM3.63305 -2.54077L72.0163 -110.87L105.602 -57.6641L70.8053 -2.54077H3.63305ZM74.0204 0.0388184L107.589 -53.1378L141.167 0.0541992C141.206 0.116882 141.262 0.165466 141.308 0.221741L175.359 54.1633H108.187L74.0204 0.0388184ZM39.6935 57.7712H105.654L141.005 113.772L108.024 166.018L39.6935 57.7712ZM3.63305 225.005L72.0163 116.675L105.602 169.88L70.8053 225.005H3.63305ZM74.0204 227.584L107.589 174.406L141.167 227.601C141.206 227.662 141.262 227.711 141.308 227.767L175.359 281.709H108.187L74.0204 227.584ZM39.6935 285.317H105.655L141.005 341.317L108.024 393.563L39.6935 285.317ZM3.63305 452.549L72.0163 344.22L105.602 397.427L70.8053 452.549H3.63305ZM74.0199 455.13L107.589 401.953L141.167 455.146C141.206 455.208 141.262 455.257 141.308 455.314L175.359 509.254H108.187L74.0199 455.13ZM39.6935 512.862H105.654L141.005 568.863L108.024 621.108L39.6935 512.862ZM3.63305 680.095L72.0163 571.766L105.602 624.972L70.8053 680.095H3.63305ZM74.0199 682.675L107.589 629.498L141.167 682.691C141.206 682.753 141.262 682.803 141.308 682.859L175.359 736.799H108.187L74.0199 682.675ZM39.6935 740.407H105.654L141.005 796.408L108.024 848.654L39.6935 740.407ZM3.63305 907.64L72.0163 799.311L105.602 852.517L70.8053 907.64H3.63305ZM74.0199 910.22L107.589 857.043L141.167 910.237C141.206 910.299 141.262 910.348 141.308 910.405L175.359 964.345H108.187L74.0199 910.22ZM144.245 1021.41L110.659 968.208H247.375L213.789 1021.41H144.245ZM285.805 1021.41H218.633L287.016 913.084L320.602 966.29L285.805 1021.41ZM254.694 854.18H321.865L356.611 909.221L323.024 962.427L254.694 854.18ZM357.984 1019.21L325.003 966.966L360.031 911.477H425.994L357.984 1019.21ZM397.675 964.115L430.903 911.477H499.969L533.197 964.115H397.675ZM504.02 910.22L537.589 857.043L571.167 910.237C571.206 910.299 571.262 910.348 571.308 910.405L605.359 964.345H538.187L504.02 910.22ZM574.245 1021.41L540.659 968.208H677.375L643.789 1021.41H574.245ZM715.805 1021.41H648.633L717.016 913.084L750.602 966.29L715.805 1021.41ZM684.694 854.18H751.865L786.611 909.221L753.024 962.427L684.694 854.18ZM787.984 1019.21L755.003 966.966L790.031 911.477H855.994L787.984 1019.21ZM827.675 964.115L860.903 911.477H929.969L963.197 964.115H827.675ZM934.02 910.22L967.59 857.043L1001.17 910.237C1001.21 910.299 1001.26 910.349 1001.31 910.406L1035.36 964.345H968.187L934.02 910.22ZM1004.25 1021.41L970.659 968.208H1107.38L1073.79 1021.41H1004.25ZM1145.81 1021.41H1078.63L1147.02 913.084L1180.6 966.29L1145.81 1021.41ZM1114.69 854.18H1181.87L1216.61 909.221L1183.02 962.427L1114.69 854.18ZM1217.98 1019.21L1185 966.966L1220.03 911.477H1285.99L1217.98 1019.21ZM1257.68 964.115L1290.9 911.477H1359.97L1393.2 964.115H1257.68ZM1364.02 910.22L1397.59 857.043L1431.17 910.237C1431.21 910.299 1431.26 910.349 1431.31 910.406L1465.36 964.345H1398.19L1364.02 910.22ZM1434.24 1021.41L1400.65 968.208H1537.37L1503.78 1021.41H1434.24ZM1575.8 1021.41H1508.64L1577.02 913.084L1610.61 966.29L1575.8 1021.41ZM1716 911.477L1647.98 1019.21L1615 966.966L1650.03 911.477H1716ZM1646.61 909.221L1613.02 962.427L1544.69 854.18H1611.86L1646.61 909.221ZM1680.36 850.572H1614.44L1579.65 795.463L1612.59 743.271L1646.17 796.464C1646.21 796.527 1646.26 796.577 1646.31 796.633L1680.36 850.572ZM1716 683.932L1647.98 791.668L1615 739.42L1650.03 683.932H1716ZM1646.61 681.676L1613.02 734.881L1544.69 626.635H1611.86L1646.61 681.676ZM1680.36 623.027H1614.44L1579.65 567.917L1612.59 515.725L1646.17 568.919C1646.21 568.982 1646.26 569.03 1646.31 569.088L1680.36 623.027ZM1716 456.385L1647.98 564.123L1615 511.875L1650.03 456.385H1716ZM1646.61 454.131L1613.02 507.336L1544.69 399.089H1611.86L1646.61 454.131ZM1680.36 395.481H1614.44L1579.65 340.372L1612.59 288.18L1646.17 341.374C1646.21 341.436 1646.26 341.485 1646.31 341.542L1680.36 395.481ZM1715.99 228.841L1647.98 336.577L1615 284.329L1650.03 228.841H1715.99ZM1646.61 226.585L1613.02 279.79L1544.69 171.544H1611.86L1646.61 226.585ZM1680.36 167.936H1614.44L1579.65 112.827L1612.59 60.6335L1646.17 113.827C1646.21 113.891 1646.26 113.939 1646.31 113.996L1680.36 167.936ZM1715.99 1.29608L1647.98 109.031L1615 56.7839L1650.03 1.29608H1715.99ZM1646.61 -0.960022L1613.02 52.2448L1544.69 -56.0013H1611.86L1646.61 -0.960022ZM1680.36 -59.6094H1614.44L1579.65 -114.719L1612.59 -166.911L1646.17 -113.718C1646.21 -113.655 1646.26 -113.606 1646.31 -113.55L1680.36 -59.6094ZM1715.99 -226.249L1647.98 -118.515L1615 -170.761L1650.03 -226.249H1715.99ZM1646.61 -228.505L1613.02 -175.301L1544.69 -283.54H1611.86L1646.61 -228.505Z"/>
</mask>
<path d="M1650.43 -342.232H1645.55L1646.17 -341.26C1646.21 -341.196 1646.26 -341.158 1646.31 -341.094L1680.36 -287.16H1614.44L1579.66 -342.232H1430.42L1431 -341.324L1398.02 -289.078L1364.46 -342.232H1359.57L1326.01 -289.078L1292.45 -342.232H1290H1287.6L1288.18 -341.324L1322.38 -287.16H1255.2L1220.43 -342.232H1215.55L1216.17 -341.26C1216.21 -341.196 1216.26 -341.158 1216.31 -341.094L1250.36 -287.16H1184.43L1149.66 -342.232H1000.42L1001.01 -341.324L968.024 -289.078L934.463 -342.232H929.568L896.008 -289.078L862.447 -342.232H860H857.605L858.183 -341.324L892.375 -287.16H825.203L790.432 -342.232H785.552L786.167 -341.26C786.206 -341.196 786.264 -341.158 786.31 -341.094L820.359 -287.16H754.43L719.659 -342.232H570.425L571.005 -341.324L538.024 -289.078L504.463 -342.232H499.569L466.008 -289.078L432.447 -342.232H430H427.603L462.375 -287.16H395.203L360.431 -342.232H355.552L356.167 -341.26C356.206 -341.196 356.262 -341.158 356.309 -341.094L390.359 -287.16H324.43L289.659 -342.232H140.425L141.005 -341.324L108.024 -289.078L74.464 -342.232H69.5686L36.0081 -289.078L2.4477 -342.232H0V-338.446L32.3752 -287.16H0V-283.297H32.3752L0 -232.005V-224.818L0.904026 -226.249H69.97L103.198 -173.611H0V-169.774H34.849L65.835 -120.689L69.5943 -114.733L36.0081 -61.5278L0 -118.569V-114.692V-110.896L32.3752 -59.6094H0V-55.7469H32.3756L0 -4.45923V2.72723L0.904026 1.29608H69.97L103.198 53.9343H0V57.7712H34.849L65.835 106.857L69.5943 112.813L36.0081 166.018L0 108.976V112.854V116.65L32.3752 167.936H0V171.798H32.3756L0 223.086V230.273L0.904026 228.841H69.97L103.198 281.48H0V285.317H34.849L65.835 334.403L69.5943 340.358L36.0081 393.563L0 336.521V340.399V344.195L32.3752 395.481H0V399.345H32.3752L0 450.631V457.819L0.904573 456.385H69.9695L103.198 509.025H0V512.862H34.849L69.5943 567.903L36.0081 621.108L0 564.066V567.944V571.74L32.3752 623.027H0V626.89H32.3752L0 678.177V685.365L0.904573 683.932H69.9695L103.198 736.57H0V740.407H34.849L69.5943 795.449L36.0081 848.654L0 791.612V795.49V799.286L32.3752 850.572H0V854.436H32.3752L0 905.722V912.909L0.904026 911.477H69.9695L103.198 964.115H0V967.952H34.849L69.5943 1022.99L69.5686 1023.03H74.4645L39.6935 967.952H105.654L140.425 1023.03H289.659L289.642 1023.01L322.589 970.816L355.552 1023.03H360.431L360.424 1023.02L394.01 969.817L427.603 1023.03H430H432.449L397.678 967.952H464.849L499.594 1022.99L499.569 1023.03H504.465L469.694 967.952H535.654L570.426 1023.03H719.659L719.642 1023.01L752.59 970.816L785.552 1023.03H790.432L790.424 1023.02L824.01 969.817L857.605 1023.03H860H862.447L827.677 967.952H894.849L929.594 1022.99L929.568 1023.03H934.463L899.693 967.952H965.654L1000.42 1023.03H1149.66L1149.64 1023.01L1182.59 970.816L1215.55 1023.03H1220.43L1220.42 1023.02L1254.01 969.817L1287.6 1023.03H1290H1292.45L1257.68 967.952H1324.85L1359.59 1022.99L1359.57 1023.03H1364.46L1329.69 967.952H1395.65L1430.42 1023.03H1579.66L1579.65 1023.01L1612.59 970.816L1645.55 1023.03H1650.43L1650.42 1023.02L1684.01 969.817L1717.61 1023.03H1720V1019.16L1687.67 967.952H1720V964.115H1687.67L1720 912.909V905.722L1718.78 907.64H1650.46L1616.87 854.436H1720V850.572H1685.21L1650.42 795.476L1684.01 742.271L1718.18 796.408L1720 799.286V795.49V791.612L1687.67 740.407H1720V736.57H1687.67L1720 685.365V678.177L1718.78 680.095H1650.46L1616.87 626.89H1720V623.027H1685.21L1650.42 567.93L1684.01 514.725L1718.18 568.863L1720 571.739V567.944V564.066L1687.67 512.862H1720V509.025H1687.67L1720 457.819V450.631L1718.78 452.549H1650.46L1616.87 399.345H1720V395.481H1685.21L1650.42 340.385L1684.01 287.18L1718.18 341.317L1720 344.194V340.399V336.521L1687.67 285.317H1720V281.48H1687.67L1720 230.273V223.086L1718.78 225.005H1650.46L1616.87 171.798H1720V167.936H1685.21L1650.42 112.84L1684.01 59.6347L1718.18 113.772L1720 116.65V112.854V108.976L1687.67 57.7712H1720V53.9343H1687.67L1720 2.72723V-4.45923L1718.78 -2.54077H1650.46L1616.87 -55.7456L1720 -55.7469V-59.6094H1685.21L1650.42 -114.706L1684.01 -167.911L1718.18 -113.773L1720 -110.896V-114.692V-118.569L1687.67 -169.774H1720V-173.611H1687.67L1720 -224.818V-232.005L1718.78 -230.086H1650.46L1616.87 -283.297H1720V-287.16H1685.21L1650.43 -342.232ZM1576.22 -340.019L1609.44 -287.377H1472.67L1505.91 -340.019H1576.22ZM1537.37 -169.52L1503.78 -116.313H1434.24L1400.65 -169.518L1537.37 -169.52ZM1470.21 -173.382L1435.42 -228.479L1469.01 -281.686L1503.18 -227.546L1537.37 -173.382H1470.21ZM1322.38 171.798L1288.79 225.005H1220.46L1186.87 171.798H1322.38ZM1255.2 167.936L1220.42 112.84L1254.01 59.6347L1288.18 113.772L1322.38 167.936H1255.2ZM464.849 285.317L495.835 334.403L499.594 340.358L466.008 393.563L397.678 285.317H464.849ZM397.675 281.48L430.903 228.841H499.97L533.199 281.48H397.675ZM502.016 344.22L535.602 397.427L500.805 452.549H433.633L502.016 344.22ZM469.694 285.317H535.654L571.005 341.317L538.024 393.563L469.694 285.317ZM681.008 279.79L612.678 171.544H679.849L714.594 226.585L681.008 279.79ZM717.016 230.448L750.602 283.653L715.805 338.776H648.633L717.016 230.448ZM677.375 281.709H610.203L575.424 226.613L609.01 173.407L677.375 281.709ZM677.375 285.571L643.789 338.776H574.245L540.659 285.571H677.375ZM575.031 342.613H640.994L572.984 450.35L540.003 398.103L575.031 342.613ZM609.01 400.953L677.375 509.254H610.203L575.424 454.159L609.01 400.953ZM612.678 399.089H679.849L714.594 454.131L681.008 507.336L612.678 399.089ZM612.675 395.252L645.905 342.613H716.212L749.443 395.252H612.675ZM719.642 340.372L752.588 288.18L786.167 341.374C786.206 341.436 786.264 341.485 786.31 341.542L820.359 395.481H754.431L719.642 340.372ZM827.677 285.317H894.849L929.594 340.358L896.008 393.563L827.677 285.317ZM892.375 395.481H825.203L790.424 340.385L824.01 287.18L858.183 341.317L892.375 395.481ZM827.675 281.48L860.903 228.841H929.97L963.199 281.48H827.675ZM787.984 336.577L755.003 284.329L790.03 228.841H855.992L787.984 336.577ZM892.375 399.345L858.789 452.549H790.456L756.871 399.345H892.375ZM932.016 344.22L965.602 397.427L930.805 452.549H863.633L932.016 344.22ZM899.693 285.317H965.654L1001.01 341.316L968.024 393.563L899.693 285.317ZM1111.01 279.79L1042.68 171.544H1109.85L1144.59 226.585L1111.01 279.79ZM1147.02 230.448L1180.6 283.653L1145.81 338.776H1078.63L1147.02 230.448ZM1073.18 227.545L1107.38 281.709H1040.2L1005.42 226.612L1039.01 173.407L1073.18 227.545ZM1107.38 285.571L1073.79 338.776H1004.25L970.659 285.571H1107.38ZM1005.03 342.613H1070.99L1002.98 450.35L970.003 398.102L1005.03 342.613ZM1039.01 400.953L1073.18 455.09L1107.38 509.254H1040.2L1005.42 454.158L1039.01 400.953ZM1042.68 399.089H1109.85L1144.59 454.131L1111.01 507.336L1042.68 399.089ZM1042.68 395.252L1075.9 342.613H1146.21L1179.44 395.252H1042.68ZM1149.64 340.372L1182.59 288.18L1216.17 341.374C1216.21 341.436 1216.26 341.485 1216.31 341.542L1250.36 395.481H1184.43L1149.64 340.372ZM1322.38 399.345L1288.79 452.549H1220.46L1186.87 399.345H1322.38ZM1255.2 395.481L1220.42 340.385L1254.01 287.18L1288.18 341.317L1322.38 395.481H1255.2ZM1217.98 336.577L1185 284.329L1220.03 228.841H1285.99L1217.98 336.577ZM1216.61 226.585L1183.02 279.79L1114.69 171.544H1181.87L1216.61 226.585ZM1042.68 167.707L1075.9 115.069H1146.21L1179.44 167.707H1042.68ZM1002.98 222.805L970.003 170.557L1005.03 115.069H1070.99L1002.98 222.805ZM1001.17 227.601C1001.21 227.663 1001.26 227.712 1001.31 227.77L1035.36 281.709H968.187L934.021 227.584L967.588 174.406L1001.17 227.601ZM930.805 225.005H863.633L932.016 116.675L965.602 169.88L930.805 225.005ZM896.008 166.018L827.677 57.7712H894.849L929.594 112.813L896.008 166.018ZM858.183 113.772L892.375 167.936H825.203L790.424 112.84L824.01 59.6347L858.183 113.772ZM892.375 171.798L858.789 225.005H790.456L756.87 171.798H892.375ZM786.611 226.585L753.024 279.79L684.694 171.544H751.865L786.611 226.585ZM612.675 167.707L645.903 115.069H716.214L749.443 167.707H612.675ZM572.984 222.805L540.002 170.558L575.03 115.069H640.992L572.984 222.805ZM571.167 227.601C571.206 227.662 571.262 227.711 571.308 227.767L605.359 281.709H538.187L504.02 227.584L537.588 174.406L571.167 227.601ZM500.805 225.005H433.633L502.016 116.675L535.602 169.88L500.805 225.005ZM466.008 166.018L397.678 57.7712H464.849L495.835 106.857L499.594 112.813L466.008 166.018ZM462.375 167.936H395.203L360.424 112.841L394.01 59.6347L462.375 167.936ZM462.375 171.798L428.789 225.005H360.456L326.87 171.798H462.375ZM425.992 228.841L357.984 336.577L325.002 284.33L360.03 228.841H425.992ZM394.01 287.18L462.375 395.481H395.203L360.424 340.386L394.01 287.18ZM462.375 399.345L428.789 452.549H360.456L326.871 399.345H462.375ZM425.994 456.385L357.984 564.123L325.003 511.876L360.031 456.385H425.994ZM394.01 514.725L462.375 623.027H395.203L360.424 567.931L394.01 514.725ZM397.678 512.862H464.849L499.594 567.903L466.008 621.108L397.678 512.862ZM397.675 509.025L430.905 456.385H499.969L533.197 509.025H397.675ZM504.02 455.13L537.589 401.953L571.167 455.146C571.206 455.208 571.262 455.257 571.308 455.314L605.359 509.254H538.187L504.02 455.13ZM677.375 513.118L643.789 566.323H574.245L540.659 513.118H677.375ZM717.016 457.993L750.602 511.199L715.805 566.323H648.633L717.016 457.993ZM684.694 399.089H751.865L786.611 454.131L753.024 507.336L684.694 399.089ZM790.031 456.385H855.994L787.984 564.123L755.003 511.875L790.031 456.385ZM824.01 514.725L858.183 568.863L892.375 623.027H825.203L790.424 567.93L824.01 514.725ZM827.677 512.862H894.849L929.594 567.903L896.008 621.108L827.677 512.862ZM827.675 509.025L860.905 456.385H929.969L963.197 509.025H827.675ZM934.02 455.13L967.59 401.953L1001.17 455.146C1001.21 455.209 1001.26 455.257 1001.31 455.315L1035.36 509.254H968.187L934.02 455.13ZM1107.38 513.118L1073.79 566.323H1004.25L970.659 513.118H1107.38ZM1147.02 457.993L1180.6 511.199L1145.81 566.323H1078.63L1147.02 457.993ZM1114.69 399.089H1181.87L1216.61 454.131L1183.02 507.336L1114.69 399.089ZM1220.03 456.385H1285.99L1217.98 564.123L1185 511.875L1220.03 456.385ZM1254.01 514.725L1288.18 568.863L1322.38 623.027H1255.2L1220.42 567.93L1254.01 514.725ZM1257.68 512.862H1324.85L1359.59 567.903L1326.01 621.108L1257.68 512.862ZM1257.68 509.025L1290.9 456.385H1359.97L1393.2 509.025H1257.68ZM1293.63 452.549L1362.02 344.22L1395.6 397.427L1360.81 452.549H1293.63ZM1326.01 393.563L1257.68 285.317H1324.85L1359.59 340.358L1326.01 393.563ZM1257.68 281.48L1290.9 228.841H1359.97L1393.2 281.48H1257.68ZM1293.63 225.005L1362.02 116.675L1395.6 169.88L1360.81 225.005H1293.63ZM1326.01 166.018L1257.68 57.7712H1324.85L1359.59 112.813L1326.01 166.018ZM1257.68 53.9343L1290.9 1.29608H1359.97L1393.2 53.9343H1257.68ZM1217.98 109.031L1185 56.7839L1220.03 1.29608H1285.99L1217.98 109.031ZM1216.17 113.827C1216.21 113.891 1216.26 113.939 1216.31 113.996L1250.36 167.936H1184.43L1149.64 112.827L1182.59 60.6335L1216.17 113.827ZM1145.81 111.232H1078.63L1147.02 2.90247L1180.6 56.1073L1145.81 111.232ZM1111.01 52.2448L1042.68 -56.0013H1109.85L1144.59 -0.960022L1111.01 52.2448ZM1073.18 -0.000793457L1107.38 54.1633H1040.2L1005.42 -0.933167L1039.01 -54.1381L1073.18 -0.000793457ZM1107.38 58.0258L1073.79 111.232H1004.25L970.659 58.027L1107.38 58.0258ZM1001.01 113.771L968.024 166.018L899.693 57.7712H965.654L1001.01 113.771ZM827.675 53.9343L860.903 1.29608H929.97L963.199 53.9343H827.675ZM787.984 109.031L755.003 56.7839L790.03 1.29608H855.992L787.984 109.031ZM786.167 113.827C786.206 113.891 786.264 113.939 786.31 113.996L820.359 167.936H754.43L719.642 112.827L752.588 60.6335L786.167 113.827ZM715.805 111.232H648.633L717.016 2.90247L750.602 56.1073L715.805 111.232ZM681.008 52.2448L612.678 -56.0013H679.849L714.594 -0.960022L681.008 52.2448ZM677.375 54.1633H610.203L575.424 -0.931885L609.01 -54.1381L677.375 54.1633ZM677.375 58.0258L643.789 111.232H574.245L540.659 58.027L677.375 58.0258ZM571.005 113.772L538.024 166.018L469.694 57.7712H535.654L571.005 113.772ZM397.675 53.9343L430.903 1.29608H499.97L533.199 53.9343H397.675ZM357.984 109.031L325.002 56.7851L360.03 1.29608H425.992L357.984 109.031ZM356.167 113.827C356.206 113.89 356.262 113.938 356.309 113.994L390.359 167.936H324.43L289.642 112.827L322.588 60.6335L356.167 113.827ZM356.611 226.585L323.024 279.79L254.694 171.544H321.865L356.611 226.585ZM356.167 341.374C356.206 341.435 356.262 341.483 356.309 341.54L390.359 395.481H324.431L289.642 340.372L322.588 288.18L356.167 341.374ZM356.611 454.131L323.024 507.336L254.694 399.089H321.865L356.611 454.131ZM356.167 568.919C356.206 568.98 356.262 569.03 356.309 569.086L390.359 623.027H324.431L289.642 567.917L322.589 515.725L356.167 568.919ZM462.375 626.89L428.789 680.095H360.456L326.871 626.89H462.375ZM502.016 571.766L535.602 624.972L500.805 680.095H433.633L502.016 571.766ZM469.694 512.862H535.654L571.005 568.863L538.024 621.108L469.694 512.862ZM575.031 570.159H640.994L572.984 677.895L540.003 625.648L575.031 570.159ZM609.01 628.498L677.375 736.799H610.203L575.424 681.704L609.01 628.498ZM612.678 626.635H679.849L714.594 681.676L681.008 734.881L612.678 626.635ZM612.675 622.798L645.905 570.159H716.212L749.443 622.798H612.675ZM719.642 567.917L752.59 515.725L786.167 568.919C786.208 568.982 786.264 569.03 786.31 569.088L820.359 623.027H754.431L719.642 567.917ZM892.375 626.89L858.789 680.095H790.456L756.871 626.89H892.375ZM932.016 571.766L965.602 624.972L930.805 680.095H863.633L932.016 571.766ZM899.693 512.862H965.654L1001.01 568.861L968.024 621.108L899.693 512.862ZM1005.03 570.159H1070.99L1002.98 677.895L970.003 625.647L1005.03 570.159ZM1039.01 628.498L1073.18 682.635L1107.38 736.799H1040.2L1005.42 681.703L1039.01 628.498ZM1042.68 626.635H1109.85L1144.59 681.676L1111.01 734.881L1042.68 626.635ZM1042.68 622.798L1075.9 570.159H1146.21L1179.44 622.798H1042.68ZM1149.64 567.917L1182.59 515.725L1216.17 568.919C1216.21 568.982 1216.26 569.03 1216.31 569.088L1250.36 623.027H1184.43L1149.64 567.917ZM1322.38 626.89L1288.79 680.095H1220.46L1186.87 626.89H1322.38ZM1362.02 571.766L1395.6 624.972L1360.81 680.095H1293.63L1362.02 571.766ZM1329.69 512.862H1395.65L1431 568.861L1398.02 621.108L1329.69 512.862ZM1364.02 455.13L1397.59 401.953L1431.17 455.146C1431.21 455.209 1431.26 455.257 1431.31 455.315L1465.36 509.254H1398.19L1364.02 455.13ZM1329.69 285.317H1395.65L1431 341.316L1398.02 393.563L1329.69 285.317ZM1364.02 227.584L1397.59 174.406L1431.17 227.601C1431.21 227.663 1431.26 227.712 1431.31 227.77L1465.36 281.709H1398.19L1364.02 227.584ZM1329.69 57.7712H1395.65L1431 113.771L1398.02 166.018L1329.69 57.7712ZM1364.02 0.0388184L1397.59 -53.1378L1431.17 0.0541992C1431.21 0.118164 1431.26 0.166748 1431.31 0.223022L1465.36 54.1633H1398.19L1364.02 0.0388184ZM1360.81 -2.54077H1293.63L1362.02 -110.87L1395.6 -57.6641L1360.81 -2.54077ZM1326.01 -61.5278L1257.68 -169.774H1324.85L1359.59 -114.733L1326.01 -61.5278ZM1288.18 -113.773L1322.38 -59.6094H1255.2L1220.42 -114.706L1254.01 -167.911L1288.18 -113.773ZM1322.38 -55.7469L1288.79 -2.54077H1220.46L1186.87 -55.7456L1322.38 -55.7469ZM1216.61 -0.960022L1183.02 52.2448L1114.69 -56.0013H1181.87L1216.61 -0.960022ZM1042.68 -59.8383L1075.9 -112.477H1146.21L1179.44 -59.8383H1042.68ZM1002.98 -4.74194L970.003 -56.9889L1005.03 -112.477H1070.99L1002.98 -4.74194ZM1001.17 0.0541992C1001.21 0.118164 1001.26 0.166748 1001.31 0.223022L1035.36 54.1633H968.187L934.021 0.0388184L967.59 -53.1378L1001.17 0.0541992ZM930.805 -2.54077H863.633L932.016 -110.87L965.602 -57.6641L930.805 -2.54077ZM896.008 -61.5278L827.677 -169.774H894.849L929.594 -114.733L896.008 -61.5278ZM858.183 -113.773L892.375 -59.6094H825.203L790.424 -114.706L824.01 -167.911L858.183 -113.773ZM892.375 -55.7469L858.789 -2.54077H790.456L756.87 -55.7456L892.375 -55.7469ZM786.611 -0.960022L753.024 52.2448L684.694 -56.0013H751.865L786.611 -0.960022ZM612.675 -59.8383L645.903 -112.477H716.214L749.443 -59.8383H612.675ZM572.984 -4.74194L540.002 -56.9874L575.03 -112.477H640.992L572.984 -4.74194ZM571.167 0.0541992C571.206 0.116882 571.262 0.165466 571.308 0.221741L605.359 54.1633H538.187L504.02 0.0388184L537.589 -53.1378L571.167 0.0541992ZM500.805 -2.54077H433.633L502.016 -110.87L535.602 -57.6641L500.805 -2.54077ZM466.008 -61.5278L397.678 -169.774H464.849L495.835 -120.689L499.594 -114.733L466.008 -61.5278ZM462.375 -59.6094H395.203L360.424 -114.704L394.01 -167.911L462.375 -59.6094ZM462.375 -55.7469L428.789 -2.54077H360.456L326.87 -55.7456L462.375 -55.7469ZM356.611 -0.960022L323.024 52.2448L254.694 -56.0013H321.865L356.611 -0.960022ZM182.675 -59.8383L215.903 -112.477H286.214L319.442 -59.8383H182.675ZM249.849 -56.0013L280.835 -6.91614L284.594 -0.960022L251.008 52.2448L182.678 -56.0013H249.849ZM287.016 2.90247L320.602 56.1073L285.805 111.232H218.633L287.016 2.90247ZM286.214 115.069L319.442 167.707H182.675L215.903 115.069H286.214ZM249.849 171.544L280.835 220.629L284.594 226.585L251.008 279.79L182.678 171.544H249.849ZM287.016 230.448L320.602 283.653L285.805 338.776H218.633L287.016 230.448ZM286.212 342.613L319.442 395.252H182.675L215.905 342.613H286.212ZM249.849 399.089L284.594 454.131L251.008 507.336L182.678 399.089H249.849ZM287.016 457.993L320.602 511.199L285.805 566.323H218.633L287.016 457.993ZM286.212 570.159L319.442 622.798H182.675L215.905 570.159H286.212ZM249.849 626.635L284.594 681.676L251.008 734.881L182.678 626.635H249.849ZM287.016 685.54L320.602 738.745L285.805 793.868H218.633L287.016 685.54ZM254.694 626.635H321.865L356.611 681.676L323.024 734.881L254.694 626.635ZM360.031 683.932H425.994L357.984 791.668L325.003 739.421L360.031 683.932ZM394.01 742.271L462.375 850.572H395.203L360.424 795.477L394.01 742.271ZM397.678 740.407H464.849L499.594 795.449L466.008 848.654L397.678 740.407ZM397.675 736.57L430.905 683.932H499.969L533.197 736.57H397.675ZM504.02 682.675L537.589 629.498L571.167 682.691C571.206 682.753 571.262 682.803 571.308 682.859L605.359 736.799H538.187L504.02 682.675ZM677.375 740.663L643.789 793.868H574.245L540.659 740.663H677.375ZM717.016 685.54L750.602 738.745L715.805 793.868H648.633L717.016 685.54ZM684.694 626.635H751.865L786.611 681.676L753.024 734.881L684.694 626.635ZM790.031 683.932H855.994L787.984 791.668L755.003 739.42L790.031 683.932ZM824.01 742.271L858.183 796.408L892.375 850.572H825.203L790.424 795.476L824.01 742.271ZM827.677 740.407H894.849L929.594 795.449L896.008 848.654L827.677 740.407ZM827.675 736.57L860.905 683.932H929.969L963.197 736.57H827.675ZM934.02 682.675L967.59 629.498L1001.17 682.691C1001.21 682.754 1001.26 682.804 1001.31 682.86L1035.36 736.799H968.187L934.02 682.675ZM1107.38 740.663L1073.79 793.868H1004.25L970.659 740.663H1107.38ZM1147.02 685.54L1180.6 738.745L1145.81 793.868H1078.63L1147.02 685.54ZM1114.69 626.635H1181.87L1216.61 681.676L1183.02 734.881L1114.69 626.635ZM1220.03 683.932H1285.99L1217.98 791.668L1185 739.42L1220.03 683.932ZM1254.01 742.271L1288.18 796.408L1322.38 850.572H1255.2L1220.42 795.476L1254.01 742.271ZM1257.68 740.407H1324.85L1359.59 795.449L1326.01 848.654L1257.68 740.407ZM1257.68 736.57L1290.9 683.932H1359.97L1393.2 736.57H1257.68ZM1364.02 682.675L1397.59 629.498L1431.17 682.691C1431.21 682.754 1431.26 682.804 1431.31 682.86L1465.36 736.799H1398.19L1364.02 682.675ZM1537.37 740.663L1503.78 793.868H1434.24L1400.65 740.663H1537.37ZM1470.21 736.799L1435.42 681.703L1469.01 628.498L1503.18 682.635L1537.37 736.799H1470.21ZM1432.98 677.895L1400 625.647L1435.03 570.159H1501L1432.98 677.895ZM1434.24 566.323L1400.65 513.118H1537.37L1503.78 566.323H1434.24ZM1470.21 509.254L1435.42 454.158L1469.01 400.953L1503.18 455.09L1537.37 509.254H1470.21ZM1432.98 450.35L1400 398.102L1435.03 342.613H1501L1432.98 450.35ZM1434.24 338.776L1400.65 285.571H1537.37L1503.78 338.776H1434.24ZM1470.21 281.709L1435.42 226.612L1469.01 173.407L1503.18 227.545L1537.37 281.709H1470.21ZM1432.98 222.805L1400 170.557L1435.03 115.069H1500.99L1432.98 222.805ZM1434.24 111.232L1400.65 58.027L1537.37 58.0258L1503.78 111.232H1434.24ZM1470.21 54.1633L1435.42 -0.933167L1469.01 -54.1381L1503.18 -0.000793457L1537.37 54.1633H1470.21ZM1432.98 -4.74194L1400 -56.9889L1435.03 -112.477H1500.99L1432.98 -4.74194ZM1431 -113.773L1398.02 -61.5278L1329.69 -169.774H1395.65L1431 -113.773ZM1257.68 -173.611L1290.9 -226.249H1359.97L1393.2 -173.611H1257.68ZM1217.98 -118.515L1185 -170.761L1220.03 -226.249H1285.99L1217.98 -118.515ZM1216.17 -113.718C1216.21 -113.655 1216.26 -113.606 1216.31 -113.55L1250.36 -59.6094H1184.43L1149.64 -114.719L1182.59 -166.911L1216.17 -113.718ZM1145.81 -116.313H1078.63L1147.02 -224.643L1180.6 -171.437L1145.81 -116.313ZM1111.01 -175.301L1042.68 -283.54H1109.85L1144.59 -228.505L1111.01 -175.301ZM1073.18 -227.546L1107.38 -173.382H1040.2L1005.42 -228.479L1039.01 -281.686L1073.18 -227.546ZM1107.38 -169.52L1073.79 -116.313H1004.25L970.659 -169.518L1107.38 -169.52ZM1001.01 -113.773L968.024 -61.5278L899.693 -169.774H965.654L1001.01 -113.773ZM827.675 -173.611L860.903 -226.249H929.97L963.199 -173.611H827.675ZM787.984 -118.515L755.003 -170.761L790.03 -226.249H855.992L787.984 -118.515ZM786.167 -113.718C786.206 -113.655 786.264 -113.606 786.31 -113.55L820.359 -59.6094H754.43L719.642 -114.719L752.59 -166.911L786.167 -113.718ZM715.805 -116.313H648.633L717.016 -224.643L750.602 -171.437L715.805 -116.313ZM681.008 -175.301L612.678 -283.54H679.849L714.594 -228.505L681.008 -175.301ZM677.375 -173.382H610.203L575.424 -228.479L609.01 -281.686L677.375 -173.382ZM677.375 -169.52L643.789 -116.313H574.245L540.659 -169.518L677.375 -169.52ZM571.005 -113.773L538.024 -61.5278L469.694 -169.774H535.654L571.005 -113.773ZM397.675 -173.611L430.903 -226.249H499.97L533.199 -173.611H397.675ZM357.984 -118.515L325.002 -170.76L360.03 -226.249H425.992L357.984 -118.515ZM356.167 -113.718C356.206 -113.656 356.262 -113.607 356.309 -113.551L390.359 -59.6094H324.43L289.642 -114.719L322.589 -166.911L356.167 -113.718ZM285.805 -116.313H218.633L287.016 -224.643L320.602 -171.437L285.805 -116.313ZM251.008 -175.301L182.678 -283.54H249.849L280.835 -234.462L284.594 -228.505L251.008 -175.301ZM247.375 -173.382H180.203L145.424 -228.479L179.01 -281.686L247.375 -173.382ZM247.375 -169.52L213.789 -116.313H144.245L110.659 -169.518L247.375 -169.52ZM145.03 -112.477H210.992L142.984 -4.74194L110.002 -56.9874L145.03 -112.477ZM179.01 -54.1381L247.375 54.1633H180.203L145.424 -0.931885L179.01 -54.1381ZM247.375 58.0258L213.789 111.232H144.245L110.659 58.027L247.375 58.0258ZM145.03 115.069H210.992L142.984 222.805L110.002 170.558L145.03 115.069ZM179.01 173.407L247.375 281.709H180.203L145.424 226.613L179.01 173.407ZM247.375 285.571L213.789 338.776H144.245L110.659 285.571H247.375ZM145.031 342.613H210.994L142.984 450.35L110.003 398.103L145.031 342.613ZM179.01 400.953L247.375 509.254H180.203L145.424 454.159L179.01 400.953ZM247.375 513.118L213.789 566.323H144.245L110.659 513.118H247.375ZM145.031 570.159H210.994L142.984 677.895L110.003 625.648L145.031 570.159ZM179.01 628.498L247.375 736.799H180.203L145.424 681.704L179.01 628.498ZM247.375 740.663L213.789 793.868H144.245L110.659 740.663H247.375ZM145.031 797.705H210.994L142.984 905.441L110.003 853.194L145.031 797.705ZM179.01 856.043L247.375 964.345H180.203L145.424 909.249L179.01 856.043ZM182.678 854.18H249.849L284.594 909.221L251.008 962.427L182.678 854.18ZM182.675 850.343L215.903 797.705H286.212L319.442 850.343H182.675ZM289.642 795.463L322.589 743.271L356.167 796.464C356.206 796.526 356.262 796.575 356.309 796.632L390.359 850.572H324.431L289.642 795.463ZM462.375 854.436L428.789 907.64H360.456L326.871 854.436H462.375ZM502.016 799.311L535.602 852.517L500.805 907.64H433.633L502.016 799.311ZM469.694 740.407H535.654L571.005 796.408L538.024 848.654L469.694 740.407ZM575.031 797.705H640.994L572.984 905.441L540.003 853.194L575.031 797.705ZM609.01 856.043L677.375 964.345H610.203L575.424 909.249L609.01 856.043ZM612.678 854.18H679.849L714.594 909.221L681.008 962.427L612.678 854.18ZM612.675 850.343L645.903 797.705H716.212L749.443 850.343H612.675ZM719.642 795.463L752.59 743.271L786.167 796.464C786.208 796.527 786.264 796.577 786.31 796.633L820.359 850.572H754.431L719.642 795.463ZM892.375 854.436L858.789 907.64H790.456L756.871 854.436H892.375ZM932.016 799.311L965.602 852.517L930.805 907.64H863.633L932.016 799.311ZM899.693 740.407H965.654L1001.01 796.408L968.024 848.654L899.693 740.407ZM1005.03 797.705H1070.99L1002.98 905.441L970.003 853.194L1005.03 797.705ZM1039.01 856.043L1073.18 910.18L1107.38 964.345H1040.2L1005.42 909.249L1039.01 856.043ZM1042.68 854.18H1109.85L1144.59 909.221L1111.01 962.427L1042.68 854.18ZM1042.68 850.343L1075.9 797.705H1146.21L1179.44 850.343H1042.68ZM1149.64 795.463L1182.59 743.271L1216.17 796.464C1216.21 796.527 1216.26 796.577 1216.31 796.633L1250.36 850.572H1184.43L1149.64 795.463ZM1322.38 854.436L1288.79 907.64H1220.46L1186.87 854.436H1322.38ZM1362.02 799.311L1395.6 852.517L1360.81 907.64H1293.63L1362.02 799.311ZM1329.69 740.407H1395.65L1431 796.408L1398.02 848.654L1329.69 740.407ZM1435.03 797.705H1501L1432.98 905.441L1400 853.194L1435.03 797.705ZM1469.01 856.043L1503.18 910.18L1537.37 964.345H1470.21L1435.42 909.249L1469.01 856.043ZM1472.67 854.18H1539.85L1574.6 909.221L1541.01 962.427L1472.67 854.18ZM1472.67 850.343L1505.91 797.705H1576.22L1609.44 850.343H1472.67ZM1575.8 793.868H1508.64L1577.02 685.54L1610.61 738.745L1575.8 793.868ZM1541.01 734.881L1472.67 626.635H1539.85L1574.6 681.676L1541.01 734.881ZM1472.67 622.798L1505.91 570.159H1576.22L1609.44 622.798H1472.67ZM1575.8 566.323H1508.64L1577.02 457.993L1610.61 511.199L1575.8 566.323ZM1541.01 507.336L1472.67 399.089H1539.85L1574.6 454.131L1541.01 507.336ZM1472.67 395.252L1505.91 342.613H1576.22L1609.44 395.252H1472.67ZM1575.8 338.776H1508.64L1577.02 230.448L1610.61 283.653L1575.8 338.776ZM1541.01 279.79L1472.67 171.544H1539.85L1574.6 226.585L1541.01 279.79ZM1472.67 167.707L1505.91 115.069H1576.22L1609.44 167.707H1472.67ZM1575.8 111.232H1508.64L1577.02 2.90247L1610.61 56.1073L1575.8 111.232ZM1541.01 52.2448L1472.67 -56.0013H1539.85L1574.6 -0.960022L1541.01 52.2448ZM1472.67 -59.8383L1505.91 -112.477H1576.22L1609.44 -59.8383H1472.67ZM1575.8 -116.313H1508.64L1577.02 -224.643L1610.61 -171.437L1575.8 -116.313ZM1541.01 -175.301L1472.67 -283.54H1539.85L1574.6 -228.505L1541.01 -175.301ZM1435.03 -340.019H1500.99L1432.98 -232.286L1400 -284.538L1435.03 -340.019ZM1431.17 -227.49C1431.21 -227.427 1431.26 -227.38 1431.31 -227.322L1465.36 -173.382H1398.19L1364.02 -227.508L1397.59 -280.688L1431.17 -227.49ZM1362.02 -338.421L1395.6 -285.216L1360.81 -230.086H1293.63L1362.02 -338.421ZM1322.38 -283.297L1288.79 -230.086H1220.46L1186.87 -283.297H1322.38ZM1216.61 -228.505L1183.02 -175.301L1114.69 -283.54H1181.87L1216.61 -228.505ZM1146.21 -340.019L1179.44 -287.377H1042.68L1075.9 -340.019H1146.21ZM1005.03 -340.019H1070.99L1002.98 -232.286L970.003 -284.538L1005.03 -340.019ZM1001.17 -227.49C1001.21 -227.427 1001.26 -227.38 1001.31 -227.322L1035.36 -173.382H968.187L934.021 -227.508L967.59 -280.688L1001.17 -227.49ZM932.016 -338.421L965.602 -285.216L930.805 -230.086H863.633L932.016 -338.421ZM892.375 -283.297L858.789 -230.086H790.456L756.87 -283.297H892.375ZM786.611 -228.505L753.024 -175.301L684.694 -283.54H751.865L786.611 -228.505ZM716.214 -340.019L749.443 -287.377H612.675L645.903 -340.019H716.214ZM575.03 -340.019H640.992L572.984 -232.286L540.002 -284.538L575.03 -340.019ZM571.167 -227.49C571.206 -227.428 571.262 -227.38 571.308 -227.323L605.359 -173.382H538.187L504.02 -227.506L537.589 -280.688L571.167 -227.49ZM502.016 -338.421L535.602 -285.216L500.805 -230.086H433.633L502.016 -338.421ZM462.375 -283.297L428.789 -230.086H360.456L326.87 -283.297H462.375ZM356.611 -228.505L323.024 -175.301L254.694 -283.54H321.865L356.611 -228.505ZM286.214 -340.019L319.442 -287.377H182.675L215.903 -340.019H286.214ZM145.03 -340.019H210.992L142.984 -232.286L110.002 -284.538L145.03 -340.019ZM3.63305 -230.086L72.0163 -338.421L105.602 -285.216L70.8053 -230.086H3.63305ZM74.0204 -227.506L107.589 -280.688L141.167 -227.49C141.206 -227.428 141.262 -227.38 141.308 -227.323L175.359 -173.382H108.187L74.0204 -227.506ZM39.6935 -169.774H105.654L141.005 -113.773L108.024 -61.5278L39.6935 -169.774ZM3.63305 -2.54077L72.0163 -110.87L105.602 -57.6641L70.8053 -2.54077H3.63305ZM74.0204 0.0388184L107.589 -53.1378L141.167 0.0541992C141.206 0.116882 141.262 0.165466 141.308 0.221741L175.359 54.1633H108.187L74.0204 0.0388184ZM39.6935 57.7712H105.654L141.005 113.772L108.024 166.018L39.6935 57.7712ZM3.63305 225.005L72.0163 116.675L105.602 169.88L70.8053 225.005H3.63305ZM74.0204 227.584L107.589 174.406L141.167 227.601C141.206 227.662 141.262 227.711 141.308 227.767L175.359 281.709H108.187L74.0204 227.584ZM39.6935 285.317H105.655L141.005 341.317L108.024 393.563L39.6935 285.317ZM3.63305 452.549L72.0163 344.22L105.602 397.427L70.8053 452.549H3.63305ZM74.0199 455.13L107.589 401.953L141.167 455.146C141.206 455.208 141.262 455.257 141.308 455.314L175.359 509.254H108.187L74.0199 455.13ZM39.6935 512.862H105.654L141.005 568.863L108.024 621.108L39.6935 512.862ZM3.63305 680.095L72.0163 571.766L105.602 624.972L70.8053 680.095H3.63305ZM74.0199 682.675L107.589 629.498L141.167 682.691C141.206 682.753 141.262 682.803 141.308 682.859L175.359 736.799H108.187L74.0199 682.675ZM39.6935 740.407H105.654L141.005 796.408L108.024 848.654L39.6935 740.407ZM3.63305 907.64L72.0163 799.311L105.602 852.517L70.8053 907.64H3.63305ZM74.0199 910.22L107.589 857.043L141.167 910.237C141.206 910.299 141.262 910.348 141.308 910.405L175.359 964.345H108.187L74.0199 910.22ZM144.245 1021.41L110.659 968.208H247.375L213.789 1021.41H144.245ZM285.805 1021.41H218.633L287.016 913.084L320.602 966.29L285.805 1021.41ZM254.694 854.18H321.865L356.611 909.221L323.024 962.427L254.694 854.18ZM357.984 1019.21L325.003 966.966L360.031 911.477H425.994L357.984 1019.21ZM397.675 964.115L430.903 911.477H499.969L533.197 964.115H397.675ZM504.02 910.22L537.589 857.043L571.167 910.237C571.206 910.299 571.262 910.348 571.308 910.405L605.359 964.345H538.187L504.02 910.22ZM574.245 1021.41L540.659 968.208H677.375L643.789 1021.41H574.245ZM715.805 1021.41H648.633L717.016 913.084L750.602 966.29L715.805 1021.41ZM684.694 854.18H751.865L786.611 909.221L753.024 962.427L684.694 854.18ZM787.984 1019.21L755.003 966.966L790.031 911.477H855.994L787.984 1019.21ZM827.675 964.115L860.903 911.477H929.969L963.197 964.115H827.675ZM934.02 910.22L967.59 857.043L1001.17 910.237C1001.21 910.299 1001.26 910.349 1001.31 910.406L1035.36 964.345H968.187L934.02 910.22ZM1004.25 1021.41L970.659 968.208H1107.38L1073.79 1021.41H1004.25ZM1145.81 1021.41H1078.63L1147.02 913.084L1180.6 966.29L1145.81 1021.41ZM1114.69 854.18H1181.87L1216.61 909.221L1183.02 962.427L1114.69 854.18ZM1217.98 1019.21L1185 966.966L1220.03 911.477H1285.99L1217.98 1019.21ZM1257.68 964.115L1290.9 911.477H1359.97L1393.2 964.115H1257.68ZM1364.02 910.22L1397.59 857.043L1431.17 910.237C1431.21 910.299 1431.26 910.349 1431.31 910.406L1465.36 964.345H1398.19L1364.02 910.22ZM1434.24 1021.41L1400.65 968.208H1537.37L1503.78 1021.41H1434.24ZM1575.8 1021.41H1508.64L1577.02 913.084L1610.61 966.29L1575.8 1021.41ZM1716 911.477L1647.98 1019.21L1615 966.966L1650.03 911.477H1716ZM1646.61 909.221L1613.02 962.427L1544.69 854.18H1611.86L1646.61 909.221ZM1680.36 850.572H1614.44L1579.65 795.463L1612.59 743.271L1646.17 796.464C1646.21 796.527 1646.26 796.577 1646.31 796.633L1680.36 850.572ZM1716 683.932L1647.98 791.668L1615 739.42L1650.03 683.932H1716ZM1646.61 681.676L1613.02 734.881L1544.69 626.635H1611.86L1646.61 681.676ZM1680.36 623.027H1614.44L1579.65 567.917L1612.59 515.725L1646.17 568.919C1646.21 568.982 1646.26 569.03 1646.31 569.088L1680.36 623.027ZM1716 456.385L1647.98 564.123L1615 511.875L1650.03 456.385H1716ZM1646.61 454.131L1613.02 507.336L1544.69 399.089H1611.86L1646.61 454.131ZM1680.36 395.481H1614.44L1579.65 340.372L1612.59 288.18L1646.17 341.374C1646.21 341.436 1646.26 341.485 1646.31 341.542L1680.36 395.481ZM1715.99 228.841L1647.98 336.577L1615 284.329L1650.03 228.841H1715.99ZM1646.61 226.585L1613.02 279.79L1544.69 171.544H1611.86L1646.61 226.585ZM1680.36 167.936H1614.44L1579.65 112.827L1612.59 60.6335L1646.17 113.827C1646.21 113.891 1646.26 113.939 1646.31 113.996L1680.36 167.936ZM1715.99 1.29608L1647.98 109.031L1615 56.7839L1650.03 1.29608H1715.99ZM1646.61 -0.960022L1613.02 52.2448L1544.69 -56.0013H1611.86L1646.61 -0.960022ZM1680.36 -59.6094H1614.44L1579.65 -114.719L1612.59 -166.911L1646.17 -113.718C1646.21 -113.655 1646.26 -113.606 1646.31 -113.55L1680.36 -59.6094ZM1715.99 -226.249L1647.98 -118.515L1615 -170.761L1650.03 -226.249H1715.99ZM1646.61 -228.505L1613.02 -175.301L1544.69 -283.54H1611.86L1646.61 -228.505Z" fill="#F4F4F4" stroke="black" stroke-width="2" mask="url(#path-2-inside-1_8022_2134)"/>
</g>
</g>
</svg>
