<svg width="500" height="500" viewBox="0 0 500 500" fill="none" xmlns="http://www.w3.org/2000/svg">
<path opacity="0.2" fill-rule="evenodd" clip-rule="evenodd" d="M-140.265 387.52H-305.483V389.52H-146.455L-178.081 397.771H-340.363V399.771H-185.747L-222.284 409.303H-380.583V411.303H-229.95L-273.037 422.544H-427.209V424.544H-280.703L-331.974 437.919H-479.531V439.919H-339.64L-400.736 455.858H-541.818V457.858H-408.402L-482.594 477.214H-615.494V479.214H-490.26L-579.187 502.413H-703.764V504.413H-586.853L-700.337 534.019H-813.033V536.019H-708.004L-1302.68 691.162L-1302.18 693.097L-700.081 536.019H-641.952L-1195.92 691.167L-1195.38 693.093L-634.536 536.019H-575.981L-1088.81 691.173L-1088.23 693.087L-569.075 536.019H-509.977L-981.698 691.18L-981.074 693.08L-503.576 536.019H-443.737L-874.591 691.189L-873.913 693.071L-437.835 536.019H-377.942L-767.844 691.201L-767.105 693.059L-372.533 536.019H-311.808L-660.747 691.216L-659.934 693.043L-306.887 536.019H-245.757L-553.657 691.237L-552.757 693.023L-241.314 536.019H-179.863L-446.577 691.265L-445.57 692.994L-175.887 536.019H-114.038L-339.862 691.306L-338.729 692.954L-110.509 536.019H-47.7548L-232.805 691.364L-231.519 692.896L-44.6442 536.019H18.1554L-125.762 691.45L-124.295 692.809L20.8811 536.019H84.0498L-18.7289 691.578L-17.0602 692.681L86.447 536.019H149.731L87.9536 691.761L89.8127 692.498L151.882 536.019H215.709L195.026 691.998L197.008 692.261L217.726 536.019H281.446L302.159 692.261L304.142 691.998L283.464 536.019H347.146L409.355 692.499L411.214 691.76L349.298 536.019H412.752L516.228 692.681L517.896 691.579L415.149 536.019H478.312L623.462 692.809L624.929 691.45L481.037 536.019H543.845L730.687 692.896L731.973 691.364L546.955 536.019H609.552L837.897 692.954L839.03 691.306L613.083 536.019H674.908L944.738 692.994L945.744 691.265L678.885 536.019H740.432L1051.92 693.023L1052.82 691.237L744.875 536.019H806.138L1159.1 693.043L1159.91 691.216L811.059 536.019H871.537L1266.27 693.059L1267.01 691.201L876.947 536.019H936.904L1373.08 693.071L1373.76 691.189L942.808 536.019H1002.45L1480.24 693.08L1480.87 691.18L1008.86 536.019H1068.06L1587.4 693.087L1587.98 691.172L1074.97 536.019H1133.84L1694.55 693.093L1695.09 691.167L1141.25 536.019H1198.92L1801.35 693.097L1801.85 691.162L1206.85 536.019H1312.01V534.019H1199.18L1085.63 504.413H1202.47V502.413H1077.96L988.986 479.214H1114.48V477.214H981.316L907.084 457.858H1040.76V455.858H899.414L838.285 439.919H978.446V437.919H830.615L779.316 424.544H925.92V422.544H771.645L728.535 411.303H879.856V409.303H720.865L684.308 399.771H839.542V397.771H676.638L644.995 389.52H804.525V387.52H639.433V-22H637.433V387.52H612.383V-22H610.383V387.52H585.688V-22H583.688V387.52H558.994V-22H556.994V387.52H531.943V-22H529.943V387.52H505.249V-22H503.249V387.52H478.554V-22H476.554V387.52H451.504V-21.7864H449.504V387.52H424.809V-22H422.809V387.52H398.115V-21.7864H396.115V387.52H371.065V-22H369.065V387.52H344.37V-22H342.37V387.52H317.676V-22H315.676V387.52H290.625V-22H288.625V387.52H263.931V-22H261.931V387.52H237.236V-22H235.236V387.52H210.186V-22H208.186V387.52H183.492V-22H181.492V387.52H156.797V-22H154.797V387.52H130.103L130.103 -22H128.103L128.103 387.52H103.052V-22H101.052V387.52H76.3579V-22H74.3579V387.52H49.6636V-22H47.6636V387.52H22.6133V-22H20.6133V387.52H-4.0813V-22H-6.0813V387.52H-30.7756V-22H-32.7756V387.52H-57.8262V-22H-59.8262V387.52H-84.5205L-84.5206 -22H-86.5206L-86.5205 387.52H-111.215L-111.215 -22H-113.215L-113.215 387.52H-138.265V-22H-140.265V387.52ZM-118.861 389.52H-138.533L-139.013 389.646L-170.158 397.771H-148.321L-118.861 389.52ZM-111.445 389.52L-111.945 389.66L-140.905 397.771H-119.029L-91.7578 389.52H-111.445ZM-84.8513 389.52L-85.231 389.635L-112.122 397.771H-89.6711L-64.5875 389.52H-84.8513ZM-58.1865 389.52L-58.5137 389.628L-83.2701 397.771H-59.8671L-36.9579 389.52H-58.1865ZM-31.0553 389.52L-31.4368 389.658L-53.9646 397.771H-30.5834L-9.85315 389.52H-31.0553ZM-4.44458 389.52L-4.71143 389.627L-25.1748 397.771H-0.974731L17.5757 389.52H-4.44458ZM22.4971 389.52L22.0195 389.733L3.94653 397.771H28.4818L44.8483 389.52H22.4971ZM49.2913 389.52L49.1138 389.61L32.9248 397.771H57.649L71.8236 389.52H49.2913ZM75.7993 389.52L61.6248 397.771H87.0082L99.0066 389.52H75.7993ZM102.536 389.52L90.5378 397.771H116.93L126.759 389.52H102.536ZM129.869 389.52L129.746 389.624L120.041 397.771H146.163L153.803 389.52H129.869ZM156.529 389.52L148.889 397.771H175.391L180.843 389.52H156.529ZM183.24 389.52L177.788 397.771H204.569L207.842 389.52H183.24ZM209.993 389.52L206.72 397.771H234.041L235.135 389.52H209.993ZM237.152 389.52L236.058 397.771H263.118L262.025 389.52H237.152ZM264.042 389.52L265.136 397.771H292.185L288.905 389.52H264.042ZM291.057 389.52L294.337 397.771H321.438L315.988 389.52H291.057ZM318.385 389.52L323.835 397.771H350.326L342.688 389.52H318.385ZM345.413 389.52L353.052 397.771H379.189L369.422 389.57L369.362 389.52H345.413ZM372.473 389.52L382.299 397.771H408.396L396.549 389.628L396.391 389.52H372.473ZM399.922 389.52L411.927 397.771H437.267L423.307 389.65L423.085 389.52H399.922ZM427.062 389.52L441.244 397.771H466.148L450.054 389.659L449.779 389.52H427.062ZM454.223 389.52L470.592 397.771H495.379L477.148 389.661L476.833 389.52H454.223ZM481.753 389.52L500.299 397.771H524.034L503.879 389.753L503.295 389.52H481.753ZM508.706 389.52L529.445 397.771H552.948L530.605 389.726L530.034 389.52H508.706ZM535.937 389.52L558.852 397.771H581.893L557.681 389.812L556.994 389.586V389.52H535.937ZM563.198 389.52L588.297 397.771H610.945L584.399 389.742L583.688 389.527V389.52H563.198ZM590.574 389.52L617.854 397.771H640.32L611.113 389.589L610.868 389.52H590.574ZM618.282 389.52L647.735 397.771H668.711L638.181 389.811L637.433 389.616V389.52H618.282ZM-214.361 409.303L-177.824 399.771H-155.462L-189.497 409.303H-214.361ZM-182.081 409.303L-148.046 399.771H-125.639L-157.145 409.303H-182.081ZM-150.238 409.303L-118.733 399.771H-95.7516L-124.73 409.303H-150.238ZM-118.33 409.303L-89.3506 399.771H-65.4204L-91.8872 409.303H-118.33ZM-85.9847 409.303L-59.5179 399.771H-35.6085L-59.558 409.303H-85.9847ZM-54.1493 409.303L-30.2 399.771H-5.47144L-26.9026 409.303H-54.1493ZM-21.9813 409.303L-0.550171 399.771H24.5145L5.60645 409.303H-21.9813ZM10.0494 409.303L28.9575 399.771H54.213L37.8372 409.303H10.0494ZM41.813 409.303L58.1887 399.771H84.0996L70.238 409.303H41.813ZM73.7677 409.303L87.6294 399.771H114.548L103.193 409.303H73.7677ZM106.304 409.303L117.658 399.771H144.312L135.486 409.303H106.304ZM138.211 409.303L147.037 399.771H174.07L167.772 409.303H138.211ZM170.169 409.303L176.467 399.771H203.776L199.995 409.303H170.169ZM202.146 409.303L205.927 399.771H233.775L232.511 409.303H202.146ZM234.529 409.303L235.793 399.771H263.384L264.647 409.303H234.529ZM266.665 409.303L265.401 399.771H292.98L296.77 409.303H266.665ZM298.922 409.303L295.132 399.771H322.759L329.055 409.303H298.922ZM331.452 409.303L325.156 399.771H352.178L361.002 409.303H331.452ZM363.727 409.303L354.903 399.771H381.571L392.924 409.303H363.727ZM396.034 409.303L384.681 399.771H411.306L425.176 409.303H396.034ZM428.707 409.303L414.838 399.771H440.705L457.09 409.303H428.707ZM461.067 409.303L444.682 399.771H470.116L489.027 409.303H461.067ZM493.471 409.303L474.56 399.771H499.874L521.3 409.303H493.471ZM526.221 409.303L504.795 399.771H529.061L553.021 409.303H526.221ZM558.431 409.303L534.472 399.771H558.503L584.975 409.303H558.431ZM590.879 409.303L564.406 399.771H587.977L616.973 409.303H590.879ZM623.378 409.303L594.381 399.771H617.558L649.075 409.303H623.378ZM655.984 409.303L624.467 399.771H647.46L681.487 409.303H655.984ZM688.901 409.303L654.875 399.771H676.381L712.938 409.303H688.901ZM-222.027 411.303L-265.114 422.544H-236.774L-196.638 411.303H-222.027ZM-189.222 411.303L-229.358 422.544H-200.909L-163.755 411.303H-189.222ZM-156.849 411.303L-194.003 422.544H-164.985L-130.811 411.303H-156.849ZM-124.41 411.303L-158.584 422.544H-128.652L-97.4406 411.303H-124.41ZM-91.5381 411.303L-122.75 422.544H-92.8258L-64.5831 411.303H-91.5381ZM-59.1744 411.303L-87.4172 422.544H-56.6724L-31.3994 411.303H-59.1744ZM-26.478 411.303L-51.7511 422.544H-20.6586L1.63904 411.303H-26.478ZM6.08203 411.303L-16.2156 422.544H15.0897L34.4011 411.303H6.08203ZM38.377 411.303L19.0656 422.544H50.983L67.3296 411.303H38.377ZM70.8593 411.303L54.5127 422.544H87.4207L100.811 411.303H70.8593ZM103.921 411.303L90.5311 422.544H123.226L133.634 411.303H103.921ZM136.36 411.303L125.952 422.544H159.024L166.451 411.303H136.36ZM168.848 411.303L161.421 422.544H194.743L199.201 411.303H168.848ZM201.353 411.303L196.894 422.544H230.756L232.246 411.303H201.353ZM234.264 411.303L232.773 422.544H266.403L264.912 411.303H234.264ZM266.93 411.303L268.42 422.544H302.033L297.565 411.303H266.93ZM299.717 411.303L304.186 422.544H337.8L330.376 411.303H299.717ZM332.773 411.303L340.197 422.544H373.26L362.853 411.303H332.773ZM365.579 411.303L375.985 422.544H408.693L395.306 411.303H365.579ZM398.416 411.303L411.804 422.544H444.441L428.086 411.303H398.416ZM431.617 411.303L447.972 422.544H479.849L460.528 411.303H431.617ZM464.505 411.303L483.827 422.544H515.297L492.995 411.303H464.505ZM497.439 411.303L519.74 422.544H551.063L525.796 411.303H497.439ZM530.717 411.303L555.984 422.544H586.302L558.048 411.303H530.717ZM563.458 411.303L591.713 422.544H621.749L590.53 411.303H563.458ZM596.434 411.303L627.652 422.544H657.252L623.057 411.303H596.434ZM629.462 411.303L663.657 422.544H692.855L655.688 411.303H629.462ZM662.597 411.303L699.763 422.544H728.752L688.626 411.303H662.597ZM696.041 411.303L736.167 422.544H763.718L720.608 411.303H696.041ZM-324.051 437.919L-272.78 424.544H-243.915L-291.675 437.919H-324.051ZM-284.259 437.919L-236.499 424.544H-207.52L-251.731 437.919H-284.259ZM-244.824 437.919L-200.613 424.544H-171.065L-211.731 437.919H-244.824ZM-205.33 437.919L-164.664 424.544H-134.205L-171.346 437.919H-205.33ZM-165.443 437.919L-128.303 424.544H-97.851L-131.459 437.919H-165.443ZM-126.05 437.919L-92.4423 424.544H-61.1692L-91.2429 437.919H-126.05ZM-86.3217 437.919L-56.2478 424.544H-24.626L-51.1592 437.919H-86.3217ZM-46.7162 437.919L-20.183 424.544H11.6537L-11.326 437.919H-46.7162ZM-7.35022 437.919L15.6295 424.544H48.0745L28.6228 437.919H-7.35022ZM32.1526 437.919L51.6042 424.544H85.0382L69.1046 437.919H32.1526ZM72.2151 437.919L88.1487 424.544H121.374L108.989 437.919H72.2151ZM111.715 437.919L124.1 424.544H157.703L148.865 437.919H111.715ZM151.262 437.919L160.1 424.544H193.949L188.644 437.919H151.262ZM190.795 437.919L196.101 424.544H230.491L228.717 437.919H190.795ZM230.734 437.919L232.508 424.544H266.668L268.441 437.919H230.734ZM270.458 437.919L268.685 424.544H302.828L308.146 437.919H270.458ZM310.298 437.919L304.981 424.544H339.121L347.956 437.919H310.298ZM350.353 437.919L341.518 424.544H375.111L387.494 437.919H350.353ZM390.219 437.919L377.837 424.544H411.075L427.006 437.919H390.219ZM430.117 437.919L414.186 424.544H447.351L466.813 437.919H430.117ZM470.344 437.919L450.882 424.544H483.287L506.28 437.919H470.344ZM510.257 437.919L487.265 424.544H519.265L545.802 437.919H510.257ZM550.246 437.919L523.708 424.544H555.559L585.625 437.919H550.246ZM590.546 437.919L560.479 424.544H591.33L624.951 437.919H590.546ZM630.362 437.919L596.74 424.544H627.303L664.452 437.919H630.362ZM670.355 437.919L633.207 424.544H663.336L704.026 437.919H670.355ZM710.431 437.919L669.741 424.544H699.468L743.694 437.919H710.431ZM750.603 437.919L706.376 424.544H735.892L783.641 437.919H750.603ZM791.055 437.919L743.307 424.544H771.389L822.688 437.919H791.055ZM-331.718 439.919L-392.813 455.858H-355.728L-298.816 439.919H-331.718ZM-291.4 439.919L-348.312 455.858H-311.024L-258.341 439.919H-291.4ZM-251.435 439.919L-304.118 455.858H-266.269L-217.811 439.919H-251.435ZM-211.41 439.919L-259.868 455.858H-221.156L-176.899 439.919H-211.41ZM-170.996 439.919L-215.253 455.858H-176.531L-136.484 439.919H-170.996ZM-131.075 439.919L-171.122 455.858H-131.576L-95.7396 439.919H-131.075ZM-90.8184 439.919L-126.655 455.858H-86.7439L-55.1265 439.919H-90.8184ZM-50.6835 439.919L-82.3009 455.858H-42.1451L-14.7621 439.919H-50.6835ZM-10.7863 439.919L-38.1693 455.858H2.5354L25.7144 439.919H-10.7863ZM29.2441 439.919L6.06519 455.858H47.7354L66.7222 439.919H29.2441ZM69.8326 439.919L50.8458 455.858H92.3789L107.137 439.919H69.8326ZM109.863 439.919L95.1046 455.858H137.013L147.544 439.919H109.863ZM149.941 439.919L139.41 455.858H181.528L187.85 439.919H149.941ZM190.002 439.919L183.679 455.858H226.338L228.452 439.919H190.002ZM230.469 439.919L228.356 455.858H270.819L268.706 439.919H230.469ZM270.724 439.919L272.837 455.858H315.278L308.941 439.919H270.724ZM311.093 439.919L317.43 455.858H359.805L349.277 439.919H311.093ZM351.674 439.919L362.202 455.858H404.101L389.345 439.919H351.674ZM392.071 439.919L406.827 455.858H448.372L429.388 439.919H392.071ZM432.499 439.919L451.482 455.858H492.915L469.723 439.919H432.499ZM473.255 439.919L496.446 455.858H537.115L509.718 439.919H473.255ZM513.695 439.919L541.093 455.858H581.392L549.77 439.919H513.695ZM554.214 439.919L585.836 455.858H625.949L590.121 439.919H554.214ZM595.042 439.919L630.869 455.858H670.043L629.979 439.919H595.042ZM635.389 439.919L675.453 455.858H714.273L670.006 439.919H635.389ZM675.91 439.919L720.177 455.858H758.598L710.111 439.919H675.91ZM716.515 439.919L765.002 455.858H803.009L750.307 439.919H716.515ZM757.216 439.919L809.917 455.858H847.678L790.78 439.919H757.216ZM798.195 439.919L855.093 455.858H891.487L830.358 439.919H798.195ZM-474.671 477.214L-400.479 457.858H-362.869L-431.98 477.214H-474.671ZM-424.564 477.214L-355.453 457.858H-317.635L-381.61 477.214H-424.564ZM-374.704 477.214L-310.728 457.858H-272.349L-331.194 477.214H-374.704ZM-324.793 477.214L-265.948 457.858H-226.709L-280.453 477.214H-324.793ZM-274.55 477.214L-220.807 457.858H-181.556L-230.188 477.214H-274.55ZM-224.779 477.214L-176.148 457.858H-136.073L-179.591 477.214H-224.779ZM-174.67 477.214L-131.151 457.858H-90.7113L-129.106 477.214H-174.67ZM-124.663 477.214L-86.2683 457.858H-45.5812L-78.834 477.214H-124.663ZM-74.8582 477.214L-41.6053 457.858H-0.373169L-28.5206 477.214H-74.8582ZM-24.9908 477.214L3.15662 457.858H45.3529L22.2961 477.214H-24.9908ZM25.4067 477.214L48.4634 457.858H90.5271L72.6053 477.214H25.4067ZM75.3311 477.214L93.2528 457.858H135.691L122.903 477.214H75.3311ZM125.3 477.214L138.089 457.858H180.734L173.057 477.214H125.3ZM175.208 477.214L182.886 457.858H226.073L223.506 477.214H175.208ZM225.524 477.214L228.09 457.858H271.084L273.65 477.214H225.524ZM275.668 477.214L273.102 457.858H316.073L323.768 477.214H275.668ZM325.92 477.214L318.225 457.858H361.126L373.91 477.214H325.92ZM376.307 477.214L363.523 457.858H405.953L423.871 477.214H376.307ZM426.597 477.214L408.678 457.858H450.754L473.806 477.214H426.597ZM476.917 477.214L453.864 457.858H495.825L523.988 477.214H476.917ZM527.519 477.214L499.356 457.858H540.553L573.824 477.214H527.519ZM577.801 477.214L544.531 457.858H585.36L623.761 477.214H577.801ZM628.205 477.214L589.804 457.858H630.444L673.952 477.214H628.205ZM678.873 477.214L635.365 457.858H675.07L723.722 477.214H678.873ZM729.132 477.214L680.48 457.858H719.828L773.583 477.214H729.132ZM779.487 477.214L725.731 457.858H764.682L823.562 477.214H779.487ZM829.967 477.214L771.086 457.858H809.622L873.62 477.214H829.967ZM880.528 477.214L816.53 457.858H854.818L923.912 477.214H880.528ZM931.327 477.214L862.232 457.858H899.157L973.389 477.214H931.327ZM-482.337 479.214L-571.264 502.413H-521.957L-439.121 479.214H-482.337ZM-431.705 479.214L-514.541 502.413H-464.903L-388.221 479.214H-431.705ZM-381.314 479.214L-457.996 502.413H-407.806L-337.275 479.214H-381.314ZM-330.874 479.214L-401.405 502.413H-350.424L-286.006 479.214H-330.874ZM-280.104 479.214L-344.521 502.413H-293.504L-235.213 479.214H-280.104ZM-229.805 479.214L-288.095 502.413H-236.249L-184.088 479.214H-229.805ZM-179.166 479.214L-231.328 502.413H-179.094L-133.073 479.214H-179.166ZM-128.63 479.214L-174.651 502.413H-122.127L-82.2699 479.214H-128.63ZM-78.2942 479.214L-118.151 502.413H-65.1669L-31.4291 479.214H-78.2942ZM-27.8993 479.214L-61.6371 502.413H-7.72217L19.9137 479.214H-27.8993ZM23.0243 479.214L-4.61157 502.413H49.2725L70.7535 479.214H23.0243ZM73.4792 479.214L51.9982 502.413H106.254L121.582 479.214H73.4792ZM123.979 479.214L108.651 502.413H163.061L172.264 479.214H123.979ZM174.415 479.214L165.213 502.413H220.165L223.241 479.214H174.415ZM225.259 479.214L222.182 502.413H276.991L273.915 479.214H225.259ZM275.933 479.214L279.008 502.413H333.786L324.563 479.214H275.933ZM326.715 479.214L335.938 502.413H390.555L375.231 479.214H326.715ZM377.628 479.214L392.952 502.413H447.2L425.723 479.214H377.628ZM428.448 479.214L449.926 502.413H503.819L476.188 479.214H428.448ZM479.299 479.214L506.93 502.413H560.654L526.898 479.214H479.299ZM530.429 479.214L564.185 502.413H617.141L577.262 479.214H530.429ZM581.239 479.214L621.118 502.413H673.757L627.729 479.214H581.239ZM632.173 479.214L678.201 502.413H730.597L678.448 479.214H632.173ZM683.369 479.214L735.517 502.413H787.064L728.749 479.214H683.369ZM734.159 479.214L792.474 502.413H843.57L779.138 479.214H734.159ZM785.042 479.214L849.474 502.413H900.221L829.646 479.214H785.042ZM836.051 479.214L906.625 502.413H956.941L880.233 479.214H836.051ZM887.141 479.214L963.85 502.413H1013.87L931.052 479.214H887.141ZM938.466 479.214L1021.28 502.413H1070.03L981.06 479.214H938.466ZM-692.414 534.019L-578.93 504.413H-529.099L-634.811 534.019H-692.414ZM-627.395 534.019L-521.683 504.413H-471.513L-569.371 534.019H-627.395ZM-562.464 534.019L-464.607 504.413H-413.887L-503.896 534.019H-562.464ZM-497.495 534.019L-407.486 504.413H-355.977L-438.184 534.019H-497.495ZM-432.281 534.019L-350.074 504.413H-298.529L-372.917 534.019H-432.281ZM-367.508 534.019L-293.12 504.413H-240.746L-307.311 534.019H-367.508ZM-302.39 534.019L-235.824 504.413H-183.061L-241.79 534.019H-302.39ZM-237.347 534.019L-178.618 504.413H-125.563L-176.427 534.019H-237.347ZM-172.451 534.019L-121.587 504.413H-68.0753L-111.13 534.019H-172.451ZM-107.6 534.019L-64.5455 504.413H-10.1046L-45.3723 534.019H-107.6ZM-42.2617 534.019L-6.99402 504.413H47.4205L20.0073 534.019H-42.2617ZM22.733 534.019L50.1462 504.413H104.932L85.3712 534.019H22.733ZM87.7684 534.019L107.329 504.413H162.268L150.524 534.019H87.7684ZM152.676 534.019L164.419 504.413H219.9L215.974 534.019H152.676ZM217.991 534.019L221.917 504.413H277.256L281.181 534.019H217.991ZM283.198 534.019L279.274 504.413H334.581L346.351 534.019H283.198ZM348.503 534.019L336.733 504.413H391.876L411.431 534.019H348.503ZM413.828 534.019L394.272 504.413H449.052L476.46 534.019H413.828ZM479.186 534.019L451.777 504.413H506.201L541.463 534.019H479.186ZM544.573 534.019L509.312 504.413H563.564L606.642 534.019H544.573ZM610.173 534.019L567.095 504.413H620.579L671.47 534.019H610.173ZM675.447 534.019L624.556 504.413H677.725L736.464 534.019H675.447ZM740.907 534.019L682.169 504.413H735.092L801.642 534.019H740.907ZM806.563 534.019L740.013 504.413H792.091L866.51 534.019H806.563ZM871.92 534.019L797.501 504.413H849.125L931.35 534.019H871.92ZM937.253 534.019L855.028 504.413H906.305L996.369 534.019H937.253ZM1002.77 534.019L912.71 504.413H963.554L1061.45 534.019H1002.77ZM1068.35 534.019L970.463 504.413H1021.01L1126.7 534.019H1068.35ZM1134.11 534.019L1028.42 504.413H1077.7L1191.25 534.019H1134.11Z" fill="url(#paint0_linear_10360_352)"/>
<defs>
<linearGradient id="paint0_linear_10360_352" x1="249.584" y1="-22" x2="249.584" y2="693.097" gradientUnits="userSpaceOnUse">
<stop stop-color="#863CFF" stop-opacity="0"/>
<stop offset="1" stop-color="#863CFF"/>
</linearGradient>
</defs>
</svg>
