<svg width="233" height="40" viewBox="0 0 233 40" fill="none" xmlns="http://www.w3.org/2000/svg">
<g clip-path="url(#clip0_8022_697)">
<path d="M45.2818 31.5372L37.8651 39.455C37.7034 39.6277 37.5082 39.7652 37.2914 39.8589C37.0746 39.9527 36.8409 40.0007 36.6049 40H1.43516C1.26747 40 1.1031 39.9511 0.963074 39.8595C0.857942 39.7919 0.768984 39.7019 0.702569 39.5958C0.636155 39.4897 0.593927 39.3702 0.578907 39.2458C0.563887 39.1214 0.576448 38.9952 0.615689 38.8763C0.654931 38.7573 0.719883 38.6486 0.805896 38.5578L8.22205 30.6406C8.3837 30.4679 8.57896 30.3303 8.79573 30.2365C9.01251 30.1426 9.24617 30.0945 9.48224 30.095H44.652C44.8197 30.095 44.984 30.1439 45.1241 30.2356C45.2292 30.3031 45.3182 30.3931 45.3847 30.4991C45.4512 30.6052 45.4934 30.7247 45.5085 30.8491C45.5236 30.9735 45.5111 31.0997 45.4719 31.2186C45.4327 31.3376 45.3678 31.4464 45.2818 31.5372ZM37.8651 15.5928C37.7034 15.4201 37.5082 15.2826 37.2914 15.1889C37.0746 15.0951 36.8409 15.0471 36.6049 15.0478H1.43516C1.26747 15.0478 1.1031 15.0967 0.963074 15.1878C0.822499 15.2794 0.712364 15.41 0.645397 15.5633C0.578442 15.7164 0.557957 15.886 0.586506 16.0507C0.615054 16.2154 0.691368 16.368 0.805896 16.4894L8.22205 24.4072C8.38373 24.5799 8.57901 24.7173 8.79578 24.8111C9.01256 24.9048 9.24621 24.9529 9.48224 24.9522H44.652C44.8197 24.9522 44.9835 24.9033 45.1235 24.8117C45.2635 24.72 45.3737 24.59 45.4406 24.4372C45.5076 24.2843 45.5283 24.115 45.5 23.9504C45.4718 23.7859 45.3959 23.6332 45.2818 23.5117L37.8651 15.5928ZM1.43738 9.90556H36.6071C36.8431 9.90539 37.0765 9.85693 37.2932 9.76312C37.5099 9.66932 37.7052 9.53215 37.8673 9.36L45.284 1.44167C45.398 1.31996 45.474 1.16736 45.5025 1.00276C45.531 0.838155 45.5109 0.668769 45.4445 0.515556C45.3775 0.362222 45.2674 0.232222 45.1268 0.140556C44.9861 0.0487687 44.822 -5.84467e-05 44.6542 5.25038e-08H9.48446C9.24862 0.000170755 9.0153 0.0485854 8.79873 0.142288C8.58215 0.235991 8.38688 0.373017 8.22482 0.545L0.80811 8.46278C0.694198 8.58444 0.61829 8.73694 0.589766 8.90143C0.561242 9.06592 0.581352 9.23519 0.647611 9.38834C0.714024 9.54111 0.82416 9.67167 0.964181 9.76333C1.10365 9.855 1.26747 9.90445 1.43516 9.905H1.43793L1.43738 9.90556Z" fill="white"/>
<mask id="mask0_8022_697" style="mask-type:luminance" maskUnits="userSpaceOnUse" x="59" y="0" width="174" height="40">
<path d="M233 0H59.2188V40H233V0Z" fill="white"/>
</mask>
<g mask="url(#mask0_8022_697)">
<path d="M62.571 9.41111H71.596V12.4122H59.2188V15.6178H71.4482C72.3337 15.6166 73.1827 15.263 73.8089 14.6345C74.4351 14.006 74.7875 13.1539 74.7888 12.265V9.55945C74.7881 8.67026 74.4359 7.8177 73.8096 7.1889C73.1833 6.5601 72.334 6.20644 71.4482 6.20556H62.4226V3.20556H74.7877V1.27478e-06H62.5687C61.6829 0.000736673 60.8336 0.354252 60.2072 0.982948C59.5808 1.61165 59.2285 2.46415 59.2276 3.35333V6.05889C59.2291 6.94823 59.5819 7.80067 60.2087 8.42922C60.8355 9.05776 61.685 9.41053 62.571 9.41111ZM90.4717 1.27478e-06H80.9602C80.0744 0.00058994 79.2251 0.354076 78.5987 0.98282C77.9724 1.61156 77.6202 2.46416 77.6197 3.35333V12.2644C77.6205 13.1535 77.9728 14.006 78.5991 14.6346C79.2254 15.2633 80.0745 15.6169 80.9602 15.6178H90.4717C91.3575 15.6169 92.2066 15.2633 92.8329 14.6346C93.4592 14.006 93.8114 13.1535 93.8123 12.2644V3.35333C93.8114 2.46425 93.4592 1.61183 92.8329 0.983145C92.2066 0.354464 91.3575 0.000883745 90.4717 1.27478e-06ZM90.619 3.20556V12.4122H80.8119V3.20556L90.619 3.20667V3.20556ZM98.7607 15.6189H111.931V12.4122H99.8831V1.27478e-06H96.6897V13.5389C96.6906 14.0901 96.909 14.6185 97.2972 15.0083C97.6853 15.3982 98.2116 15.6177 98.7607 15.6189ZM128.247 1.27478e-06H117.467C116.75 0.000883375 116.062 0.287386 115.554 0.796669C115.047 1.30595 114.762 1.99643 114.761 2.71667V15.6189H117.954V10.5267H127.761V15.6189H130.955V2.71722C130.954 1.99679 130.668 1.30625 130.16 0.796926C129.653 0.287602 128.965 0.00102926 128.247 1.27478e-06ZM127.76 3.20556V7.32111H117.953V3.20556H127.76ZM146.784 12.4122H146.19L140.199 1.10278C140.022 0.769445 139.759 0.490639 139.437 0.296336C139.114 0.102033 138.746 -0.000416856 138.37 1.27478e-06H135.857C135.307 0.000736215 134.781 0.220173 134.392 0.610194C134.004 1.00021 133.785 1.52898 133.784 2.08056V15.6194H136.978V3.20611H137.698L143.687 14.5156C143.863 14.8494 144.126 15.1286 144.449 15.3232C144.771 15.5177 145.141 15.6202 145.517 15.6194H147.906C148.455 15.6189 148.982 15.3995 149.371 15.0096C149.759 14.6197 149.978 14.091 149.979 13.5394V1.27478e-06H146.785L146.784 12.4122ZM166.556 1.27478e-06H155.776C155.058 0.000883375 154.371 0.287386 153.863 0.796669C153.356 1.30595 153.07 1.99643 153.07 2.71667V15.6189H156.264V10.5267H166.07V15.6189H169.263V2.71722C169.263 1.99666 168.977 1.30578 168.47 0.796311C167.962 0.286845 167.274 0.000442649 166.556 1.27478e-06ZM166.068 3.20556V7.32111H156.26V3.20556H166.068ZM59.2188 39.9989H62.4121V33.7922H74.4612V30.5867H62.4121V27.5856H74.4612V24.38H59.2188V39.9989ZM90.1347 24.38H80.6232C79.7372 24.3807 78.8876 24.7344 78.2611 25.3633C77.6345 25.9922 77.2822 26.845 77.2815 27.7344V36.6456C77.2818 37.5348 77.6338 38.3876 78.2603 39.0164C78.8867 39.6452 79.7362 39.9986 80.6221 39.9989H90.1341C91.0196 39.9976 91.8684 39.6439 92.4944 39.0154C93.1205 38.3869 93.4729 37.5349 93.4742 36.6461V27.7344C93.4736 26.8454 93.1216 25.9928 92.4956 25.3639C91.8695 24.735 91.0204 24.3812 90.1347 24.38ZM90.2814 27.5856V36.7933H80.4743V27.5856H90.2814ZM109.304 34.1C109.303 34.8142 109.02 35.4989 108.517 36.0039C108.014 36.5088 107.332 36.7927 106.62 36.7933H102.179C101.468 36.7919 100.787 36.5076 100.284 36.0028C99.7811 35.498 99.4981 34.8138 99.4967 34.1V24.3794H96.3039V34.7356C96.3053 36.1306 96.8578 37.4682 97.8404 38.4549C98.8229 39.4415 100.155 39.9966 101.545 39.9983H107.252C108.643 39.9972 109.976 39.4424 110.959 38.4558C111.942 37.4691 112.496 36.1312 112.498 34.7356V24.38H109.304V34.1ZM128.328 36.7933H127.734L121.742 25.4833C121.566 25.1496 121.303 24.8705 120.981 24.676C120.658 24.4816 120.289 24.3792 119.913 24.38H117.398C116.849 24.3806 116.322 24.6 115.934 24.9901C115.545 25.3801 115.327 25.909 115.326 26.4606V39.9994H118.519V27.5861H119.24L125.229 38.8956C125.405 39.2293 125.668 39.5085 125.991 39.7032C126.313 39.8978 126.683 40.0004 127.059 40H129.447C129.997 39.9997 130.523 39.7805 130.912 39.3905C131.301 39.0005 131.52 38.4717 131.52 37.92V24.38H128.327L128.328 36.7933ZM145.299 24.38H134.349V39.9989H145.299C146.689 39.9983 148.023 39.4437 149.006 38.457C149.99 37.4702 150.543 36.132 150.544 34.7361V29.6444C150.543 28.2484 149.99 26.9099 149.007 25.9229C148.023 24.9359 146.689 24.3806 145.299 24.38ZM137.542 27.5856H144.666C145.377 27.5866 146.059 27.8708 146.562 28.3759C147.065 28.881 147.348 29.5658 147.349 30.28V34.1C147.348 34.814 147.065 35.4984 146.562 36.0032C146.059 36.508 145.377 36.7922 144.666 36.7933H137.542V27.5856ZM166.862 24.38H156.08C155.362 24.3804 154.674 24.6668 154.167 25.1762C153.659 25.6856 153.374 26.3763 153.373 27.0967V39.9989H156.567V34.9067H166.374V39.9989H169.567V27.0978C169.567 26.3775 169.282 25.6867 168.775 25.1771C168.267 24.6676 167.58 24.3809 166.862 24.38ZM166.375 27.5856V31.7011H156.568V27.5856H166.375ZM172.398 27.5856H178.581V39.9989H181.775V27.5856H187.958V24.38H172.398V27.5856ZM194.138 24.38H190.945V39.9989H194.138V24.38ZM210.163 24.38H200.651C199.765 24.3807 198.916 24.7344 198.289 25.3633C197.663 25.9922 197.31 26.845 197.31 27.7344V36.6456C197.31 37.5348 197.662 38.3876 198.288 39.0164C198.915 39.6452 199.764 39.9986 200.65 39.9989H210.162C211.048 39.9976 211.897 39.6439 212.523 39.0154C213.149 38.3869 213.501 37.5349 213.502 36.6461V27.7344C213.502 26.8454 213.15 25.9928 212.524 25.3639C211.898 24.735 211.049 24.3812 210.163 24.38ZM210.31 27.5856V36.7933H200.503V27.5856H210.31ZM229.333 24.38V36.7922H228.739L222.747 25.4839C222.571 25.15 222.308 24.8707 221.985 24.6762C221.663 24.4816 221.294 24.3792 220.917 24.38H218.403C217.854 24.3803 217.327 24.5996 216.938 24.9897C216.55 25.3799 216.331 25.9089 216.331 26.4606V39.9994H219.524V27.5861H220.245L226.233 38.8956C226.41 39.2292 226.673 39.5083 226.996 39.7028C227.318 39.8974 227.687 40.0002 228.063 40H230.452C231.002 39.9993 231.528 39.7799 231.917 39.39C232.305 39.0001 232.524 38.4715 232.525 37.92V24.38H229.333Z" fill="white"/>
</g>
</g>
<defs>
<clipPath id="clip0_8022_697">
<rect width="233" height="40" fill="white"/>
</clipPath>
</defs>
</svg>
