<svg width="24" height="25" viewBox="0 0 24 25" fill="none" xmlns="http://www.w3.org/2000/svg">
<path d="M15.924 18.0046L17.8929 8.72343C18.0669 7.90657 17.598 7.58514 17.0623 7.78571L5.49086 12.2454C4.70057 12.5531 4.71429 12.9954 5.35714 13.196L8.31686 14.12L15.1877 9.794C15.5091 9.57971 15.804 9.70057 15.5631 9.91486L10.0054 14.9369L9.79114 17.9909C10.0989 17.9909 10.2334 17.8571 10.3937 17.696L11.8397 16.3031L14.8397 18.5129C15.3891 18.8206 15.7774 18.6603 15.9249 18.0037L15.924 18.0046ZM24 12.5C24 19.1291 18.6291 24.5 12 24.5C5.37086 24.5 0 19.1291 0 12.5C0 5.87086 5.37086 0.5 12 0.5C18.6291 0.5 24 5.87086 24 12.5Z" fill="white"/>
</svg>
